<?xml version="1.0" encoding="UTF-8"?>
<!-- Generator: Adobe Illustrator 25.4.1, SVG Export Plug-In . SVG Version: 6.00 Build 0)  -->
<svg version="1.1" id="Layer_1" xmlns="http://www.w3.org/2000/svg" xmlns:xlink="http://www.w3.org/1999/xlink" x="0px" y="0px" viewBox="0 0 263 100.8" style="enable-background:new 0 0 263 100.8;" xml:space="preserve">
<style type="text/css">
	.st0{fill:none;}
	.st1{fill:#00A4E4;}
	.st2{fill-rule:evenodd;clip-rule:evenodd;fill:#003767;}
	.st3{fill:#003767;}
</style>
<rect y="13.3" class="st0" width="291.9" height="76.2"/>
<path class="st1" d="M74.9,53.6c0.6,0.6,0.9,1.4,0.9,2.2c0,0.8-0.3,1.6-0.9,2.2c-0.6,0.6-1.4,0.9-2.3,0.9c-0.9,0-1.6-0.3-2.3-0.9  c-0.6-0.6-0.9-1.4-0.9-2.2c0-0.8,0.3-1.6,1-2.2c0.6-0.6,1.4-0.9,2.2-0.9C73.5,52.7,74.3,53,74.9,53.6z M74.6,53.9  c-0.5-0.5-1.2-0.8-2-0.8c-0.8,0-1.5,0.3-2,0.8c-0.6,0.5-0.9,1.2-0.9,2c0,0.7,0.3,1.4,0.8,1.9c0.5,0.5,1.2,0.8,2,0.8  c0.8,0,1.5-0.3,2-0.8c0.5-0.5,0.8-1.2,0.8-1.9C75.4,55.1,75.2,54.4,74.6,53.9z M74.2,54.9c0,0.5-0.3,0.9-0.9,0.9l0.8,1.6h-0.7  L72.7,56H72v1.5h-0.6V54h1.4C73.7,54,74.2,54.3,74.2,54.9z M72,54.4v1.2h0.6c0.7,0,1-0.1,1-0.6c0-0.5-0.3-0.6-1-0.6H72z"/>
<g>
	<path class="st2" d="M25.5,61.3h-3l-2.1,8.6l-3-8.6h-3l-3.4,14.1c4.9,0,4-5.4,5.1-8.8l3.1,8.8h2.9L25.5,61.3z"/>
	<path class="st2" d="M39.2,63.6c-1-1.7-2.7-2.4-4.6-2.4c-5.6,0-8.2,5.1-8.1,8.9c0.1,3.2,2.1,5.6,5.5,5.6c2.1,0,3.9-0.6,5.4-2l-2-2   c-0.8,0.9-1.9,1.5-3.1,1.5c-1.9,0-2.7-1.2-2.7-2.9c-0.1-2.7,1.7-6.4,4.9-6.4c1.2,0,2.1,0.5,2.5,1.6L39.2,63.6z"/>
	<path class="st2" d="M53.4,61.3H41.5l-0.6,2.5h4.3l-2.8,11.5c0,0,3,0,3.5-2.2l2.2-9.4h4.1L53.4,61.3z"/>
	<path class="st2" d="M69.1,61.3h-3.7l-5.2,9.3l-0.7-9.3h-3.7l-4.1,14.1c4.9,0,3.8-4.4,5.3-8l0.6,8h2.8l4.5-8l-1.6,8h3L69.1,61.3z"/>
</g>
<path class="st3" d="M27.4,56.4C33.2,54.1,36,50,39.5,45c0.8,1.9,1.5,3.6,2.6,5.4c-2.5,2.8-4.8,4.7-8.8,5.7c-1,0.3-1.7,0.4-2.7,0.5  C29.4,56.7,27.9,56.5,27.4,56.4z"/>
<path class="st3" d="M60.3,31c-5.8,2.4-8.7,6.5-12.2,11.5c-0.8-2-1.6-3.7-2.5-5.4c2.5-2.8,4.8-4.7,8.8-5.8c1-0.3,1.7-0.4,2.7-0.5  C58.4,30.7,59.7,30.9,60.3,31z"/>
<path class="st3" d="M45.9,27.4c1.5,0,2.5,1.1,2.3,2.6c-0.2,1.6-1.7,2.8-3.3,2.8c-1.5,0-2.5-1.1-2.3-2.6  C42.9,28.7,44.4,27.4,45.9,27.4z"/>
<path class="st3" d="M22.3,56.6c-2.2-0.1-4.1-1.4-5.1-2.4c-2-2.1-3.6-5.7-3-10.5c0.6-5.1,2.7-8.1,5.9-10.4c2.2-1.6,4.6-2.3,7.3-2.5  c1-0.1,1.8,0.2,1.8,0.2c-0.9,0.4-2.4,1-3.2,1.5c-4,2.4-6.4,6.8-6.8,11.4c-0.4,5.1,1,8,4.6,11.1c0.7,0.6,1.5,1,2,1.4  c-0.3,0.1-1.3,0.2-1.9,0.2C23.3,56.7,22.7,56.7,22.3,56.6z"/>
<path class="st1" d="M58.1,56.6c0.9-0.5,1.7-1.1,2.5-1.6c3.8-2.6,7.2-5.9,8-11c0.8-4.9,0-9-3-11.7c-0.8-0.7-1.5-1.2-2.3-1.6  c0,0,0.9-0.1,1.6,0c2.4,0.2,3.9,0.6,5.8,2.2c2.2,2,3.3,5.9,2.7,11c-0.6,4.7-3.2,8-5.9,10.2c-1.3,1.1-4.5,2.5-6.8,2.7  c-0.5,0-1.2,0.1-1.7,0C58.2,56.7,58.1,56.6,58.1,56.6z"/>
<path class="st1" d="M32,30.9c0.6-0.1,1.1-0.1,1.9-0.1c1,0.1,1.6,0.2,2.4,0.4c3.6,1.2,5.8,3.5,7.5,6.3c1.1,1.9,2.3,4.6,3.1,6.5  c2,4.7,4.4,9.4,8.4,12.3l0.2,0.2c-0.4,0.1-0.8,0.2-1.3,0.2c0,0-0.4,0-0.7,0c-2-0.1-3.5-0.6-4.9-1.6c-2.4-1.7-4-3.9-5.3-6.3  c-1-1.8-2.2-4.7-3-6.7C38.5,37.7,36.5,33.3,32,30.9z"/>
<g>
	<rect x="86.4" y="27.1" class="st1" width="1.1" height="49.7"/>
</g>
<g>
	<path class="st3" d="M105.9,51.4l-0.2-3.6h-4.1l-1.5,3.6h-3l6.8-14.4h3.8l1.1,14.4H105.9z M105.4,42.1l0-2.6h-0.3l-0.9,2.6   l-1.4,3.5h2.8L105.4,42.1z"/>
	<path class="st3" d="M115.5,43.7l-0.6-2.8h-0.3l-0.3,2.8l-1.6,7.7h-2.7l2.9-14.4h3.4l1.6,7.7l0.6,2.8h0.3l0.3-2.8l1.5-7.7h2.7   l-2.9,14.4h-3.4L115.5,43.7z"/>
	<path class="st3" d="M128.5,43.7l-0.6-2.8h-0.3l-0.3,2.8l-1.6,7.7h-2.7l2.9-14.4h3.4l1.6,7.7l0.6,2.8h0.3l0.3-2.8l1.5-7.7h2.7   l-2.9,14.4h-3.4L128.5,43.7z"/>
	<path class="st3" d="M141.7,36.9l-1.8,8.9c-0.1,0.2-0.1,0.5-0.1,0.8c0,0.3-0.1,0.5-0.1,0.8c0,0.7,0.2,1.1,0.5,1.4   c0.3,0.3,0.8,0.4,1.5,0.4c0.3,0,0.7,0,0.9-0.1c0.3-0.1,0.5-0.3,0.7-0.5c0.2-0.2,0.4-0.6,0.5-1c0.2-0.4,0.3-0.9,0.4-1.5l1.8-9.1h2.8   l-1.8,9.1c-0.2,1-0.5,1.9-0.8,2.6s-0.7,1.3-1.1,1.7c-0.4,0.4-1,0.8-1.6,1c-0.6,0.2-1.3,0.3-2.2,0.3c-1.6,0-2.7-0.3-3.4-1   s-1.1-1.7-1.1-3.1c0-0.4,0-0.7,0.1-1c0-0.3,0.1-0.7,0.2-1.1l1.7-8.5H141.7z"/>
	<path class="st3" d="M155.9,51.4l-0.2-3.6h-4.1l-1.5,3.6h-3l6.8-14.4h3.8l1.1,14.4H155.9z M155.5,42.1l0-2.6h-0.3l-0.9,2.6   l-1.4,3.5h2.8L155.5,42.1z"/>
	<path class="st3" d="M160.2,51.4l2.9-14.4h2.8l-2.4,11.9h4.7l-0.5,2.5H160.2z"/>
	<path class="st3" d="M185,43.6l0.7-2.8h-0.3l-1.7,2.8l-3.3,5.3l-1.3-5.3l-0.5-2.8h-0.3l-0.2,2.8l-1.6,7.7h-2.7l2.9-14.4h2.9   l1.2,5.1l0.3,2.3h0.2l1.2-2.3l3.2-5.1h3.1l-2.9,14.4h-2.7L185,43.6z"/>
	<path class="st3" d="M188.8,51.4l2.9-14.4h8.4l-0.5,2.5H194l-0.7,3.4h4.9l-0.5,2.5h-4.9l-0.7,3.6h5.8l-0.5,2.5H188.8z"/>
	<path class="st3" d="M199.4,51.4l2.9-14.4h8.4l-0.5,2.5h-5.6l-0.7,3.4h4.9l-0.5,2.5h-4.9l-0.7,3.6h5.8l-0.5,2.5H199.4z"/>
	<path class="st3" d="M217.7,39.4l-2.4,11.9h-2.8l2.4-11.9h-3.3l0.5-2.5h9.5l-0.5,2.5H217.7z"/>
	<path class="st3" d="M220,51.4l0.5-2.3h1.6l2-9.9h-1.6l0.5-2.3h6.1l-0.5,2.3h-1.6l-2,9.9h1.6l-0.5,2.3H220z"/>
	<path class="st3" d="M233.5,43.7l-0.6-2.8h-0.3l-0.3,2.8l-1.6,7.7h-2.7l2.9-14.4h3.4l1.6,7.7l0.6,2.8h0.3l0.3-2.8l1.5-7.7h2.7   l-2.9,14.4h-3.4L233.5,43.7z"/>
	<path class="st3" d="M249.8,48.8h-0.3c-0.3,0.9-0.7,1.6-1.2,2.1c-0.6,0.5-1.3,0.8-2.4,0.8c-0.8,0-1.4-0.1-1.9-0.4s-0.9-0.6-1.3-1   c-0.3-0.4-0.5-0.9-0.7-1.5c-0.1-0.6-0.2-1.2-0.2-1.9c0-0.6,0-1.3,0.1-1.9s0.2-1.3,0.3-1.9c0.2-1,0.5-1.9,0.9-2.6   c0.4-0.8,0.8-1.5,1.4-2c0.5-0.6,1.2-1,1.9-1.3c0.7-0.3,1.6-0.4,2.5-0.4c1.3,0,2.4,0.3,3.2,0.9c0.8,0.6,1.3,1.4,1.6,2.5l-2.4,1   c-0.1-0.6-0.4-1.1-0.7-1.4c-0.4-0.3-0.9-0.5-1.7-0.5c-0.5,0-0.9,0.1-1.3,0.2c-0.4,0.1-0.7,0.3-1,0.6c-0.3,0.3-0.5,0.7-0.7,1.2   c-0.2,0.5-0.4,1.1-0.5,1.9l-0.4,2.2c-0.1,0.3-0.1,0.6-0.2,0.9c0,0.3-0.1,0.5-0.1,0.7c0,0.8,0.2,1.4,0.5,1.8s0.8,0.6,1.5,0.6   c0.9,0,1.6-0.2,2.1-0.7c0.5-0.5,0.9-1,1-1.7l0.2-0.9h-2.3l0.5-2.3h5l-1.6,7.9h-2.3L249.8,48.8z"/>
	<path class="st3" d="M105.5,72.9h-0.3c-0.1,0.7-0.4,1.3-0.9,1.7s-1.3,0.6-2.2,0.6c-1.2,0-2.1-0.3-2.7-0.9c-0.6-0.6-0.8-1.4-0.8-2.5   c0-1,0.3-1.9,0.9-2.7c0.6-0.8,1.5-1.5,2.6-2c-0.3-0.5-0.6-1.1-0.8-1.6c-0.2-0.5-0.3-1-0.3-1.4c0-1.2,0.4-2.1,1.2-2.8   c0.8-0.7,1.9-1,3.3-1c1.1,0,2,0.3,2.5,0.8c0.6,0.5,0.9,1.3,0.9,2.2c0,0.4-0.1,0.8-0.2,1.2c-0.1,0.4-0.3,0.7-0.6,1   c-0.3,0.3-0.6,0.7-1.1,1c-0.4,0.3-1,0.7-1.6,1.1l1.5,2.4c0.2-0.6,0.4-1.1,0.5-1.5c0.1-0.5,0.2-0.9,0.3-1.4h3.3l-0.5,2.3h-1.4   c-0.1,0.2-0.1,0.4-0.2,0.6c-0.1,0.2-0.1,0.4-0.2,0.6c-0.1,0.2-0.2,0.4-0.3,0.6c-0.1,0.2-0.2,0.5-0.4,0.7L110,75h-3.3L105.5,72.9z    M103.1,72.9c0.5,0,0.8-0.1,1.1-0.2s0.5-0.3,0.8-0.6l-2.1-3.5c-0.5,0.3-0.8,0.6-1,0.9c-0.2,0.3-0.4,0.6-0.5,1.1   c0,0.1,0,0.2-0.1,0.4s0,0.2,0,0.3c0,0.5,0.1,0.9,0.4,1.2S102.4,72.9,103.1,72.9z M105,62.4c-0.4,0-0.6,0.1-0.8,0.3   c-0.2,0.2-0.3,0.5-0.4,0.9c0,0.2-0.1,0.4-0.1,0.6c0,0.2,0,0.5,0.1,0.8c0.1,0.3,0.3,0.6,0.5,1c0.6-0.4,1.1-0.7,1.3-1.1   c0.2-0.4,0.4-0.8,0.4-1.3c0-0.4-0.1-0.6-0.2-0.8C105.6,62.5,105.3,62.4,105,62.4z"/>
	<path class="st3" d="M115.8,75l2.9-14.4h8.4l-0.5,2.5H121l-0.7,3.4h4.9l-0.5,2.5h-4.9l-0.7,3.6h5.8l-0.5,2.5H115.8z"/>
	<path class="st3" d="M137.1,75h-3.1l-1.7-5.1h-0.2l-3.4,5.1h-3.2l5.6-7.5l-2.6-6.9h3.1l1.6,4.8h0.2l3.2-4.8h3.2l-5.4,7.2L137.1,75z   "/>
	<path class="st3" d="M138.4,75l2.9-14.4h5.1c1.3,0,2.3,0.3,2.9,0.8c0.7,0.6,1,1.5,1,2.8c0,0.8-0.1,1.5-0.4,2.2   c-0.2,0.7-0.6,1.2-1,1.7c-0.4,0.5-1,0.9-1.6,1.1c-0.6,0.3-1.3,0.4-2.1,0.4h-3l-1.1,5.4H138.4z M142.8,67.1h2.7   c0.5,0,0.8-0.1,1.1-0.4c0.3-0.2,0.4-0.6,0.5-1.2c0.1-0.4,0.1-0.7,0.2-0.9c0-0.2,0.1-0.4,0.1-0.5c0-0.4-0.1-0.6-0.2-0.8   c-0.2-0.2-0.4-0.3-0.9-0.3h-2.7L142.8,67.1z"/>
	<path class="st3" d="M155.3,75.2c-0.9,0-1.6-0.1-2.2-0.4s-1-0.6-1.4-1c-0.3-0.4-0.6-0.9-0.7-1.5c-0.1-0.6-0.2-1.2-0.2-1.9   c0-0.6,0-1.3,0.1-1.9c0.1-0.6,0.2-1.3,0.3-1.9c0.2-1,0.5-1.9,0.9-2.6c0.4-0.8,0.8-1.5,1.4-2c0.6-0.6,1.2-1,1.9-1.3   c0.7-0.3,1.6-0.4,2.5-0.4c0.9,0,1.6,0.1,2.2,0.4c0.6,0.2,1,0.6,1.4,1c0.3,0.4,0.6,0.9,0.7,1.5c0.1,0.6,0.2,1.2,0.2,1.9   c0,0.6,0,1.3-0.1,1.9c-0.1,0.6-0.2,1.3-0.3,1.8c-0.2,1-0.5,1.9-0.9,2.6c-0.4,0.8-0.8,1.5-1.4,2c-0.6,0.6-1.2,1-1.9,1.3   C157.1,75.1,156.2,75.2,155.3,75.2z M155.7,72.7c0.5,0,0.9-0.1,1.2-0.2c0.3-0.1,0.6-0.3,0.9-0.6c0.3-0.3,0.5-0.7,0.7-1.2   c0.2-0.5,0.4-1.1,0.5-1.9l0.4-2.2c0.1-0.3,0.1-0.6,0.2-0.9c0-0.3,0.1-0.5,0.1-0.7c0-0.8-0.2-1.4-0.5-1.8s-0.8-0.6-1.5-0.6   c-0.5,0-0.9,0.1-1.2,0.2c-0.3,0.1-0.6,0.3-0.9,0.6c-0.3,0.3-0.5,0.7-0.7,1.2c-0.2,0.5-0.4,1.1-0.5,1.9l-0.4,2.2   c-0.1,0.3-0.1,0.6-0.2,0.9c0,0.3-0.1,0.5-0.1,0.7c0,0.8,0.2,1.4,0.5,1.8C154.5,72.6,155,72.7,155.7,72.7z"/>
	<path class="st3" d="M166.8,75.2c-1,0-2-0.2-2.8-0.6s-1.4-1.1-1.8-2l2.2-1.7c0.2,0.6,0.6,1,1,1.3c0.4,0.3,0.9,0.4,1.6,0.4   c0.8,0,1.4-0.2,1.9-0.6c0.4-0.4,0.7-0.9,0.7-1.6c0-0.5-0.1-0.8-0.4-1.1s-0.6-0.4-1.1-0.6l-0.8-0.2c-1-0.3-1.7-0.7-2.3-1.3   c-0.5-0.5-0.8-1.3-0.8-2.4c0-0.7,0.1-1.4,0.4-1.9c0.2-0.6,0.6-1.1,1.1-1.5c0.5-0.4,1-0.7,1.7-1c0.6-0.2,1.4-0.3,2.2-0.3   c1,0,1.9,0.2,2.6,0.5c0.7,0.3,1.3,0.8,1.7,1.5l-2.1,1.8c-0.2-0.4-0.5-0.7-0.8-1s-0.8-0.4-1.5-0.4c-0.7,0-1.3,0.1-1.7,0.4   s-0.6,0.8-0.6,1.4c0,0.4,0.1,0.8,0.3,1c0.2,0.2,0.5,0.4,0.9,0.5l0.8,0.2c0.5,0.2,1,0.4,1.4,0.6c0.4,0.2,0.8,0.5,1,0.8   c0.3,0.3,0.5,0.6,0.7,1c0.2,0.4,0.2,0.9,0.2,1.4c0,0.7-0.1,1.3-0.4,2c-0.2,0.6-0.6,1.2-1.1,1.6c-0.5,0.5-1.1,0.8-1.7,1.1   S167.8,75.2,166.8,75.2z"/>
	<path class="st3" d="M172.9,75l0.5-2.3h1.6l2-9.9h-1.6l0.5-2.3h6.1l-0.5,2.3h-1.6l-2,9.9h1.6l-0.5,2.3H172.9z"/>
	<path class="st3" d="M188.8,63.1L186.4,75h-2.8l2.4-11.9h-3.3l0.5-2.5h9.5l-0.5,2.5H188.8z"/>
	<path class="st3" d="M191.1,75l0.5-2.3h1.6l2-9.9h-1.6l0.5-2.3h6.1l-0.5,2.3H198l-2,9.9h1.6l-0.5,2.3H191.1z"/>
	<path class="st3" d="M204.2,75.2c-0.9,0-1.6-0.1-2.2-0.4c-0.6-0.2-1-0.6-1.4-1c-0.3-0.4-0.6-0.9-0.7-1.5c-0.1-0.6-0.2-1.2-0.2-1.9   c0-0.6,0-1.3,0.1-1.9s0.2-1.3,0.3-1.9c0.2-1,0.5-1.9,0.9-2.6c0.4-0.8,0.8-1.5,1.4-2c0.6-0.6,1.2-1,1.9-1.3c0.7-0.3,1.6-0.4,2.5-0.4   c0.9,0,1.6,0.1,2.2,0.4s1,0.6,1.4,1c0.3,0.4,0.6,0.9,0.7,1.5c0.1,0.6,0.2,1.2,0.2,1.9c0,0.6,0,1.3-0.1,1.9   c-0.1,0.6-0.2,1.3-0.3,1.8c-0.2,1-0.5,1.9-0.9,2.6c-0.4,0.8-0.8,1.5-1.4,2c-0.6,0.6-1.2,1-1.9,1.3C206,75.1,205.1,75.2,204.2,75.2z    M204.6,72.7c0.5,0,0.9-0.1,1.2-0.2s0.6-0.3,0.9-0.6c0.3-0.3,0.5-0.7,0.7-1.2c0.2-0.5,0.4-1.1,0.5-1.9l0.4-2.2   c0.1-0.3,0.1-0.6,0.2-0.9c0-0.3,0.1-0.5,0.1-0.7c0-0.8-0.2-1.4-0.5-1.8c-0.3-0.4-0.8-0.6-1.5-0.6c-0.5,0-0.9,0.1-1.2,0.2   s-0.6,0.3-0.9,0.6c-0.3,0.3-0.5,0.7-0.7,1.2c-0.2,0.5-0.4,1.1-0.5,1.9l-0.4,2.2c-0.1,0.3-0.1,0.6-0.2,0.9c0,0.3-0.1,0.5-0.1,0.7   c0,0.8,0.2,1.4,0.5,1.8S203.9,72.7,204.6,72.7z"/>
	<path class="st3" d="M217.1,67.3l-0.6-2.8h-0.3l-0.3,2.8l-1.6,7.7h-2.7l2.9-14.4h3.4l1.6,7.7l0.6,2.8h0.3l0.3-2.8l1.6-7.7h2.7   L222.1,75h-3.4L217.1,67.3z"/>
</g>
<g>
	<path class="st3" d="M101,93c-0.7,0-1.3-0.1-1.9-0.3s-1-0.6-1.3-1.2l1.3-1c0.2,0.3,0.5,0.6,0.7,0.8s0.6,0.2,1.1,0.2   c0.5,0,0.9-0.1,1.2-0.3c0.3-0.2,0.4-0.5,0.4-0.9c0-0.3-0.1-0.5-0.3-0.6s-0.4-0.2-0.7-0.3l-0.6-0.1c-0.3-0.1-0.6-0.2-0.8-0.3   c-0.2-0.1-0.5-0.3-0.6-0.4c-0.2-0.2-0.3-0.4-0.4-0.6C99.1,87.6,99,87.3,99,87c0-0.4,0.1-0.7,0.2-1.1c0.2-0.3,0.4-0.6,0.7-0.9   c0.3-0.2,0.6-0.4,1-0.6c0.4-0.1,0.8-0.2,1.3-0.2c0.6,0,1.2,0.1,1.7,0.3c0.5,0.2,0.9,0.5,1.2,0.9l-1.3,1.1c-0.2-0.3-0.4-0.5-0.7-0.6   s-0.6-0.2-1-0.2c-0.4,0-0.8,0.1-1,0.3s-0.4,0.4-0.4,0.7c0,0.2,0.1,0.4,0.2,0.5c0.2,0.1,0.4,0.2,0.7,0.3l0.5,0.1   c0.3,0.1,0.6,0.2,0.9,0.3c0.3,0.1,0.5,0.3,0.7,0.5c0.2,0.2,0.3,0.4,0.4,0.6c0.1,0.2,0.2,0.5,0.2,0.9c0,0.4-0.1,0.7-0.2,1.1   c-0.2,0.4-0.4,0.7-0.7,0.9c-0.3,0.3-0.6,0.5-1.1,0.7C102,92.9,101.5,93,101,93z"/>
	<path class="st3" d="M107.9,93c-0.9,0-1.6-0.2-2-0.7c-0.4-0.5-0.7-1.1-0.7-2c0-0.5,0.1-1,0.2-1.5c0.2-0.5,0.4-0.9,0.7-1.2   c0.3-0.4,0.7-0.6,1.1-0.9c0.4-0.2,0.9-0.3,1.4-0.3c0.2,0,0.5,0,0.8,0.1c0.3,0.1,0.5,0.2,0.7,0.3s0.4,0.3,0.6,0.5   c0.1,0.2,0.2,0.5,0.2,0.9c0,0.3-0.1,0.6-0.2,0.9c-0.2,0.3-0.4,0.5-0.7,0.7c-0.3,0.2-0.7,0.3-1.2,0.4c-0.5,0.1-1.1,0.2-1.8,0.2   c0,0.1,0,0.1,0,0.2s0,0.1,0,0.1c0,0.3,0.1,0.5,0.2,0.7c0.2,0.2,0.5,0.3,0.9,0.3c0.3,0,0.5-0.1,0.8-0.2s0.5-0.4,0.8-0.7l1,0.8   c-0.4,0.5-0.8,0.9-1.2,1.1C109,92.9,108.5,93,107.9,93z M108.6,87.7c-0.4,0-0.7,0.1-0.9,0.4c-0.3,0.2-0.4,0.6-0.5,1l0,0.3   c0.4,0,0.8-0.1,1.1-0.1c0.3-0.1,0.5-0.1,0.7-0.2s0.3-0.2,0.3-0.3c0.1-0.1,0.1-0.2,0.1-0.3c0-0.1,0-0.2-0.1-0.3   c0-0.1-0.1-0.1-0.2-0.2c-0.1,0-0.1-0.1-0.2-0.1C108.7,87.7,108.7,87.7,108.6,87.7z"/>
	<path class="st3" d="M112.5,86.5h1.7l-0.3,1.5h0.1c0.2-0.5,0.5-0.9,0.8-1.2c0.3-0.3,0.7-0.4,1.2-0.4c0.3,0,0.6,0.1,0.8,0.2   c0.2,0.1,0.4,0.3,0.5,0.5c0.1,0.2,0.2,0.4,0.3,0.7s0.1,0.6,0.1,0.9c0,0.7-0.1,1.3-0.2,1.8c-0.2,0.5-0.4,1-0.6,1.4   c-0.3,0.4-0.6,0.7-0.9,0.9s-0.7,0.3-1.1,0.3c-0.4,0-0.8-0.1-1.1-0.4c-0.3-0.2-0.4-0.5-0.5-0.9h-0.1l-0.7,3.5h-1.7L112.5,86.5z    M114.4,91.6c0.7,0,1.2-0.5,1.4-1.4l0.2-0.8c0-0.1,0-0.2,0-0.3c0-0.1,0-0.3,0-0.3c0-0.3-0.1-0.5-0.2-0.7c-0.1-0.2-0.3-0.2-0.6-0.2   c-0.2,0-0.4,0.1-0.6,0.2c-0.2,0.1-0.3,0.2-0.5,0.4c-0.1,0.2-0.3,0.4-0.4,0.6s-0.2,0.4-0.2,0.7l-0.2,1c-0.1,0.3,0,0.6,0.2,0.8   C113.7,91.5,114,91.6,114.4,91.6z"/>
	<path class="st3" d="M120.2,92.8c-1,0-1.5-0.4-1.5-1.2c0-0.1,0-0.1,0-0.2c0-0.1,0-0.2,0-0.3l0.6-3.2h-0.9l0.3-1.4h0.4   c0.3,0,0.4-0.1,0.5-0.2c0.1-0.1,0.2-0.3,0.2-0.5l0.2-1.1h1.6l-0.3,1.7h1.3l-0.3,1.4h-1.3l-0.7,3.6h1.1l-0.3,1.4H120.2z"/>
	<path class="st3" d="M123.5,92.9c-0.3,0-0.6-0.1-0.7-0.2c-0.1-0.2-0.2-0.3-0.2-0.5c0-0.1,0-0.2,0-0.3c0-0.1,0-0.2,0.1-0.3   c0-0.3,0.2-0.5,0.4-0.6c0.2-0.2,0.5-0.2,0.8-0.2s0.6,0.1,0.7,0.2c0.1,0.2,0.2,0.3,0.2,0.5c0,0.1,0,0.1,0,0.3c0,0.1,0,0.2-0.1,0.3   c0,0.3-0.2,0.5-0.4,0.6C124.1,92.9,123.9,92.9,123.5,92.9z"/>
	<path class="st3" d="M134.6,92.8h-5.7l0.3-1.6l3-2.2c0.3-0.2,0.5-0.4,0.7-0.5c0.2-0.2,0.3-0.3,0.4-0.5c0.1-0.2,0.2-0.3,0.3-0.5   s0.1-0.3,0.1-0.4c0-0.1,0-0.2,0-0.3c0-0.3-0.1-0.5-0.3-0.7c-0.2-0.2-0.4-0.3-0.7-0.3c-0.4,0-0.7,0.1-0.9,0.4s-0.4,0.5-0.5,0.8   l-1.5-0.6c0.1-0.3,0.3-0.6,0.5-0.8s0.4-0.5,0.7-0.7c0.2-0.2,0.5-0.3,0.8-0.4c0.3-0.1,0.7-0.2,1.1-0.2c0.4,0,0.8,0.1,1.1,0.2   c0.3,0.1,0.6,0.3,0.8,0.5s0.4,0.4,0.5,0.7c0.1,0.3,0.2,0.6,0.2,0.9c0,0.4-0.1,0.7-0.2,1s-0.3,0.6-0.5,0.8c-0.2,0.3-0.5,0.5-0.8,0.8   c-0.3,0.3-0.7,0.5-1.1,0.8l-1.8,1.3h3.7L134.6,92.8z"/>
	<path class="st3" d="M138.9,93c-0.9,0-1.6-0.2-2-0.6c-0.4-0.4-0.7-0.9-0.7-1.5c0-0.6,0.2-1.1,0.5-1.5c0.4-0.4,0.8-0.7,1.5-0.8   l0-0.1c-0.3-0.1-0.6-0.3-0.8-0.6c-0.2-0.3-0.3-0.6-0.3-1c0-0.3,0.1-0.6,0.2-0.9s0.3-0.6,0.6-0.8s0.6-0.4,1-0.6   c0.4-0.1,0.9-0.2,1.4-0.2c0.4,0,0.8,0,1.1,0.1c0.3,0.1,0.6,0.2,0.8,0.4c0.2,0.2,0.4,0.4,0.5,0.6c0.1,0.2,0.2,0.5,0.2,0.8   c0,0.5-0.2,1-0.5,1.3s-0.7,0.7-1.2,0.8l0,0.1c0.4,0.1,0.7,0.3,0.9,0.6s0.3,0.7,0.3,1.2c0,0.3-0.1,0.7-0.2,1   c-0.1,0.3-0.4,0.6-0.7,0.9s-0.6,0.5-1.1,0.6C139.9,92.9,139.5,93,138.9,93z M139,91.6c0.4,0,0.7-0.1,0.9-0.3   c0.2-0.2,0.4-0.5,0.5-0.8c0-0.1,0-0.2,0-0.2c0-0.1,0-0.1,0-0.2c0-0.3-0.1-0.5-0.3-0.7c-0.2-0.2-0.4-0.2-0.8-0.2   c-0.4,0-0.7,0.1-0.9,0.3c-0.2,0.2-0.4,0.5-0.5,0.8c0,0.1,0,0.2,0,0.2c0,0.1,0,0.1,0,0.2c0,0.3,0.1,0.5,0.3,0.7S138.7,91.6,139,91.6   z M139.8,87.9c0.4,0,0.7-0.1,0.9-0.3c0.2-0.2,0.3-0.4,0.4-0.7c0-0.1,0-0.2,0-0.3c0-0.1,0-0.2,0-0.2c0-0.2-0.1-0.4-0.3-0.6   c-0.2-0.1-0.4-0.2-0.8-0.2c-0.4,0-0.7,0.1-0.9,0.3c-0.2,0.2-0.3,0.4-0.4,0.7c0,0.1,0,0.2,0,0.3c0,0.1,0,0.2,0,0.2   c0,0.2,0.1,0.4,0.3,0.6C139.2,87.8,139.4,87.9,139.8,87.9z"/>
	<path class="st3" d="M143.6,89.9l0.3-1.4h6.1l-0.3,1.4H143.6z"/>
	<path class="st3" d="M154.2,93c-0.4,0-0.8-0.1-1.1-0.2s-0.7-0.3-1-0.6s-0.5-0.6-0.7-1.1s-0.2-0.9-0.2-1.5c0-0.7,0.1-1.4,0.3-2   s0.5-1.2,0.9-1.7c0.4-0.5,0.8-0.9,1.4-1.1c0.5-0.3,1.1-0.4,1.7-0.4c0.4,0,0.8,0.1,1.1,0.2s0.7,0.3,1,0.6c0.3,0.3,0.5,0.6,0.7,1.1   c0.2,0.4,0.2,0.9,0.2,1.5c0,0.7-0.1,1.4-0.3,2c-0.2,0.6-0.5,1.2-0.9,1.7c-0.4,0.5-0.8,0.9-1.4,1.1C155.4,92.8,154.9,93,154.2,93z    M154.4,91.4c0.6,0,1-0.2,1.4-0.6c0.4-0.4,0.6-0.9,0.7-1.6l0.3-1.3c0-0.1,0-0.2,0-0.3c0-0.1,0-0.2,0-0.3c0-1-0.5-1.5-1.4-1.5   c-0.6,0-1,0.2-1.4,0.6c-0.4,0.4-0.6,0.9-0.7,1.6l-0.3,1.3c0,0.1,0,0.2,0,0.3s0,0.2,0,0.3C153,90.9,153.4,91.4,154.4,91.4z"/>
	<path class="st3" d="M161.8,93c-0.3,0-0.7,0-1-0.1s-0.6-0.3-0.8-0.5c-0.2-0.2-0.4-0.5-0.5-0.8s-0.2-0.8-0.2-1.2   c0-0.6,0.1-1.1,0.3-1.5s0.4-0.9,0.7-1.2c0.3-0.3,0.7-0.6,1.1-0.8c0.4-0.2,0.9-0.3,1.3-0.3c0.3,0,0.6,0,0.8,0.1s0.5,0.2,0.7,0.3   c0.2,0.1,0.4,0.3,0.5,0.5c0.1,0.2,0.2,0.4,0.3,0.7l-1.4,0.5c-0.1-0.2-0.2-0.4-0.3-0.6c-0.1-0.1-0.3-0.2-0.6-0.2   c-0.7,0-1.1,0.4-1.3,1.3l-0.2,1.1c0,0.2-0.1,0.4-0.1,0.5c0,0.3,0.1,0.5,0.2,0.7c0.1,0.2,0.4,0.3,0.7,0.3c0.2,0,0.3,0,0.4-0.1   c0.1,0,0.2-0.1,0.3-0.2c0.1-0.1,0.2-0.2,0.3-0.3s0.2-0.3,0.3-0.4l1.3,0.6c-0.3,0.6-0.6,1-1.1,1.3S162.4,93,161.8,93z"/>
	<path class="st3" d="M167.1,92.8c-1,0-1.5-0.4-1.5-1.2c0-0.1,0-0.1,0-0.2s0-0.2,0-0.3l0.6-3.2h-0.9l0.3-1.4h0.4   c0.3,0,0.4-0.1,0.5-0.2c0.1-0.1,0.2-0.3,0.2-0.5l0.2-1.1h1.6l-0.3,1.7h1.3l-0.3,1.4H168l-0.7,3.6h1.1l-0.3,1.4H167.1z"/>
	<path class="st3" d="M170.5,92.9c-0.3,0-0.6-0.1-0.7-0.2c-0.1-0.2-0.2-0.3-0.2-0.5c0-0.1,0-0.2,0-0.3c0-0.1,0-0.2,0.1-0.3   c0-0.3,0.2-0.5,0.4-0.6s0.5-0.2,0.8-0.2s0.6,0.1,0.7,0.2s0.2,0.3,0.2,0.5c0,0.1,0,0.1,0,0.3c0,0.1,0,0.2-0.1,0.3   c0,0.3-0.2,0.5-0.4,0.6S170.9,92.9,170.5,92.9z"/>
	<path class="st3" d="M176.5,92.8l0.3-1.4h2.2l1.1-5.7h-0.1l-2.1,2.2l-1-0.9l2.5-2.6h2.7l-1.4,7h1.7l-0.3,1.4H176.5z"/>
	<path class="st3" d="M184.8,90.8c0.3,0,0.6,0.1,0.7,0.2c0.1,0.2,0.2,0.3,0.2,0.6c0,0.1,0,0.1,0,0.2c0,0.1,0,0.2,0,0.3   c-0.1,0.4-0.3,0.9-0.6,1.3c-0.3,0.5-0.7,0.8-1.1,1.2h-1.3c0.3-0.3,0.6-0.5,0.9-0.8c0.3-0.3,0.5-0.6,0.6-0.9c-0.2,0-0.4-0.1-0.5-0.3   s-0.1-0.3-0.1-0.4c0-0.1,0-0.2,0-0.3c0-0.1,0-0.2,0.1-0.3c0.1-0.3,0.2-0.5,0.4-0.6C184.2,90.9,184.5,90.8,184.8,90.8z"/>
	<path class="st3" d="M190,92.8l1.7-8.4h1.7l-1.4,6.8h3.1l-0.3,1.5H190z"/>
	<path class="st3" d="M198.5,93c-0.8,0-1.4-0.2-1.8-0.7c-0.4-0.5-0.7-1.1-0.7-1.9c0-0.6,0.1-1.1,0.2-1.6c0.2-0.5,0.4-0.9,0.7-1.3   c0.3-0.4,0.6-0.6,1-0.8c0.4-0.2,0.8-0.3,1.3-0.3c0.8,0,1.4,0.2,1.8,0.7c0.4,0.5,0.7,1.1,0.7,1.9c0,0.6-0.1,1.1-0.2,1.6   c-0.2,0.5-0.4,0.9-0.7,1.3c-0.3,0.4-0.6,0.6-1,0.8C199.4,92.9,199,93,198.5,93z M198.6,91.6c0.7,0,1.1-0.5,1.3-1.4l0.2-1.1   c0,0,0-0.1,0-0.2c0-0.1,0-0.1,0-0.2c0-0.3-0.1-0.5-0.2-0.7c-0.2-0.2-0.4-0.3-0.7-0.3c-0.7,0-1.1,0.5-1.3,1.4l-0.2,1.1   c0,0,0,0.1,0,0.2c0,0.1,0,0.1,0,0.2c0,0.3,0.1,0.5,0.2,0.7C198.1,91.5,198.3,91.6,198.6,91.6z"/>
	<path class="st3" d="M204.6,93c-0.5,0-1-0.1-1.5-0.3c-0.4-0.2-0.8-0.5-1.1-0.8l1.1-1c0.2,0.2,0.4,0.4,0.6,0.5s0.5,0.2,0.9,0.2   c0.4,0,0.7-0.1,0.8-0.2s0.2-0.3,0.2-0.5c0-0.1,0-0.2-0.1-0.3s-0.2-0.2-0.5-0.2l-0.6-0.1c-0.5-0.1-1-0.2-1.2-0.5s-0.4-0.7-0.4-1.2   c0-0.3,0.1-0.6,0.2-0.9c0.1-0.3,0.3-0.5,0.5-0.7s0.5-0.4,0.8-0.5c0.3-0.1,0.7-0.2,1.2-0.2c0.5,0,0.9,0.1,1.3,0.2   c0.4,0.2,0.7,0.4,1,0.8l-1.1,1c-0.2-0.2-0.3-0.3-0.6-0.5c-0.2-0.1-0.5-0.2-0.8-0.2c-0.3,0-0.5,0.1-0.7,0.2   c-0.2,0.1-0.2,0.3-0.2,0.5c0,0.1,0,0.2,0.1,0.3c0.1,0.1,0.2,0.2,0.5,0.2l0.6,0.1c0.5,0.1,1,0.2,1.2,0.5s0.4,0.7,0.4,1.2   c0,0.3-0.1,0.6-0.2,0.9c-0.1,0.3-0.3,0.5-0.5,0.7c-0.2,0.2-0.5,0.4-0.9,0.5S205,93,204.6,93z"/>
	<path class="st3" d="M216.1,92.8l-0.2-2h-2.7l-1,2h-1.9l4.3-8.4h2.2l0.9,8.4H216.1z M215.5,86L215.5,86l-1.6,3.3h1.9L215.5,86z"/>
	<path class="st3" d="M218.8,92.8l1.3-6.3h1.7l-0.3,1.5h0.1c0.2-0.5,0.5-0.9,0.9-1.2c0.3-0.3,0.7-0.4,1.2-0.4c0.5,0,0.9,0.1,1.1,0.4   c0.3,0.3,0.4,0.7,0.4,1.2c0,0.2,0,0.3,0,0.4s0,0.3-0.1,0.4l-0.5,2.6h0.6l-0.3,1.4h-1.1c-0.3,0-0.6-0.1-0.7-0.2s-0.3-0.4-0.3-0.7   c0-0.1,0-0.1,0-0.2c0-0.1,0-0.1,0-0.1l0.5-2.5c0-0.1,0-0.2,0.1-0.3c0-0.1,0-0.2,0-0.3c0-0.2,0-0.3-0.1-0.5   c-0.1-0.1-0.3-0.2-0.5-0.2c-0.2,0-0.4,0.1-0.6,0.2c-0.2,0.1-0.3,0.2-0.5,0.4c-0.1,0.2-0.3,0.4-0.4,0.6c-0.1,0.2-0.2,0.4-0.2,0.7   l-0.6,3.2H218.8z"/>
	<path class="st3" d="M231.6,93.1c0,0.3-0.1,0.5-0.2,0.8c-0.1,0.3-0.3,0.5-0.6,0.7c-0.3,0.2-0.6,0.4-1.1,0.5   c-0.5,0.1-1.1,0.2-1.8,0.2c-0.5,0-1,0-1.3-0.1c-0.3-0.1-0.6-0.2-0.8-0.3c-0.2-0.1-0.3-0.3-0.4-0.4s-0.1-0.3-0.1-0.5   c0-0.2,0-0.4,0.1-0.5c0.1-0.1,0.2-0.3,0.3-0.4c0.1-0.1,0.3-0.2,0.4-0.3c0.2-0.1,0.3-0.1,0.5-0.2v-0.1c-0.2,0-0.4-0.2-0.5-0.3   s-0.2-0.4-0.2-0.6c0-0.2,0-0.3,0.1-0.5s0.2-0.3,0.3-0.4c0.1-0.1,0.3-0.2,0.4-0.3c0.2-0.1,0.3-0.1,0.5-0.2l0-0.1   c-0.3-0.2-0.5-0.4-0.7-0.6c-0.2-0.3-0.2-0.6-0.2-0.9c0-0.3,0.1-0.6,0.2-0.9c0.1-0.3,0.3-0.5,0.5-0.8c0.2-0.2,0.5-0.4,0.9-0.5   c0.4-0.1,0.8-0.2,1.3-0.2c0.2,0,0.4,0,0.6,0c0.2,0,0.3,0.1,0.5,0.1l0.1-0.3c0.1-0.3,0.2-0.6,0.4-0.7c0.2-0.1,0.4-0.2,0.7-0.2h0.9   l-0.3,1.3h-1.3l0,0.2c0.2,0.2,0.4,0.4,0.6,0.6c0.1,0.2,0.2,0.5,0.2,0.9c0,0.3-0.1,0.6-0.2,0.9c-0.1,0.3-0.3,0.5-0.5,0.8   c-0.2,0.2-0.5,0.4-0.9,0.5c-0.4,0.1-0.8,0.2-1.3,0.2c-0.4,0-0.7,0-1-0.1c-0.1,0.1-0.2,0.1-0.3,0.2s-0.1,0.2-0.1,0.3   c0,0.3,0.2,0.4,0.6,0.4h1.5C230.9,91.5,231.6,92,231.6,93.1z M229.9,93.4c0-0.2-0.1-0.3-0.2-0.4c-0.1-0.1-0.3-0.1-0.7-0.1h-2.1   c-0.1,0.1-0.2,0.2-0.3,0.3c0,0.1-0.1,0.2-0.1,0.3c0,0.2,0.1,0.3,0.2,0.5c0.2,0.1,0.4,0.2,0.8,0.2h0.8c0.5,0,0.9-0.1,1.1-0.2   C229.8,93.8,229.9,93.6,229.9,93.4z M228.9,89.5c0.3,0,0.6-0.1,0.8-0.2c0.2-0.1,0.3-0.4,0.4-0.6c0-0.1,0-0.2,0-0.3   c0-0.1,0-0.1,0-0.1c0-0.4-0.3-0.7-0.9-0.7c-0.3,0-0.6,0.1-0.8,0.2c-0.2,0.1-0.3,0.4-0.4,0.6c0,0.1,0,0.2,0,0.3s0,0.1,0,0.1   C228,89.2,228.3,89.5,228.9,89.5z"/>
	<path class="st3" d="M235,93c-0.9,0-1.6-0.2-2-0.7c-0.4-0.5-0.7-1.1-0.7-2c0-0.5,0.1-1,0.2-1.5c0.2-0.5,0.4-0.9,0.7-1.2   c0.3-0.4,0.7-0.6,1.1-0.9s0.9-0.3,1.4-0.3c0.2,0,0.5,0,0.8,0.1c0.3,0.1,0.5,0.2,0.7,0.3c0.2,0.1,0.4,0.3,0.6,0.5   c0.1,0.2,0.2,0.5,0.2,0.9c0,0.3-0.1,0.6-0.2,0.9c-0.2,0.3-0.4,0.5-0.7,0.7c-0.3,0.2-0.7,0.3-1.2,0.4c-0.5,0.1-1.1,0.2-1.8,0.2   c0,0.1,0,0.1,0,0.2s0,0.1,0,0.1c0,0.3,0.1,0.5,0.2,0.7c0.2,0.2,0.5,0.3,0.9,0.3c0.3,0,0.5-0.1,0.8-0.2s0.5-0.4,0.8-0.7l1,0.8   c-0.4,0.5-0.8,0.9-1.2,1.1S235.5,93,235,93z M235.6,87.7c-0.4,0-0.7,0.1-0.9,0.4c-0.3,0.2-0.4,0.6-0.5,1l0,0.3   c0.4,0,0.8-0.1,1.1-0.1c0.3-0.1,0.5-0.1,0.7-0.2s0.3-0.2,0.3-0.3c0.1-0.1,0.1-0.2,0.1-0.3c0-0.1,0-0.2-0.1-0.3   c0-0.1-0.1-0.1-0.2-0.2s-0.2-0.1-0.2-0.1C235.8,87.7,235.7,87.7,235.6,87.7z"/>
	<path class="st3" d="M239.6,92.8c-0.3,0-0.6-0.1-0.8-0.3s-0.3-0.4-0.3-0.7c0-0.1,0-0.2,0-0.3l1.5-7.6h1.7l-1.5,7.5h0.7l-0.3,1.4   H239.6z"/>
	<path class="st3" d="M244.4,93c-0.9,0-1.6-0.2-2-0.7c-0.4-0.5-0.7-1.1-0.7-2c0-0.5,0.1-1,0.2-1.5c0.2-0.5,0.4-0.9,0.7-1.2   c0.3-0.4,0.7-0.6,1.1-0.9s0.9-0.3,1.4-0.3c0.2,0,0.5,0,0.8,0.1c0.3,0.1,0.5,0.2,0.7,0.3c0.2,0.1,0.4,0.3,0.6,0.5   c0.1,0.2,0.2,0.5,0.2,0.9c0,0.3-0.1,0.6-0.2,0.9c-0.2,0.3-0.4,0.5-0.7,0.7c-0.3,0.2-0.7,0.3-1.2,0.4c-0.5,0.1-1.1,0.2-1.8,0.2   c0,0.1,0,0.1,0,0.2s0,0.1,0,0.1c0,0.3,0.1,0.5,0.2,0.7c0.2,0.2,0.5,0.3,0.9,0.3c0.3,0,0.5-0.1,0.8-0.2s0.5-0.4,0.8-0.7l1,0.8   c-0.4,0.5-0.8,0.9-1.2,1.1S245,93,244.4,93z M245.1,87.7c-0.4,0-0.7,0.1-0.9,0.4c-0.3,0.2-0.4,0.6-0.5,1l0,0.3   c0.4,0,0.8-0.1,1.1-0.1c0.3-0.1,0.5-0.1,0.7-0.2s0.3-0.2,0.3-0.3c0.1-0.1,0.1-0.2,0.1-0.3c0-0.1,0-0.2-0.1-0.3   c0-0.1-0.1-0.1-0.2-0.2s-0.2-0.1-0.2-0.1C245.2,87.7,245.2,87.7,245.1,87.7z"/>
	<path class="st3" d="M250.2,93c-0.5,0-1-0.1-1.5-0.3c-0.4-0.2-0.8-0.5-1.1-0.8l1.1-1c0.2,0.2,0.4,0.4,0.6,0.5   c0.2,0.1,0.5,0.2,0.9,0.2c0.4,0,0.7-0.1,0.8-0.2s0.2-0.3,0.2-0.5c0-0.1,0-0.2-0.1-0.3s-0.2-0.2-0.5-0.2l-0.6-0.1   c-0.5-0.1-1-0.2-1.2-0.5s-0.4-0.7-0.4-1.2c0-0.3,0.1-0.6,0.2-0.9c0.1-0.3,0.3-0.5,0.5-0.7s0.5-0.4,0.8-0.5s0.7-0.2,1.2-0.2   c0.5,0,0.9,0.1,1.3,0.2c0.4,0.2,0.7,0.4,1,0.8l-1.1,1c-0.2-0.2-0.3-0.3-0.6-0.5s-0.5-0.2-0.8-0.2c-0.3,0-0.5,0.1-0.7,0.2   c-0.2,0.1-0.2,0.3-0.2,0.5c0,0.1,0,0.2,0.1,0.3c0.1,0.1,0.2,0.2,0.5,0.2l0.6,0.1c0.5,0.1,1,0.2,1.2,0.5s0.4,0.7,0.4,1.2   c0,0.3-0.1,0.6-0.2,0.9s-0.3,0.5-0.5,0.7c-0.2,0.2-0.5,0.4-0.9,0.5S250.7,93,250.2,93z"/>
</g>
<g>
	<g>
		<path class="st1" d="M190.6,28.2h-17.3l1-4.4l9.1-6.1c0.8-0.5,1.4-1,2-1.5c0.5-0.5,1-0.9,1.4-1.3c0.4-0.4,0.6-0.8,0.9-1.2    c0.2-0.4,0.4-0.8,0.5-1.2c0.1-0.3,0.1-0.6,0.1-0.9c0-0.8-0.3-1.4-0.8-1.9c-0.6-0.5-1.3-0.7-2.2-0.7c-1.1,0-2,0.3-2.7,1    c-0.7,0.7-1.3,1.4-1.7,2.3l-4.4-1.6c0.4-0.8,0.9-1.6,1.5-2.3c0.6-0.7,1.2-1.3,2-1.8c0.7-0.5,1.6-0.9,2.6-1.2c1-0.3,2-0.4,3.2-0.4    c1.3,0,2.4,0.2,3.4,0.5c1,0.3,1.8,0.7,2.5,1.3c0.7,0.6,1.2,1.2,1.6,2s0.6,1.6,0.6,2.6c0,1-0.2,1.9-0.5,2.7    c-0.4,0.8-0.9,1.6-1.5,2.3c-0.7,0.7-1.5,1.5-2.5,2.2c-1,0.7-2.1,1.5-3.3,2.3l-5.5,3.6h11.1L190.6,28.2z"/>
		<path class="st1" d="M202.8,28.6c-1.6,0-2.9-0.3-3.9-0.8s-1.8-1.2-2.4-2c-0.6-0.8-1-1.7-1.2-2.7c-0.2-1-0.3-2-0.3-2.9    c0-2,0.3-3.9,0.8-5.7c0.5-1.8,1.2-3.5,2.2-4.9c1-1.4,2.2-2.6,3.6-3.4c1.4-0.9,3.1-1.3,4.9-1.3c1.6,0,2.9,0.3,3.9,0.8    c1,0.5,1.8,1.2,2.4,2c0.6,0.8,1,1.7,1.2,2.7c0.2,1,0.3,2,0.3,2.9c0,2-0.3,3.9-0.8,5.7c-0.5,1.8-1.2,3.5-2.2,4.9    c-1,1.4-2.2,2.6-3.6,3.4C206.3,28.2,204.6,28.6,202.8,28.6z M203.3,24.7c0.7,0,1.3-0.1,1.8-0.4s0.9-0.7,1.3-1.2    c0.4-0.5,0.7-1.2,0.9-1.9c0.3-0.7,0.5-1.5,0.7-2.4l0.9-4.1c0.1-0.4,0.2-0.9,0.2-1.2c0-0.4,0.1-0.8,0.1-1.1c0-1.1-0.2-2-0.7-2.6    c-0.5-0.6-1.3-1-2.5-1c-0.7,0-1.3,0.1-1.8,0.4c-0.5,0.3-0.9,0.7-1.3,1.2c-0.4,0.5-0.7,1.2-0.9,1.9s-0.5,1.5-0.7,2.4l-0.9,4.1    c-0.1,0.4-0.2,0.9-0.2,1.2s-0.1,0.8-0.1,1.1c0,1.1,0.2,2,0.7,2.6C201.3,24.4,202.1,24.7,203.3,24.7z"/>
		<path class="st1" d="M231.1,28.2h-17.3l1-4.4l9.1-6.1c0.8-0.5,1.4-1,2-1.5s1-0.9,1.4-1.3s0.6-0.8,0.9-1.2c0.2-0.4,0.4-0.8,0.5-1.2    c0.1-0.3,0.1-0.6,0.1-0.9c0-0.8-0.3-1.4-0.8-1.9c-0.6-0.5-1.3-0.7-2.2-0.7c-1.1,0-2,0.3-2.7,1c-0.7,0.7-1.3,1.4-1.7,2.3l-4.4-1.6    c0.4-0.8,0.9-1.6,1.5-2.3s1.2-1.3,2-1.8c0.8-0.5,1.6-0.9,2.6-1.2c1-0.3,2-0.4,3.2-0.4c1.3,0,2.4,0.2,3.4,0.5    c1,0.3,1.8,0.7,2.5,1.3c0.7,0.6,1.2,1.2,1.6,2c0.4,0.8,0.6,1.6,0.6,2.6c0,1-0.2,1.9-0.5,2.7c-0.4,0.8-0.9,1.6-1.5,2.3    s-1.5,1.5-2.4,2.2c-1,0.7-2.1,1.5-3.3,2.3l-5.5,3.6H232L231.1,28.2z"/>
		<path class="st1" d="M251,28.2h-17.3l1-4.4l9.1-6.1c0.8-0.5,1.4-1,2-1.5c0.5-0.5,1-0.9,1.4-1.3c0.4-0.4,0.6-0.8,0.9-1.2    c0.2-0.4,0.4-0.8,0.5-1.2c0.1-0.3,0.1-0.6,0.1-0.9c0-0.8-0.3-1.4-0.8-1.9c-0.6-0.5-1.3-0.7-2.2-0.7c-1.1,0-2,0.3-2.7,1    c-0.7,0.7-1.3,1.4-1.7,2.3l-4.4-1.6c0.4-0.8,0.9-1.6,1.5-2.3c0.6-0.7,1.2-1.3,2-1.8c0.7-0.5,1.6-0.9,2.6-1.2c1-0.3,2-0.4,3.2-0.4    c1.3,0,2.4,0.2,3.4,0.5c1,0.3,1.8,0.7,2.5,1.3c0.7,0.6,1.2,1.2,1.6,2s0.6,1.6,0.6,2.6c0,1-0.2,1.9-0.5,2.7    c-0.4,0.8-0.9,1.6-1.5,2.3c-0.7,0.7-1.5,1.5-2.5,2.2c-1,0.7-2.1,1.5-3.3,2.3l-5.5,3.6h11.1L251,28.2z"/>
	</g>
</g>
</svg>