<svg version="1.1" viewBox="0.0 0.0 632.4593175853018 351.1469816272966" fill="none" stroke="none" stroke-linecap="square" stroke-miterlimit="10" xmlns:xlink="http://www.w3.org/1999/xlink" xmlns="http://www.w3.org/2000/svg"><clipPath id="p.0"><path d="m0 0l632.4593 0l0 351.14697l-632.4593 0l0 -351.14697z" clip-rule="nonzero"/></clipPath><g clip-path="url(#p.0)"><path fill="#000000" fill-opacity="0.0" d="m0 0l632.4593 0l0 351.14697l-632.4593 0z" fill-rule="evenodd"/><path fill="#cfe2f3" d="m241.9685 22.456985l0 0c0 -8.056851 6.531372 -14.588219 14.588226 -14.588219l120.33536 0c3.869049 0 7.5796204 1.5369687 10.31543 4.2727904c2.7358398 2.7358217 4.2727966 6.446391 4.2727966 10.315429l0 58.35112c0 8.056854 -6.531372 14.588219 -14.588226 14.588219l-120.33536 0c-8.056854 0 -14.588226 -6.5313644 -14.588226 -14.588219z" fill-rule="evenodd"/><path stroke="#000000" stroke-width="1.0" stroke-linejoin="round" stroke-linecap="butt" d="m241.9685 22.456985l0 0c0 -8.056851 6.531372 -14.588219 14.588226 -14.588219l120.33536 0c3.869049 0 7.5796204 1.5369687 10.31543 4.2727904c2.7358398 2.7358217 4.2727966 6.446391 4.2727966 10.315429l0 58.35112c0 8.056854 -6.531372 14.588219 -14.588226 14.588219l-120.33536 0c-8.056854 0 -14.588226 -6.5313644 -14.588226 -14.588219z" fill-rule="evenodd"/><path fill="#000000" d="m290.71332 41.490044q0 1.609375 -0.421875 2.765625q-0.421875 1.15625 -1.21875 1.890625q-0.796875 0.71875 -1.9375 1.0625q-1.125 0.34375 -2.6875 0.34375l-2.8125 0q-0.3125 0 -0.515625 -0.171875q-0.203125 -0.1875 -0.203125 -0.578125l0 -10.28125q0 -0.40625 0.203125 -0.578125q0.203125 -0.171875 0.515625 -0.171875l3.015625 0q1.578125 0 2.671875 0.375q1.109375 0.359375 1.859375 1.09375q0.75 0.71875 1.140625 1.78125q0.390625 1.0625 0.390625 2.46875zm-2.484375 0.078125q0 -0.84375 -0.203125 -1.5625q-0.1875 -0.71875 -0.625 -1.234375q-0.421875 -0.53125 -1.109375 -0.828125q-0.671875 -0.296875 -1.78125 -0.296875l-1.203125 0l0 8.015625l1.25 0q0.984375 0 1.65625 -0.25q0.671875 -0.265625 1.125 -0.78125q0.453125 -0.515625 0.671875 -1.28125q0.21875 -0.765625 0.21875 -1.78125zm11.24472 5.703125q0 0.125 -0.09375 0.203125q-0.09375 0.0625 -0.296875 0.09375q-0.1875 0.03125 -0.578125 0.03125q-0.40625 0 -0.59375 -0.03125q-0.1875 -0.03125 -0.265625 -0.09375q-0.078125 -0.078125 -0.078125 -0.203125l0 -0.640625q-0.5 0.53125 -1.140625 0.828125q-0.640625 0.296875 -1.421875 0.296875q-0.65625 0 -1.203125 -0.171875q-0.53125 -0.15625 -0.9375 -0.484375q-0.390625 -0.34375 -0.609375 -0.828125q-0.21875 -0.5 -0.21875 -1.15625q0 -0.703125 0.28125 -1.21875q0.28125 -0.53125 0.828125 -0.875q0.5625 -0.34375 1.375 -0.5q0.8125 -0.171875 1.90625 -0.171875l0.796875 0l0 -0.484375q0 -0.390625 -0.078125 -0.671875q-0.078125 -0.296875 -0.265625 -0.484375q-0.171875 -0.1875 -0.46875 -0.28125q-0.296875 -0.09375 -0.734375 -0.09375q-0.578125 0 -1.03125 0.140625q-0.4375 0.125 -0.796875 0.28125q-0.34375 0.140625 -0.578125 0.28125q-0.21875 0.125 -0.375 0.125q-0.09375 0 -0.171875 -0.0625q-0.078125 -0.0625 -0.140625 -0.1875q-0.046875 -0.125 -0.078125 -0.296875q-0.015625 -0.171875 -0.015625 -0.375q0 -0.28125 0.046875 -0.4375q0.046875 -0.171875 0.171875 -0.296875q0.125 -0.140625 0.4375 -0.296875q0.328125 -0.171875 0.75 -0.296875q0.4375 -0.140625 0.9375 -0.21875q0.5 -0.09375 1.046875 -0.09375q0.953125 0 1.625 0.1875q0.6875 0.1875 1.125 0.578125q0.4375 0.375 0.640625 0.984375q0.203125 0.609375 0.203125 1.453125l0 5.46875zm-2.25 -3.484375l-0.875 0q-0.5625 0 -0.953125 0.09375q-0.390625 0.078125 -0.640625 0.25q-0.25 0.15625 -0.359375 0.390625q-0.109375 0.21875 -0.109375 0.53125q0 0.5 0.3125 0.796875q0.328125 0.296875 0.90625 0.296875q0.484375 0 0.890625 -0.25q0.40625 -0.25 0.828125 -0.71875l0 -1.390625zm9.16153 2.65625q0 0.40625 -0.046875 0.625q-0.046875 0.203125 -0.140625 0.296875q-0.078125 0.078125 -0.234375 0.15625q-0.15625 0.0625 -0.375 0.109375q-0.203125 0.046875 -0.453125 0.078125q-0.25 0.03125 -0.515625 0.03125q-0.6875 0 -1.1875 -0.171875q-0.5 -0.171875 -0.828125 -0.53125q-0.328125 -0.375 -0.484375 -0.921875q-0.140625 -0.546875 -0.140625 -1.28125l0 -4.171875l-0.984375 0q-0.171875 0 -0.265625 -0.203125q-0.09375 -0.21875 -0.09375 -0.71875q0 -0.265625 0.015625 -0.4375q0.03125 -0.1875 0.078125 -0.296875q0.046875 -0.109375 0.109375 -0.15625q0.078125 -0.046875 0.171875 -0.046875l0.96875 0l0 -1.8125q0 -0.09375 0.046875 -0.15625q0.046875 -0.078125 0.171875 -0.125q0.140625 -0.046875 0.359375 -0.0625q0.21875 -0.03125 0.546875 -0.03125q0.34375 0 0.5625 0.03125q0.234375 0.015625 0.359375 0.0625q0.125 0.046875 0.171875 0.125q0.0625 0.0625 0.0625 0.15625l0 1.8125l1.765625 0q0.09375 0 0.15625 0.046875q0.078125 0.046875 0.109375 0.15625q0.046875 0.109375 0.0625 0.296875q0.03125 0.171875 0.03125 0.4375q0 0.5 -0.09375 0.71875q-0.078125 0.203125 -0.25 0.203125l-1.78125 0l0 3.828125q0 0.65625 0.203125 1.0q0.21875 0.328125 0.75 0.328125q0.1875 0 0.328125 -0.03125q0.140625 -0.03125 0.25 -0.078125q0.125 -0.046875 0.203125 -0.078125q0.078125 -0.03125 0.140625 -0.03125q0.046875 0 0.09375 0.03125q0.0625 0.03125 0.078125 0.140625q0.03125 0.09375 0.046875 0.265625q0.03125 0.15625 0.03125 0.40625zm8.410461 0.828125q0 0.125 -0.09375 0.203125q-0.09375 0.0625 -0.296875 0.09375q-0.1875 0.03125 -0.578125 0.03125q-0.40625 0 -0.59375 -0.03125q-0.1875 -0.03125 -0.265625 -0.09375q-0.078125 -0.078125 -0.078125 -0.203125l0 -0.640625q-0.5 0.53125 -1.140625 0.828125q-0.640625 0.296875 -1.421875 0.296875q-0.65625 0 -1.203125 -0.171875q-0.53125 -0.15625 -0.9375 -0.484375q-0.390625 -0.34375 -0.609375 -0.828125q-0.21875 -0.5 -0.21875 -1.15625q0 -0.703125 0.28125 -1.21875q0.28125 -0.53125 0.828125 -0.875q0.5625 -0.34375 1.375 -0.5q0.8125 -0.171875 1.90625 -0.171875l0.796875 0l0 -0.484375q0 -0.390625 -0.078125 -0.671875q-0.078125 -0.296875 -0.265625 -0.484375q-0.171875 -0.1875 -0.46875 -0.28125q-0.296875 -0.09375 -0.734375 -0.09375q-0.578125 0 -1.03125 0.140625q-0.4375 0.125 -0.796875 0.28125q-0.34375 0.140625 -0.578125 0.28125q-0.21875 0.125 -0.375 0.125q-0.09375 0 -0.171875 -0.0625q-0.078125 -0.0625 -0.140625 -0.1875q-0.046875 -0.125 -0.078125 -0.296875q-0.015625 -0.171875 -0.015625 -0.375q0 -0.28125 0.046875 -0.4375q0.046875 -0.171875 0.171875 -0.296875q0.125 -0.140625 0.4375 -0.296875q0.328125 -0.171875 0.75 -0.296875q0.4375 -0.140625 0.9375 -0.21875q0.5 -0.09375 1.046875 -0.09375q0.953125 0 1.625 0.1875q0.6875 0.1875 1.125 0.578125q0.4375 0.375 0.640625 0.984375q0.203125 0.609375 0.203125 1.453125l0 5.46875zm-2.25 -3.484375l-0.875 0q-0.5625 0 -0.953125 0.09375q-0.390625 0.078125 -0.640625 0.25q-0.25 0.15625 -0.359375 0.390625q-0.109375 0.21875 -0.109375 0.53125q0 0.5 0.3125 0.796875q0.328125 0.296875 0.90625 0.296875q0.484375 0 0.890625 -0.25q0.40625 -0.25 0.828125 -0.71875l0 -1.390625z" fill-rule="nonzero"/><path fill="#000000" d="m333.0043 39.115044q0 0.0625 -0.015625 0.15625q-0.015625 0.078125 -0.0625 0.21875l-2.421875 7.796875q-0.015625 0.09375 -0.078125 0.15625q-0.0625 0.0625 -0.171875 0.109375q-0.09375 0.03125 -0.28125 0.03125q-0.1875 0.015625 -0.453125 0.015625q-0.28125 0 -0.484375 -0.015625q-0.1875 -0.015625 -0.296875 -0.046875q-0.109375 -0.03125 -0.171875 -0.09375q-0.046875 -0.078125 -0.078125 -0.15625l-1.71875 -5.953125l-0.015625 -0.078125l-0.015625 0.078125l-1.609375 5.953125q-0.015625 0.09375 -0.078125 0.15625q-0.0625 0.0625 -0.1875 0.109375q-0.109375 0.03125 -0.296875 0.03125q-0.1875 0.015625 -0.453125 0.015625q-0.28125 0 -0.46875 -0.015625q-0.171875 -0.015625 -0.296875 -0.046875q-0.109375 -0.03125 -0.171875 -0.09375q-0.046875 -0.078125 -0.078125 -0.15625l-2.390625 -7.796875q-0.046875 -0.140625 -0.0625 -0.21875q-0.015625 -0.09375 -0.015625 -0.15625q0 -0.09375 0.03125 -0.140625q0.046875 -0.046875 0.125 -0.078125q0.09375 -0.03125 0.234375 -0.03125q0.140625 -0.015625 0.359375 -0.015625q0.25 0 0.40625 0.015625q0.15625 0 0.234375 0.03125q0.078125 0.03125 0.109375 0.09375q0.046875 0.0625 0.078125 0.140625l1.96875 6.765625l0.015625 0.078125l0.03125 -0.078125l1.8125 -6.765625q0.015625 -0.078125 0.046875 -0.140625q0.046875 -0.0625 0.125 -0.09375q0.09375 -0.03125 0.234375 -0.03125q0.140625 -0.015625 0.359375 -0.015625q0.21875 0 0.359375 0.015625q0.140625 0 0.21875 0.03125q0.09375 0.03125 0.125 0.09375q0.03125 0.046875 0.0625 0.125l1.953125 6.78125l0.015625 0.078125l0.015625 -0.078125l1.9375 -6.765625q0.03125 -0.078125 0.0625 -0.140625q0.046875 -0.0625 0.125 -0.09375q0.09375 -0.03125 0.234375 -0.03125q0.15625 -0.015625 0.390625 -0.015625q0.21875 0 0.34375 0.015625q0.140625 0 0.21875 0.03125q0.078125 0.03125 0.109375 0.078125q0.03125 0.046875 0.03125 0.140625zm3.3675537 8.203125q0 0.078125 -0.03125 0.140625q-0.03125 0.046875 -0.125 0.078125q-0.078125 0.03125 -0.21875 0.046875q-0.140625 0.015625 -0.375 0.015625q-0.21875 0 -0.375 -0.015625q-0.140625 -0.015625 -0.234375 -0.046875q-0.078125 -0.03125 -0.109375 -0.078125q-0.03125 -0.0625 -0.03125 -0.140625l0 -8.1875q0 -0.0625 0.03125 -0.109375q0.03125 -0.0625 0.109375 -0.09375q0.09375 -0.046875 0.234375 -0.0625q0.15625 -0.015625 0.375 -0.015625q0.234375 0 0.375 0.015625q0.140625 0.015625 0.21875 0.0625q0.09375 0.03125 0.125 0.09375q0.03125 0.046875 0.03125 0.109375l0 8.1875zm0.171875 -10.96875q0 0.53125 -0.203125 0.734375q-0.1875 0.1875 -0.734375 0.1875q-0.515625 0 -0.71875 -0.1875q-0.1875 -0.1875 -0.1875 -0.703125q0 -0.53125 0.1875 -0.71875q0.203125 -0.203125 0.75 -0.203125q0.515625 0 0.703125 0.1875q0.203125 0.1875 0.203125 0.703125zm6.8752136 10.375q0 0.265625 -0.046875 0.421875q-0.03125 0.15625 -0.109375 0.234375q-0.0625 0.0625 -0.21875 0.125q-0.140625 0.0625 -0.328125 0.09375q-0.1875 0.046875 -0.390625 0.078125q-0.203125 0.03125 -0.421875 0.03125q-0.640625 0 -1.09375 -0.171875q-0.453125 -0.171875 -0.75 -0.5q-0.28125 -0.34375 -0.421875 -0.859375q-0.125 -0.53125 -0.125 -1.25l0 -4.796875l-1.15625 0q-0.125 0 -0.21875 -0.140625q-0.078125 -0.140625 -0.078125 -0.46875q0 -0.171875 0.015625 -0.28125q0.03125 -0.125 0.0625 -0.203125q0.046875 -0.078125 0.09375 -0.109375q0.0625 -0.03125 0.140625 -0.03125l1.140625 0l0 -1.953125q0 -0.0625 0.03125 -0.109375q0.03125 -0.0625 0.109375 -0.109375q0.09375 -0.046875 0.234375 -0.0625q0.15625 -0.015625 0.375 -0.015625q0.21875 0 0.359375 0.015625q0.15625 0.015625 0.234375 0.0625q0.078125 0.046875 0.109375 0.109375q0.046875 0.046875 0.046875 0.109375l0 1.953125l2.109375 0q0.0625 0 0.109375 0.03125q0.0625 0.03125 0.109375 0.109375q0.046875 0.078125 0.0625 0.203125q0.015625 0.109375 0.015625 0.28125q0 0.328125 -0.078125 0.46875q-0.078125 0.140625 -0.21875 0.140625l-2.109375 0l0 4.578125q0 0.84375 0.25 1.28125q0.25 0.4375 0.90625 0.4375q0.203125 0 0.359375 -0.046875q0.171875 -0.046875 0.296875 -0.078125q0.125 -0.046875 0.21875 -0.09375q0.09375 -0.046875 0.171875 -0.046875q0.046875 0 0.078125 0.03125q0.046875 0.015625 0.0625 0.078125q0.03125 0.0625 0.046875 0.171875q0.015625 0.109375 0.015625 0.28125zm9.04599 0.59375q0 0.078125 -0.046875 0.140625q-0.03125 0.046875 -0.109375 0.078125q-0.078125 0.03125 -0.234375 0.046875q-0.140625 0.015625 -0.359375 0.015625q-0.21875 0 -0.375 -0.015625q-0.140625 -0.015625 -0.234375 -0.046875q-0.078125 -0.03125 -0.109375 -0.078125q-0.03125 -0.0625 -0.03125 -0.140625l0 -4.796875q0 -0.703125 -0.109375 -1.125q-0.109375 -0.4375 -0.328125 -0.734375q-0.203125 -0.3125 -0.546875 -0.46875q-0.328125 -0.171875 -0.765625 -0.171875q-0.5625 0 -1.125 0.40625q-0.5625 0.390625 -1.1875 1.171875l0 5.71875q0 0.078125 -0.03125 0.140625q-0.03125 0.046875 -0.125 0.078125q-0.078125 0.03125 -0.21875 0.046875q-0.140625 0.015625 -0.375 0.015625q-0.21875 0 -0.375 -0.015625q-0.140625 -0.015625 -0.234375 -0.046875q-0.078125 -0.03125 -0.109375 -0.078125q-0.03125 -0.0625 -0.03125 -0.140625l0 -12.15625q0 -0.078125 0.03125 -0.125q0.03125 -0.0625 0.109375 -0.09375q0.09375 -0.046875 0.234375 -0.0625q0.15625 -0.015625 0.375 -0.015625q0.234375 0 0.375 0.015625q0.140625 0.015625 0.21875 0.0625q0.09375 0.03125 0.125 0.09375q0.03125 0.046875 0.03125 0.125l0 4.90625q0.65625 -0.6875 1.3125 -1.015625q0.65625 -0.34375 1.3125 -0.34375q0.828125 0 1.375 0.28125q0.5625 0.28125 0.90625 0.75q0.359375 0.46875 0.5 1.09375q0.15625 0.609375 0.15625 1.5l0 4.984375z" fill-rule="nonzero"/><path fill="#000000" d="m300.2269 68.55254q0 0.265625 -0.03125 0.453125q-0.015625 0.1875 -0.0625 0.3125q-0.046875 0.125 -0.125 0.1875q-0.0625 0.046875 -0.15625 0.046875l-5.390625 0q-0.3125 0 -0.515625 -0.171875q-0.203125 -0.1875 -0.203125 -0.578125l0 -10.703125q0 -0.09375 0.0625 -0.171875q0.0625 -0.078125 0.1875 -0.109375q0.140625 -0.046875 0.375 -0.078125q0.234375 -0.03125 0.578125 -0.03125q0.359375 0 0.578125 0.03125q0.234375 0.03125 0.375 0.078125q0.140625 0.03125 0.1875 0.109375q0.0625 0.078125 0.0625 0.171875l0 9.46875l3.703125 0q0.09375 0 0.15625 0.0625q0.078125 0.046875 0.125 0.15625q0.046875 0.109375 0.0625 0.296875q0.03125 0.1875 0.03125 0.46875zm8.201324 0.71875q0 0.125 -0.09375 0.203125q-0.09375 0.0625 -0.296875 0.09375q-0.1875 0.03125 -0.578125 0.03125q-0.40625 0 -0.59375 -0.03125q-0.1875 -0.03125 -0.265625 -0.09375q-0.078125 -0.078125 -0.078125 -0.203125l0 -0.640625q-0.5 0.53125 -1.140625 0.828125q-0.640625 0.296875 -1.421875 0.296875q-0.65625 0 -1.203125 -0.171875q-0.53125 -0.15625 -0.9375 -0.484375q-0.390625 -0.34375 -0.609375 -0.828125q-0.21875 -0.5 -0.21875 -1.15625q0 -0.703125 0.28125 -1.21875q0.28125 -0.53125 0.828125 -0.875q0.5625 -0.34375 1.375 -0.5q0.8125 -0.171875 1.90625 -0.171875l0.796875 0l0 -0.484375q0 -0.390625 -0.078125 -0.671875q-0.078125 -0.296875 -0.265625 -0.484375q-0.171875 -0.1875 -0.46875 -0.28125q-0.296875 -0.09375 -0.734375 -0.09375q-0.578125 0 -1.03125 0.140625q-0.4375 0.125 -0.796875 0.28125q-0.34375 0.140625 -0.578125 0.28125q-0.21875 0.125 -0.375 0.125q-0.09375 0 -0.171875 -0.0625q-0.078125 -0.0625 -0.140625 -0.1875q-0.046875 -0.125 -0.078125 -0.296875q-0.015625 -0.171875 -0.015625 -0.375q0 -0.28125 0.046875 -0.4375q0.046875 -0.171875 0.171875 -0.296875q0.125 -0.140625 0.4375 -0.296875q0.328125 -0.171875 0.75 -0.296875q0.4375 -0.140625 0.9375 -0.21875q0.5 -0.09375 1.046875 -0.09375q0.953125 0 1.625 0.1875q0.6875 0.1875 1.125 0.578125q0.4375 0.375 0.640625 0.984375q0.203125 0.609375 0.203125 1.453125l0 5.46875zm-2.25 -3.484375l-0.875 0q-0.5625 0 -0.953125 0.09375q-0.390625 0.078125 -0.640625 0.25q-0.25 0.15625 -0.359375 0.390625q-0.109375 0.21875 -0.109375 0.53125q0 0.5 0.3125 0.796875q0.328125 0.296875 0.90625 0.296875q0.484375 0 0.890625 -0.25q0.40625 -0.25 0.828125 -0.71875l0 -1.390625zm12.709686 -0.71875q0 1.09375 -0.234375 1.953125q-0.234375 0.859375 -0.6875 1.46875q-0.4375 0.609375 -1.09375 0.9375q-0.65625 0.328125 -1.484375 0.328125q-0.40625 0 -0.765625 -0.078125q-0.359375 -0.078125 -0.6875 -0.25q-0.3125 -0.171875 -0.625 -0.421875q-0.3125 -0.265625 -0.640625 -0.640625l0 0.875q0 0.109375 -0.0625 0.171875q-0.046875 0.0625 -0.15625 0.109375q-0.109375 0.046875 -0.3125 0.0625q-0.1875 0.015625 -0.453125 0.015625q-0.28125 0 -0.46875 -0.015625q-0.1875 -0.015625 -0.3125 -0.0625q-0.109375 -0.046875 -0.15625 -0.109375q-0.046875 -0.0625 -0.046875 -0.171875l0 -11.96875q0 -0.09375 0.046875 -0.171875q0.0625 -0.078125 0.1875 -0.125q0.140625 -0.046875 0.359375 -0.078125q0.21875 -0.03125 0.5625 -0.03125q0.328125 0 0.546875 0.03125q0.21875 0.03125 0.34375 0.078125q0.140625 0.046875 0.1875 0.125q0.0625 0.078125 0.0625 0.171875l0 4.484375q0.3125 -0.3125 0.625 -0.53125q0.3125 -0.21875 0.609375 -0.359375q0.3125 -0.140625 0.640625 -0.203125q0.328125 -0.0625 0.703125 -0.0625q0.90625 0 1.53125 0.359375q0.625 0.359375 1.015625 0.96875q0.40625 0.609375 0.578125 1.421875q0.1875 0.8125 0.1875 1.71875zm-2.375 0.171875q0 -0.53125 -0.078125 -1.0q-0.078125 -0.484375 -0.28125 -0.859375q-0.1875 -0.375 -0.5 -0.59375q-0.296875 -0.234375 -0.75 -0.234375q-0.234375 0 -0.453125 0.0625q-0.21875 0.0625 -0.453125 0.21875q-0.234375 0.15625 -0.484375 0.40625q-0.234375 0.25 -0.515625 0.609375l0 2.703125q0.484375 0.609375 0.921875 0.9375q0.453125 0.328125 0.9375 0.328125q0.4375 0 0.75 -0.234375q0.3125 -0.234375 0.515625 -0.59375q0.203125 -0.359375 0.296875 -0.828125q0.09375 -0.46875 0.09375 -0.921875zm11.714478 -0.296875q0 0.421875 -0.1875 0.625q-0.1875 0.1875 -0.515625 0.1875l-4.953125 0q0 0.53125 0.125 0.953125q0.125 0.421875 0.390625 0.71875q0.28125 0.296875 0.703125 0.453125q0.421875 0.15625 1.015625 0.15625q0.59375 0 1.046875 -0.078125q0.453125 -0.09375 0.78125 -0.203125q0.34375 -0.109375 0.5625 -0.1875q0.21875 -0.09375 0.359375 -0.09375q0.078125 0 0.125 0.03125q0.0625 0.03125 0.09375 0.125q0.046875 0.078125 0.046875 0.234375q0.015625 0.140625 0.015625 0.359375q0 0.203125 -0.015625 0.34375q0 0.140625 -0.015625 0.25q-0.015625 0.09375 -0.0625 0.171875q-0.03125 0.0625 -0.09375 0.125q-0.046875 0.0625 -0.3125 0.171875q-0.265625 0.109375 -0.6875 0.21875q-0.40625 0.09375 -0.9375 0.171875q-0.515625 0.078125 -1.125 0.078125q-1.078125 0 -1.890625 -0.265625q-0.8125 -0.28125 -1.359375 -0.828125q-0.546875 -0.5625 -0.828125 -1.40625q-0.265625 -0.84375 -0.265625 -1.984375q0 -1.078125 0.28125 -1.953125q0.28125 -0.875 0.8125 -1.46875q0.546875 -0.609375 1.3125 -0.921875q0.78125 -0.328125 1.734375 -0.328125q1.03125 0 1.75 0.296875q0.71875 0.296875 1.1875 0.84375q0.46875 0.53125 0.6875 1.265625q0.21875 0.71875 0.21875 1.578125l0 0.359375zm-2.21875 -0.65625q0.015625 -0.96875 -0.40625 -1.515625q-0.40625 -0.546875 -1.265625 -0.546875q-0.4375 0 -0.765625 0.171875q-0.3125 0.15625 -0.53125 0.4375q-0.21875 0.265625 -0.328125 0.65625q-0.109375 0.375 -0.140625 0.796875l3.4375 0zm6.391876 4.953125q0 0.09375 -0.0625 0.171875q-0.046875 0.0625 -0.1875 0.109375q-0.125 0.046875 -0.34375 0.0625q-0.21875 0.015625 -0.546875 0.015625q-0.34375 0 -0.5625 -0.015625q-0.21875 -0.015625 -0.359375 -0.0625q-0.125 -0.046875 -0.1875 -0.109375q-0.046875 -0.078125 -0.046875 -0.171875l0 -11.96875q0 -0.09375 0.046875 -0.171875q0.0625 -0.078125 0.1875 -0.125q0.140625 -0.046875 0.359375 -0.078125q0.21875 -0.03125 0.5625 -0.03125q0.328125 0 0.546875 0.03125q0.21875 0.03125 0.34375 0.078125q0.140625 0.046875 0.1875 0.125q0.0625 0.078125 0.0625 0.171875l0 11.96875zm8.019592 -2.296875q0 0.703125 -0.265625 1.234375q-0.265625 0.515625 -0.734375 0.875q-0.46875 0.359375 -1.125 0.53125q-0.640625 0.171875 -1.390625 0.171875q-0.46875 0 -0.890625 -0.0625q-0.40625 -0.0625 -0.734375 -0.171875q-0.328125 -0.109375 -0.546875 -0.21875q-0.21875 -0.109375 -0.3125 -0.203125q-0.09375 -0.09375 -0.15625 -0.296875q-0.046875 -0.203125 -0.046875 -0.609375q0 -0.265625 0.015625 -0.421875q0.015625 -0.15625 0.046875 -0.25q0.046875 -0.09375 0.09375 -0.125q0.0625 -0.046875 0.140625 -0.046875q0.09375 0 0.28125 0.125q0.203125 0.109375 0.5 0.25q0.296875 0.140625 0.671875 0.265625q0.390625 0.109375 0.890625 0.109375q0.296875 0 0.53125 -0.0625q0.25 -0.0625 0.421875 -0.1875q0.1875 -0.125 0.28125 -0.296875q0.09375 -0.1875 0.09375 -0.421875q0 -0.28125 -0.171875 -0.46875q-0.171875 -0.203125 -0.453125 -0.34375q-0.265625 -0.140625 -0.625 -0.265625q-0.34375 -0.140625 -0.71875 -0.28125q-0.359375 -0.15625 -0.71875 -0.359375q-0.34375 -0.203125 -0.625 -0.484375q-0.28125 -0.296875 -0.453125 -0.703125q-0.171875 -0.421875 -0.171875 -1.0q0 -0.578125 0.234375 -1.0625q0.234375 -0.484375 0.65625 -0.828125q0.421875 -0.359375 1.03125 -0.546875q0.625 -0.1875 1.390625 -0.1875q0.390625 0 0.75 0.0625q0.359375 0.046875 0.640625 0.125q0.296875 0.078125 0.5 0.1875q0.203125 0.09375 0.28125 0.15625q0.09375 0.0625 0.125 0.140625q0.03125 0.0625 0.046875 0.15625q0.03125 0.09375 0.03125 0.234375q0.015625 0.140625 0.015625 0.359375q0 0.25 -0.015625 0.40625q0 0.140625 -0.03125 0.234375q-0.03125 0.09375 -0.09375 0.125q-0.046875 0.03125 -0.125 0.03125q-0.078125 0 -0.25 -0.09375q-0.171875 -0.09375 -0.4375 -0.203125q-0.265625 -0.109375 -0.609375 -0.203125q-0.328125 -0.09375 -0.765625 -0.09375q-0.3125 0 -0.546875 0.0625q-0.21875 0.0625 -0.375 0.1875q-0.140625 0.109375 -0.21875 0.265625q-0.0625 0.15625 -0.0625 0.34375q0 0.28125 0.171875 0.484375q0.171875 0.1875 0.453125 0.328125q0.28125 0.140625 0.640625 0.28125q0.359375 0.125 0.71875 0.28125q0.375 0.140625 0.734375 0.34375q0.359375 0.1875 0.640625 0.484375q0.28125 0.296875 0.453125 0.703125q0.1875 0.40625 0.1875 0.953125z" fill-rule="nonzero"/><path fill="#cfe2f3" d="m241.9685 146.5226l0 0c0 -8.056854 6.531372 -14.588211 14.588226 -14.588211l120.33536 0c3.869049 0 7.5796204 1.536972 10.31543 4.2727814c2.7358398 2.7358246 4.2727966 6.446396 4.2727966 10.31543l0 58.35112c0 8.056854 -6.531372 14.588226 -14.588226 14.588226l-120.33536 0c-8.056854 0 -14.588226 -6.531372 -14.588226 -14.588226z" fill-rule="evenodd"/><path stroke="#000000" stroke-width="1.0" stroke-linejoin="round" stroke-linecap="butt" d="m241.9685 146.5226l0 0c0 -8.056854 6.531372 -14.588211 14.588226 -14.588211l120.33536 0c3.869049 0 7.5796204 1.536972 10.31543 4.2727814c2.7358398 2.7358246 4.2727966 6.446396 4.2727966 10.31543l0 58.35112c0 8.056854 -6.531372 14.588226 -14.588226 14.588226l-120.33536 0c-8.056854 0 -14.588226 -6.531372 -14.588226 -14.588226z" fill-rule="evenodd"/><path fill="#000000" d="m290.77844 160.38379q0 0.078125 -0.046875 0.140625q-0.03125 0.046875 -0.125 0.078125q-0.09375 0.03125 -0.25 0.046875q-0.140625 0.015625 -0.375 0.015625q-0.21875 0 -0.375 -0.015625q-0.140625 -0.015625 -0.234375 -0.046875q-0.09375 -0.03125 -0.140625 -0.078125q-0.03125 -0.0625 -0.03125 -0.140625l0 -11.3125q0 -0.078125 0.046875 -0.125q0.046875 -0.0625 0.140625 -0.09375q0.09375 -0.03125 0.234375 -0.046875q0.15625 -0.03125 0.359375 -0.03125q0.234375 0 0.375 0.03125q0.15625 0.015625 0.25 0.046875q0.09375 0.03125 0.125 0.09375q0.046875 0.046875 0.046875 0.125l0 11.3125zm9.9817505 0q0 0.078125 -0.03125 0.140625q-0.03125 0.046875 -0.109375 0.078125q-0.078125 0.03125 -0.21875 0.046875q-0.125 0.015625 -0.296875 0.015625q-0.203125 0 -0.328125 -0.015625q-0.125 -0.015625 -0.203125 -0.046875q-0.078125 -0.03125 -0.125 -0.078125q-0.03125 -0.0625 -0.03125 -0.140625l0 -1.078125q-0.640625 0.703125 -1.34375 1.09375q-0.703125 0.390625 -1.53125 0.390625q-0.890625 0 -1.53125 -0.34375q-0.640625 -0.359375 -1.046875 -0.953125q-0.390625 -0.59375 -0.578125 -1.390625q-0.171875 -0.8125 -0.171875 -1.71875q0 -1.046875 0.21875 -1.890625q0.234375 -0.859375 0.671875 -1.453125q0.453125 -0.609375 1.109375 -0.9375q0.671875 -0.328125 1.53125 -0.328125q0.71875 0 1.3125 0.328125q0.609375 0.3125 1.1875 0.921875l0 -4.765625q0 -0.0625 0.03125 -0.125q0.03125 -0.0625 0.125 -0.09375q0.09375 -0.03125 0.234375 -0.046875q0.140625 -0.03125 0.359375 -0.03125q0.21875 0 0.359375 0.03125q0.15625 0.015625 0.234375 0.046875q0.078125 0.03125 0.125 0.09375q0.046875 0.0625 0.046875 0.125l0 12.125zm-1.515625 -5.765625q-0.609375 -0.75 -1.1875 -1.140625q-0.5625 -0.40625 -1.1875 -0.40625q-0.5625 0 -0.96875 0.28125q-0.40625 0.265625 -0.65625 0.71875q-0.25 0.4375 -0.359375 1.015625q-0.109375 0.5625 -0.109375 1.140625q0 0.625 0.09375 1.21875q0.09375 0.578125 0.328125 1.046875q0.234375 0.453125 0.625 0.734375q0.390625 0.28125 0.984375 0.28125q0.296875 0 0.578125 -0.078125q0.28125 -0.09375 0.5625 -0.28125q0.296875 -0.1875 0.609375 -0.484375q0.328125 -0.3125 0.6875 -0.765625l0 -3.28125zm11.286194 1.3125q0 0.359375 -0.1875 0.515625q-0.171875 0.140625 -0.390625 0.140625l-5.375 0q0 0.6875 0.125 1.234375q0.140625 0.546875 0.453125 0.9375q0.328125 0.390625 0.828125 0.609375q0.515625 0.203125 1.25 0.203125q0.59375 0 1.046875 -0.09375q0.453125 -0.09375 0.78125 -0.203125q0.34375 -0.125 0.546875 -0.21875q0.21875 -0.109375 0.328125 -0.109375q0.0625 0 0.109375 0.03125q0.0625 0.03125 0.078125 0.109375q0.03125 0.0625 0.046875 0.171875q0.015625 0.109375 0.015625 0.28125q0 0.109375 -0.015625 0.203125q0 0.078125 -0.015625 0.15625q-0.015625 0.0625 -0.046875 0.125q-0.03125 0.046875 -0.09375 0.09375q-0.046875 0.046875 -0.296875 0.171875q-0.234375 0.109375 -0.625 0.21875q-0.390625 0.109375 -0.90625 0.1875q-0.515625 0.09375 -1.09375 0.09375q-1.015625 0 -1.78125 -0.28125q-0.765625 -0.28125 -1.28125 -0.828125q-0.515625 -0.5625 -0.78125 -1.390625q-0.265625 -0.84375 -0.265625 -1.96875q0 -1.046875 0.265625 -1.890625q0.28125 -0.84375 0.796875 -1.421875q0.515625 -0.59375 1.234375 -0.90625q0.734375 -0.328125 1.640625 -0.328125q0.96875 0 1.640625 0.3125q0.6875 0.3125 1.125 0.84375q0.4375 0.515625 0.640625 1.234375q0.203125 0.703125 0.203125 1.5l0 0.265625zm-1.515625 -0.4375q0.03125 -1.1875 -0.53125 -1.859375q-0.546875 -0.671875 -1.625 -0.671875q-0.5625 0 -0.984375 0.21875q-0.40625 0.203125 -0.6875 0.546875q-0.28125 0.34375 -0.4375 0.8125q-0.15625 0.453125 -0.171875 0.953125l4.4375 0zm10.860687 4.890625q0 0.078125 -0.046875 0.140625q-0.03125 0.046875 -0.109375 0.078125q-0.078125 0.03125 -0.234375 0.046875q-0.140625 0.015625 -0.359375 0.015625q-0.21875 0 -0.375 -0.015625q-0.140625 -0.015625 -0.234375 -0.046875q-0.078125 -0.03125 -0.109375 -0.078125q-0.03125 -0.0625 -0.03125 -0.140625l0 -4.796875q0 -0.703125 -0.109375 -1.125q-0.109375 -0.4375 -0.328125 -0.734375q-0.203125 -0.3125 -0.546875 -0.46875q-0.328125 -0.171875 -0.765625 -0.171875q-0.5625 0 -1.125 0.40625q-0.5625 0.390625 -1.1875 1.171875l0 5.71875q0 0.078125 -0.03125 0.140625q-0.03125 0.046875 -0.125 0.078125q-0.078125 0.03125 -0.21875 0.046875q-0.140625 0.015625 -0.375 0.015625q-0.21875 0 -0.375 -0.015625q-0.140625 -0.015625 -0.234375 -0.046875q-0.078125 -0.03125 -0.109375 -0.078125q-0.03125 -0.0625 -0.03125 -0.140625l0 -8.1875q0 -0.078125 0.03125 -0.125q0.03125 -0.046875 0.109375 -0.09375q0.078125 -0.046875 0.203125 -0.046875q0.140625 -0.015625 0.34375 -0.015625q0.203125 0 0.328125 0.015625q0.140625 0 0.203125 0.046875q0.078125 0.046875 0.109375 0.09375q0.03125 0.046875 0.03125 0.125l0 1.078125q0.6875 -0.765625 1.375 -1.125q0.6875 -0.375 1.390625 -0.375q0.828125 0 1.375 0.28125q0.5625 0.28125 0.90625 0.75q0.359375 0.46875 0.5 1.09375q0.15625 0.609375 0.15625 1.484375l0 5.0zm6.831787 -0.59375q0 0.265625 -0.046875 0.421875q-0.03125 0.15625 -0.109375 0.234375q-0.0625 0.0625 -0.21875 0.125q-0.140625 0.0625 -0.328125 0.09375q-0.1875 0.046875 -0.390625 0.078125q-0.203125 0.03125 -0.421875 0.03125q-0.640625 0 -1.09375 -0.171875q-0.453125 -0.171875 -0.75 -0.5q-0.28125 -0.34375 -0.421875 -0.859375q-0.125 -0.53125 -0.125 -1.25l0 -4.796875l-1.15625 0q-0.125 0 -0.21875 -0.140625q-0.078125 -0.140625 -0.078125 -0.46875q0 -0.171875 0.015625 -0.28125q0.03125 -0.125 0.0625 -0.203125q0.046875 -0.078125 0.09375 -0.109375q0.0625 -0.03125 0.140625 -0.03125l1.140625 0l0 -1.953125q0 -0.0625 0.03125 -0.109375q0.03125 -0.0625 0.109375 -0.109375q0.09375 -0.046875 0.234375 -0.0625q0.15625 -0.015625 0.375 -0.015625q0.21875 0 0.359375 0.015625q0.15625 0.015625 0.234375 0.0625q0.078125 0.046875 0.109375 0.109375q0.046875 0.046875 0.046875 0.109375l0 1.953125l2.109375 0q0.0625 0 0.109375 0.03125q0.0625 0.03125 0.109375 0.109375q0.046875 0.078125 0.0625 0.203125q0.015625 0.109375 0.015625 0.28125q0 0.328125 -0.078125 0.46875q-0.078125 0.140625 -0.21875 0.140625l-2.109375 0l0 4.578125q0 0.84375 0.25 1.28125q0.25 0.4375 0.90625 0.4375q0.203125 0 0.359375 -0.046875q0.171875 -0.046875 0.296875 -0.078125q0.125 -0.046875 0.21875 -0.09375q0.09375 -0.046875 0.171875 -0.046875q0.046875 0 0.078125 0.03125q0.046875 0.015625 0.0625 0.078125q0.03125 0.0625 0.046875 0.171875q0.015625 0.109375 0.015625 0.28125zm3.48349 0.59375q0 0.078125 -0.03125 0.140625q-0.03125 0.046875 -0.125 0.078125q-0.078125 0.03125 -0.21875 0.046875q-0.140625 0.015625 -0.375 0.015625q-0.21875 0 -0.375 -0.015625q-0.140625 -0.015625 -0.234375 -0.046875q-0.078125 -0.03125 -0.109375 -0.078125q-0.03125 -0.0625 -0.03125 -0.140625l0 -8.1875q0 -0.0625 0.03125 -0.109375q0.03125 -0.0625 0.109375 -0.09375q0.09375 -0.046875 0.234375 -0.0625q0.15625 -0.015625 0.375 -0.015625q0.234375 0 0.375 0.015625q0.140625 0.015625 0.21875 0.0625q0.09375 0.03125 0.125 0.09375q0.03125 0.046875 0.03125 0.109375l0 8.1875zm0.171875 -10.96875q0 0.53125 -0.203125 0.734375q-0.1875 0.1875 -0.734375 0.1875q-0.515625 0 -0.71875 -0.1875q-0.1875 -0.1875 -0.1875 -0.703125q0 -0.53125 0.1875 -0.71875q0.203125 -0.203125 0.75 -0.203125q0.515625 0 0.703125 0.1875q0.203125 0.1875 0.203125 0.703125zm7.1095886 -0.59375q0 0.171875 -0.03125 0.28125q-0.015625 0.09375 -0.046875 0.171875q-0.015625 0.0625 -0.046875 0.09375q-0.03125 0.015625 -0.09375 0.015625q-0.0625 0 -0.15625 -0.046875q-0.09375 -0.046875 -0.234375 -0.09375q-0.140625 -0.046875 -0.328125 -0.078125q-0.1875 -0.046875 -0.421875 -0.046875q-0.34375 0 -0.578125 0.109375q-0.234375 0.109375 -0.390625 0.34375q-0.140625 0.21875 -0.203125 0.59375q-0.0625 0.375 -0.0625 0.890625l0 0.90625l1.828125 0q0.078125 0 0.125 0.03125q0.046875 0.03125 0.09375 0.109375q0.046875 0.078125 0.0625 0.203125q0.015625 0.109375 0.015625 0.28125q0 0.328125 -0.078125 0.46875q-0.078125 0.140625 -0.21875 0.140625l-1.828125 0l0 7.1875q0 0.078125 -0.046875 0.140625q-0.03125 0.046875 -0.125 0.078125q-0.078125 0.03125 -0.21875 0.046875q-0.140625 0.015625 -0.359375 0.015625q-0.21875 0 -0.375 -0.015625q-0.140625 -0.015625 -0.234375 -0.046875q-0.078125 -0.03125 -0.125 -0.078125q-0.03125 -0.0625 -0.03125 -0.140625l0 -7.1875l-1.15625 0q-0.140625 0 -0.21875 -0.140625q-0.0625 -0.140625 -0.0625 -0.46875q0 -0.171875 0.015625 -0.28125q0.015625 -0.125 0.046875 -0.203125q0.046875 -0.078125 0.09375 -0.109375q0.0625 -0.03125 0.125 -0.03125l1.15625 0l0 -0.859375q0 -0.84375 0.15625 -1.453125q0.171875 -0.625 0.5 -1.015625q0.328125 -0.390625 0.8125 -0.578125q0.5 -0.1875 1.171875 -0.1875q0.328125 0 0.625 0.0625q0.296875 0.046875 0.453125 0.125q0.171875 0.0625 0.21875 0.125q0.0625 0.046875 0.09375 0.140625q0.046875 0.078125 0.0625 0.203125q0.015625 0.125 0.015625 0.296875zm5.0189514 11.796875l-1.09375 3.015625q-0.046875 0.140625 -0.28125 0.21875q-0.21875 0.078125 -0.671875 0.078125q-0.234375 0 -0.390625 -0.03125q-0.140625 -0.015625 -0.21875 -0.078125q-0.078125 -0.046875 -0.09375 -0.140625q0 -0.078125 0.0625 -0.21875l1.125 -2.84375q-0.078125 -0.03125 -0.15625 -0.109375q-0.078125 -0.09375 -0.09375 -0.1875l-2.9375 -7.828125q-0.0625 -0.1875 -0.0625 -0.296875q0 -0.109375 0.0625 -0.171875q0.078125 -0.0625 0.234375 -0.078125q0.171875 -0.03125 0.453125 -0.03125q0.265625 0 0.421875 0.015625q0.15625 0 0.25 0.046875q0.09375 0.03125 0.125 0.109375q0.046875 0.0625 0.09375 0.171875l2.34375 6.578125l0.015625 0l2.265625 -6.609375q0.046875 -0.171875 0.125 -0.21875q0.078125 -0.046875 0.234375 -0.0625q0.15625 -0.03125 0.453125 -0.03125q0.25 0 0.40625 0.03125q0.171875 0.015625 0.25 0.078125q0.078125 0.0625 0.078125 0.171875q0 0.109375 -0.046875 0.265625l-2.953125 8.15625z" fill-rule="nonzero"/><path fill="#000000" d="m274.34586 176.55566q0 1.53125 -0.390625 2.671875q-0.390625 1.140625 -1.140625 1.890625q-0.75 0.75 -1.84375 1.125q-1.09375 0.375 -2.609375 0.375l-2.484375 0q-0.21875 0 -0.40625 -0.140625q-0.1875 -0.140625 -0.1875 -0.5l0 -10.515625q0 -0.34375 0.1875 -0.484375q0.1875 -0.140625 0.40625 -0.140625l2.65625 0q1.53125 0 2.59375 0.390625q1.0625 0.390625 1.765625 1.140625q0.71875 0.734375 1.078125 1.796875q0.375 1.0625 0.375 2.390625zm-1.640625 0.0625q0 -0.953125 -0.234375 -1.78125q-0.234375 -0.828125 -0.75 -1.421875q-0.5 -0.609375 -1.28125 -0.9375q-0.765625 -0.34375 -1.984375 -0.34375l-1.59375 0l0 9.171875l1.609375 0q1.125 0 1.890625 -0.28125q0.78125 -0.28125 1.296875 -0.859375q0.53125 -0.59375 0.78125 -1.46875q0.265625 -0.875 0.265625 -2.078125zm5.3842163 5.765625q0 0.078125 -0.03125 0.140625q-0.03125 0.046875 -0.125 0.078125q-0.078125 0.03125 -0.21875 0.046875q-0.140625 0.015625 -0.375 0.015625q-0.21875 0 -0.375 -0.015625q-0.140625 -0.015625 -0.234375 -0.046875q-0.078125 -0.03125 -0.109375 -0.078125q-0.03125 -0.0625 -0.03125 -0.140625l0 -8.1875q0 -0.0625 0.03125 -0.109375q0.03125 -0.0625 0.109375 -0.09375q0.09375 -0.046875 0.234375 -0.0625q0.15625 -0.015625 0.375 -0.015625q0.234375 0 0.375 0.015625q0.140625 0.015625 0.21875 0.0625q0.09375 0.03125 0.125 0.09375q0.03125 0.046875 0.03125 0.109375l0 8.1875zm0.171875 -10.96875q0 0.53125 -0.203125 0.734375q-0.1875 0.1875 -0.734375 0.1875q-0.515625 0 -0.71875 -0.1875q-0.1875 -0.1875 -0.1875 -0.703125q0 -0.53125 0.1875 -0.71875q0.203125 -0.203125 0.75 -0.203125q0.515625 0 0.703125 0.1875q0.203125 0.1875 0.203125 0.703125zm7.7658386 8.75q0 0.625 -0.234375 1.125q-0.234375 0.484375 -0.671875 0.828125q-0.421875 0.328125 -1.015625 0.5q-0.59375 0.171875 -1.296875 0.171875q-0.4375 0 -0.84375 -0.078125q-0.390625 -0.0625 -0.703125 -0.15625q-0.3125 -0.109375 -0.53125 -0.21875q-0.21875 -0.125 -0.328125 -0.203125q-0.09375 -0.09375 -0.140625 -0.25q-0.046875 -0.171875 -0.046875 -0.453125q0 -0.171875 0.015625 -0.296875q0.03125 -0.125 0.046875 -0.1875q0.03125 -0.078125 0.078125 -0.109375q0.046875 -0.03125 0.125 -0.03125q0.09375 0 0.28125 0.125q0.203125 0.125 0.484375 0.265625q0.296875 0.140625 0.6875 0.265625q0.390625 0.125 0.90625 0.125q0.375 0 0.6875 -0.078125q0.3125 -0.078125 0.53125 -0.234375q0.234375 -0.171875 0.359375 -0.40625q0.125 -0.25 0.125 -0.59375q0 -0.34375 -0.1875 -0.578125q-0.171875 -0.234375 -0.46875 -0.421875q-0.28125 -0.1875 -0.65625 -0.328125q-0.359375 -0.140625 -0.75 -0.296875q-0.390625 -0.15625 -0.765625 -0.34375q-0.359375 -0.203125 -0.65625 -0.484375q-0.28125 -0.28125 -0.46875 -0.671875q-0.171875 -0.390625 -0.171875 -0.9375q0 -0.484375 0.1875 -0.921875q0.1875 -0.4375 0.5625 -0.765625q0.375 -0.34375 0.921875 -0.546875q0.5625 -0.203125 1.3125 -0.203125q0.328125 0 0.65625 0.0625q0.328125 0.046875 0.59375 0.140625q0.265625 0.078125 0.453125 0.171875q0.1875 0.09375 0.28125 0.171875q0.09375 0.078125 0.125 0.140625q0.03125 0.046875 0.046875 0.109375q0.015625 0.0625 0.03125 0.171875q0.015625 0.09375 0.015625 0.234375q0 0.15625 -0.015625 0.28125q-0.015625 0.109375 -0.046875 0.1875q-0.03125 0.0625 -0.078125 0.09375q-0.046875 0.03125 -0.09375 0.03125q-0.09375 0 -0.25 -0.09375q-0.140625 -0.09375 -0.390625 -0.203125q-0.25 -0.125 -0.578125 -0.21875q-0.328125 -0.109375 -0.765625 -0.109375q-0.375 0 -0.671875 0.09375q-0.296875 0.078125 -0.484375 0.25q-0.1875 0.15625 -0.28125 0.375q-0.09375 0.21875 -0.09375 0.46875q0 0.359375 0.171875 0.609375q0.1875 0.234375 0.484375 0.421875q0.296875 0.171875 0.671875 0.328125q0.375 0.140625 0.75 0.296875q0.390625 0.140625 0.765625 0.34375q0.390625 0.1875 0.671875 0.46875q0.296875 0.265625 0.46875 0.65625q0.1875 0.375 0.1875 0.90625zm6.1964417 1.625q0 0.265625 -0.046875 0.421875q-0.03125 0.15625 -0.109375 0.234375q-0.0625 0.0625 -0.21875 0.125q-0.140625 0.0625 -0.328125 0.09375q-0.1875 0.046875 -0.390625 0.078125q-0.203125 0.03125 -0.421875 0.03125q-0.640625 0 -1.09375 -0.171875q-0.453125 -0.171875 -0.75 -0.5q-0.28125 -0.34375 -0.421875 -0.859375q-0.125 -0.53125 -0.125 -1.25l0 -4.796875l-1.15625 0q-0.125 0 -0.21875 -0.140625q-0.078125 -0.140625 -0.078125 -0.46875q0 -0.171875 0.015625 -0.28125q0.03125 -0.125 0.0625 -0.203125q0.046875 -0.078125 0.09375 -0.109375q0.0625 -0.03125 0.140625 -0.03125l1.140625 0l0 -1.953125q0 -0.0625 0.03125 -0.109375q0.03125 -0.0625 0.109375 -0.109375q0.09375 -0.046875 0.234375 -0.0625q0.15625 -0.015625 0.375 -0.015625q0.21875 0 0.359375 0.015625q0.15625 0.015625 0.234375 0.0625q0.078125 0.046875 0.109375 0.109375q0.046875 0.046875 0.046875 0.109375l0 1.953125l2.109375 0q0.0625 0 0.109375 0.03125q0.0625 0.03125 0.109375 0.109375q0.046875 0.078125 0.0625 0.203125q0.015625 0.109375 0.015625 0.28125q0 0.328125 -0.078125 0.46875q-0.078125 0.140625 -0.21875 0.140625l-2.109375 0l0 4.578125q0 0.84375 0.25 1.28125q0.25 0.4375 0.90625 0.4375q0.203125 0 0.359375 -0.046875q0.171875 -0.046875 0.296875 -0.078125q0.125 -0.046875 0.21875 -0.09375q0.09375 -0.046875 0.171875 -0.046875q0.046875 0 0.078125 0.03125q0.046875 0.015625 0.0625 0.078125q0.03125 0.0625 0.046875 0.171875q0.015625 0.109375 0.015625 0.28125zm3.48349 0.59375q0 0.078125 -0.03125 0.140625q-0.03125 0.046875 -0.125 0.078125q-0.078125 0.03125 -0.21875 0.046875q-0.140625 0.015625 -0.375 0.015625q-0.21875 0 -0.375 -0.015625q-0.140625 -0.015625 -0.234375 -0.046875q-0.078125 -0.03125 -0.109375 -0.078125q-0.03125 -0.0625 -0.03125 -0.140625l0 -8.1875q0 -0.0625 0.03125 -0.109375q0.03125 -0.0625 0.109375 -0.09375q0.09375 -0.046875 0.234375 -0.0625q0.15625 -0.015625 0.375 -0.015625q0.234375 0 0.375 0.015625q0.140625 0.015625 0.21875 0.0625q0.09375 0.03125 0.125 0.09375q0.03125 0.046875 0.03125 0.109375l0 8.1875zm0.171875 -10.96875q0 0.53125 -0.203125 0.734375q-0.1875 0.1875 -0.734375 0.1875q-0.515625 0 -0.71875 -0.1875q-0.1875 -0.1875 -0.1875 -0.703125q0 -0.53125 0.1875 -0.71875q0.203125 -0.203125 0.75 -0.203125q0.515625 0 0.703125 0.1875q0.203125 0.1875 0.203125 0.703125zm9.672089 10.96875q0 0.078125 -0.046875 0.140625q-0.03125 0.046875 -0.109375 0.078125q-0.078125 0.03125 -0.234375 0.046875q-0.140625 0.015625 -0.359375 0.015625q-0.21875 0 -0.375 -0.015625q-0.140625 -0.015625 -0.234375 -0.046875q-0.078125 -0.03125 -0.109375 -0.078125q-0.03125 -0.0625 -0.03125 -0.140625l0 -4.796875q0 -0.703125 -0.109375 -1.125q-0.109375 -0.4375 -0.328125 -0.734375q-0.203125 -0.3125 -0.546875 -0.46875q-0.328125 -0.171875 -0.765625 -0.171875q-0.5625 0 -1.125 0.40625q-0.5625 0.390625 -1.1875 1.171875l0 5.71875q0 0.078125 -0.03125 0.140625q-0.03125 0.046875 -0.125 0.078125q-0.078125 0.03125 -0.21875 0.046875q-0.140625 0.015625 -0.375 0.015625q-0.21875 0 -0.375 -0.015625q-0.140625 -0.015625 -0.234375 -0.046875q-0.078125 -0.03125 -0.109375 -0.078125q-0.03125 -0.0625 -0.03125 -0.140625l0 -8.1875q0 -0.078125 0.03125 -0.125q0.03125 -0.046875 0.109375 -0.09375q0.078125 -0.046875 0.203125 -0.046875q0.140625 -0.015625 0.34375 -0.015625q0.203125 0 0.328125 0.015625q0.140625 0 0.203125 0.046875q0.078125 0.046875 0.109375 0.09375q0.03125 0.046875 0.03125 0.125l0 1.078125q0.6875 -0.765625 1.375 -1.125q0.6875 -0.375 1.390625 -0.375q0.828125 0 1.375 0.28125q0.5625 0.28125 0.90625 0.75q0.359375 0.46875 0.5 1.09375q0.15625 0.609375 0.15625 1.484375l0 5.0zm9.598694 -7.8125q0 0.3125 -0.09375 0.453125q-0.078125 0.140625 -0.21875 0.140625l-1.171875 0q0.3125 0.328125 0.4375 0.734375q0.125 0.390625 0.125 0.8125q0 0.71875 -0.234375 1.265625q-0.21875 0.546875 -0.640625 0.921875q-0.421875 0.375 -1.015625 0.578125q-0.578125 0.203125 -1.28125 0.203125q-0.5 0 -0.953125 -0.125q-0.453125 -0.140625 -0.703125 -0.34375q-0.15625 0.15625 -0.265625 0.375q-0.109375 0.203125 -0.109375 0.484375q0 0.3125 0.296875 0.53125q0.296875 0.203125 0.796875 0.21875l2.140625 0.09375q0.609375 0.015625 1.109375 0.171875q0.515625 0.140625 0.890625 0.421875q0.375 0.28125 0.578125 0.6875q0.21875 0.40625 0.21875 0.9375q0 0.5625 -0.25 1.078125q-0.234375 0.515625 -0.71875 0.890625q-0.484375 0.390625 -1.25 0.609375q-0.75 0.234375 -1.78125 0.234375q-0.984375 0 -1.6875 -0.171875q-0.6875 -0.171875 -1.140625 -0.46875q-0.4375 -0.28125 -0.640625 -0.6875q-0.203125 -0.40625 -0.203125 -0.875q0 -0.3125 0.0625 -0.59375q0.078125 -0.28125 0.21875 -0.53125q0.15625 -0.25 0.375 -0.484375q0.234375 -0.234375 0.53125 -0.46875q-0.453125 -0.21875 -0.671875 -0.5625q-0.203125 -0.359375 -0.203125 -0.75q0 -0.5625 0.21875 -1.0q0.234375 -0.4375 0.5625 -0.78125q-0.28125 -0.328125 -0.453125 -0.75q-0.15625 -0.4375 -0.15625 -1.03125q0 -0.703125 0.234375 -1.25q0.25 -0.5625 0.65625 -0.9375q0.421875 -0.390625 1.015625 -0.59375q0.59375 -0.203125 1.28125 -0.203125q0.375 0 0.6875 0.046875q0.328125 0.03125 0.609375 0.109375l2.484375 0q0.15625 0 0.234375 0.15625q0.078125 0.140625 0.078125 0.453125zm-2.359375 2.15625q0 -0.84375 -0.46875 -1.3125q-0.453125 -0.46875 -1.296875 -0.46875q-0.4375 0 -0.765625 0.15625q-0.3125 0.140625 -0.53125 0.390625q-0.21875 0.25 -0.328125 0.59375q-0.09375 0.328125 -0.09375 0.6875q0 0.8125 0.453125 1.28125q0.46875 0.46875 1.296875 0.46875q0.4375 0 0.765625 -0.140625q0.328125 -0.140625 0.546875 -0.390625q0.21875 -0.25 0.3125 -0.578125q0.109375 -0.328125 0.109375 -0.6875zm0.765625 6.484375q0 -0.515625 -0.4375 -0.796875q-0.4375 -0.296875 -1.171875 -0.3125l-2.125 -0.078125q-0.296875 0.234375 -0.484375 0.4375q-0.171875 0.203125 -0.28125 0.390625q-0.109375 0.1875 -0.15625 0.359375q-0.046875 0.1875 -0.046875 0.375q0 0.59375 0.59375 0.890625q0.609375 0.3125 1.6875 0.3125q0.6875 0 1.140625 -0.140625q0.46875 -0.125 0.75 -0.34375q0.28125 -0.21875 0.40625 -0.5q0.125 -0.28125 0.125 -0.59375zm10.54718 -0.828125q0 0.078125 -0.03125 0.140625q-0.03125 0.046875 -0.125 0.078125q-0.078125 0.03125 -0.21875 0.046875q-0.125 0.015625 -0.3125 0.015625q-0.203125 0 -0.34375 -0.015625q-0.125 -0.015625 -0.203125 -0.046875q-0.078125 -0.03125 -0.109375 -0.078125q-0.03125 -0.0625 -0.03125 -0.140625l0 -1.078125q-0.703125 0.78125 -1.390625 1.140625q-0.671875 0.34375 -1.375 0.34375q-0.8125 0 -1.375 -0.265625q-0.5625 -0.28125 -0.90625 -0.75q-0.34375 -0.46875 -0.5 -1.09375q-0.15625 -0.625 -0.15625 -1.515625l0 -4.96875q0 -0.078125 0.03125 -0.125q0.03125 -0.046875 0.125 -0.09375q0.09375 -0.046875 0.234375 -0.046875q0.15625 -0.015625 0.375 -0.015625q0.21875 0 0.359375 0.015625q0.140625 0 0.21875 0.046875q0.09375 0.046875 0.125 0.09375q0.046875 0.046875 0.046875 0.125l0 4.765625q0 0.71875 0.09375 1.15625q0.109375 0.4375 0.328125 0.75q0.21875 0.296875 0.546875 0.46875q0.328125 0.15625 0.765625 0.15625q0.5625 0 1.125 -0.390625q0.5625 -0.40625 1.1875 -1.1875l0 -5.71875q0 -0.078125 0.03125 -0.125q0.03125 -0.046875 0.125 -0.09375q0.09375 -0.046875 0.234375 -0.046875q0.140625 -0.015625 0.359375 -0.015625q0.21875 0 0.359375 0.015625q0.15625 0 0.234375 0.046875q0.078125 0.046875 0.125 0.09375q0.046875 0.046875 0.046875 0.125l0 8.1875zm4.270569 0q0 0.078125 -0.03125 0.140625q-0.03125 0.046875 -0.125 0.078125q-0.078125 0.03125 -0.21875 0.046875q-0.140625 0.015625 -0.375 0.015625q-0.21875 0 -0.375 -0.015625q-0.140625 -0.015625 -0.234375 -0.046875q-0.078125 -0.03125 -0.109375 -0.078125q-0.03125 -0.0625 -0.03125 -0.140625l0 -8.1875q0 -0.0625 0.03125 -0.109375q0.03125 -0.0625 0.109375 -0.09375q0.09375 -0.046875 0.234375 -0.0625q0.15625 -0.015625 0.375 -0.015625q0.234375 0 0.375 0.015625q0.140625 0.015625 0.21875 0.0625q0.09375 0.03125 0.125 0.09375q0.03125 0.046875 0.03125 0.109375l0 8.1875zm0.171875 -10.96875q0 0.53125 -0.203125 0.734375q-0.1875 0.1875 -0.734375 0.1875q-0.515625 0 -0.71875 -0.1875q-0.1875 -0.1875 -0.1875 -0.703125q0 -0.53125 0.1875 -0.71875q0.203125 -0.203125 0.75 -0.203125q0.515625 0 0.703125 0.1875q0.203125 0.1875 0.203125 0.703125zm7.7658386 8.75q0 0.625 -0.234375 1.125q-0.234375 0.484375 -0.671875 0.828125q-0.421875 0.328125 -1.015625 0.5q-0.59375 0.171875 -1.296875 0.171875q-0.4375 0 -0.84375 -0.078125q-0.390625 -0.0625 -0.703125 -0.15625q-0.3125 -0.109375 -0.53125 -0.21875q-0.21875 -0.125 -0.328125 -0.203125q-0.09375 -0.09375 -0.140625 -0.25q-0.046875 -0.171875 -0.046875 -0.453125q0 -0.171875 0.015625 -0.296875q0.03125 -0.125 0.046875 -0.1875q0.03125 -0.078125 0.078125 -0.109375q0.046875 -0.03125 0.125 -0.03125q0.09375 0 0.28125 0.125q0.203125 0.125 0.484375 0.265625q0.296875 0.140625 0.6875 0.265625q0.390625 0.125 0.90625 0.125q0.375 0 0.6875 -0.078125q0.3125 -0.078125 0.53125 -0.234375q0.234375 -0.171875 0.359375 -0.40625q0.125 -0.25 0.125 -0.59375q0 -0.34375 -0.1875 -0.578125q-0.171875 -0.234375 -0.46875 -0.421875q-0.28125 -0.1875 -0.65625 -0.328125q-0.359375 -0.140625 -0.75 -0.296875q-0.390625 -0.15625 -0.765625 -0.34375q-0.359375 -0.203125 -0.65625 -0.484375q-0.28125 -0.28125 -0.46875 -0.671875q-0.171875 -0.390625 -0.171875 -0.9375q0 -0.484375 0.1875 -0.921875q0.1875 -0.4375 0.5625 -0.765625q0.375 -0.34375 0.921875 -0.546875q0.5625 -0.203125 1.3125 -0.203125q0.328125 0 0.65625 0.0625q0.328125 0.046875 0.59375 0.140625q0.265625 0.078125 0.453125 0.171875q0.1875 0.09375 0.28125 0.171875q0.09375 0.078125 0.125 0.140625q0.03125 0.046875 0.046875 0.109375q0.015625 0.0625 0.03125 0.171875q0.015625 0.09375 0.015625 0.234375q0 0.15625 -0.015625 0.28125q-0.015625 0.109375 -0.046875 0.1875q-0.03125 0.0625 -0.078125 0.09375q-0.046875 0.03125 -0.09375 0.03125q-0.09375 0 -0.25 -0.09375q-0.140625 -0.09375 -0.390625 -0.203125q-0.25 -0.125 -0.578125 -0.21875q-0.328125 -0.109375 -0.765625 -0.109375q-0.375 0 -0.671875 0.09375q-0.296875 0.078125 -0.484375 0.25q-0.1875 0.15625 -0.28125 0.375q-0.09375 0.21875 -0.09375 0.46875q0 0.359375 0.171875 0.609375q0.1875 0.234375 0.484375 0.421875q0.296875 0.171875 0.671875 0.328125q0.375 0.140625 0.75 0.296875q0.390625 0.140625 0.765625 0.34375q0.390625 0.1875 0.671875 0.46875q0.296875 0.265625 0.46875 0.65625q0.1875 0.375 0.1875 0.90625zm9.202972 2.21875q0 0.078125 -0.046875 0.140625q-0.03125 0.046875 -0.109375 0.078125q-0.078125 0.03125 -0.234375 0.046875q-0.140625 0.015625 -0.359375 0.015625q-0.21875 0 -0.375 -0.015625q-0.140625 -0.015625 -0.234375 -0.046875q-0.078125 -0.03125 -0.109375 -0.078125q-0.03125 -0.0625 -0.03125 -0.140625l0 -4.796875q0 -0.703125 -0.109375 -1.125q-0.109375 -0.4375 -0.328125 -0.734375q-0.203125 -0.3125 -0.546875 -0.46875q-0.328125 -0.171875 -0.765625 -0.171875q-0.5625 0 -1.125 0.40625q-0.5625 0.390625 -1.1875 1.171875l0 5.71875q0 0.078125 -0.03125 0.140625q-0.03125 0.046875 -0.125 0.078125q-0.078125 0.03125 -0.21875 0.046875q-0.140625 0.015625 -0.375 0.015625q-0.21875 0 -0.375 -0.015625q-0.140625 -0.015625 -0.234375 -0.046875q-0.078125 -0.03125 -0.109375 -0.078125q-0.03125 -0.0625 -0.03125 -0.140625l0 -12.15625q0 -0.078125 0.03125 -0.125q0.03125 -0.0625 0.109375 -0.09375q0.09375 -0.046875 0.234375 -0.0625q0.15625 -0.015625 0.375 -0.015625q0.234375 0 0.375 0.015625q0.140625 0.015625 0.21875 0.0625q0.09375 0.03125 0.125 0.09375q0.03125 0.046875 0.03125 0.125l0 4.90625q0.65625 -0.6875 1.3125 -1.015625q0.65625 -0.34375 1.3125 -0.34375q0.828125 0 1.375 0.28125q0.5625 0.28125 0.90625 0.75q0.359375 0.46875 0.5 1.09375q0.15625 0.609375 0.15625 1.5l0 4.984375zm4.239319 0q0 0.078125 -0.03125 0.140625q-0.03125 0.046875 -0.125 0.078125q-0.078125 0.03125 -0.21875 0.046875q-0.140625 0.015625 -0.375 0.015625q-0.21875 0 -0.375 -0.015625q-0.140625 -0.015625 -0.234375 -0.046875q-0.078125 -0.03125 -0.109375 -0.078125q-0.03125 -0.0625 -0.03125 -0.140625l0 -8.1875q0 -0.0625 0.03125 -0.109375q0.03125 -0.0625 0.109375 -0.09375q0.09375 -0.046875 0.234375 -0.0625q0.15625 -0.015625 0.375 -0.015625q0.234375 0 0.375 0.015625q0.140625 0.015625 0.21875 0.0625q0.09375 0.03125 0.125 0.09375q0.03125 0.046875 0.03125 0.109375l0 8.1875zm0.171875 -10.96875q0 0.53125 -0.203125 0.734375q-0.1875 0.1875 -0.734375 0.1875q-0.515625 0 -0.71875 -0.1875q-0.1875 -0.1875 -0.1875 -0.703125q0 -0.53125 0.1875 -0.71875q0.203125 -0.203125 0.75 -0.203125q0.515625 0 0.703125 0.1875q0.203125 0.1875 0.203125 0.703125zm9.672089 10.96875q0 0.078125 -0.046875 0.140625q-0.03125 0.046875 -0.109375 0.078125q-0.078125 0.03125 -0.234375 0.046875q-0.140625 0.015625 -0.359375 0.015625q-0.21875 0 -0.375 -0.015625q-0.140625 -0.015625 -0.234375 -0.046875q-0.078125 -0.03125 -0.109375 -0.078125q-0.03125 -0.0625 -0.03125 -0.140625l0 -4.796875q0 -0.703125 -0.109375 -1.125q-0.109375 -0.4375 -0.328125 -0.734375q-0.203125 -0.3125 -0.546875 -0.46875q-0.328125 -0.171875 -0.765625 -0.171875q-0.5625 0 -1.125 0.40625q-0.5625 0.390625 -1.1875 1.171875l0 5.71875q0 0.078125 -0.03125 0.140625q-0.03125 0.046875 -0.125 0.078125q-0.078125 0.03125 -0.21875 0.046875q-0.140625 0.015625 -0.375 0.015625q-0.21875 0 -0.375 -0.015625q-0.140625 -0.015625 -0.234375 -0.046875q-0.078125 -0.03125 -0.109375 -0.078125q-0.03125 -0.0625 -0.03125 -0.140625l0 -8.1875q0 -0.078125 0.03125 -0.125q0.03125 -0.046875 0.109375 -0.09375q0.078125 -0.046875 0.203125 -0.046875q0.140625 -0.015625 0.34375 -0.015625q0.203125 0 0.328125 0.015625q0.140625 0 0.203125 0.046875q0.078125 0.046875 0.109375 0.09375q0.03125 0.046875 0.03125 0.125l0 1.078125q0.6875 -0.765625 1.375 -1.125q0.6875 -0.375 1.390625 -0.375q0.828125 0 1.375 0.28125q0.5625 0.28125 0.90625 0.75q0.359375 0.46875 0.5 1.09375q0.15625 0.609375 0.15625 1.484375l0 5.0zm9.598694 -7.8125q0 0.3125 -0.09375 0.453125q-0.078125 0.140625 -0.21875 0.140625l-1.171875 0q0.3125 0.328125 0.4375 0.734375q0.125 0.390625 0.125 0.8125q0 0.71875 -0.234375 1.265625q-0.21875 0.546875 -0.640625 0.921875q-0.421875 0.375 -1.015625 0.578125q-0.578125 0.203125 -1.28125 0.203125q-0.5 0 -0.953125 -0.125q-0.453125 -0.140625 -0.703125 -0.34375q-0.15625 0.15625 -0.265625 0.375q-0.109375 0.203125 -0.109375 0.484375q0 0.3125 0.296875 0.53125q0.296875 0.203125 0.796875 0.21875l2.140625 0.09375q0.609375 0.015625 1.109375 0.171875q0.515625 0.140625 0.890625 0.421875q0.375 0.28125 0.578125 0.6875q0.21875 0.40625 0.21875 0.9375q0 0.5625 -0.25 1.078125q-0.234375 0.515625 -0.71875 0.890625q-0.484375 0.390625 -1.25 0.609375q-0.75 0.234375 -1.78125 0.234375q-0.984375 0 -1.6875 -0.171875q-0.6875 -0.171875 -1.140625 -0.46875q-0.4375 -0.28125 -0.640625 -0.6875q-0.203125 -0.40625 -0.203125 -0.875q0 -0.3125 0.0625 -0.59375q0.078125 -0.28125 0.21875 -0.53125q0.15625 -0.25 0.375 -0.484375q0.234375 -0.234375 0.53125 -0.46875q-0.453125 -0.21875 -0.671875 -0.5625q-0.203125 -0.359375 -0.203125 -0.75q0 -0.5625 0.21875 -1.0q0.234375 -0.4375 0.5625 -0.78125q-0.28125 -0.328125 -0.453125 -0.75q-0.15625 -0.4375 -0.15625 -1.03125q0 -0.703125 0.234375 -1.25q0.25 -0.5625 0.65625 -0.9375q0.421875 -0.390625 1.015625 -0.59375q0.59375 -0.203125 1.28125 -0.203125q0.375 0 0.6875 0.046875q0.328125 0.03125 0.609375 0.109375l2.484375 0q0.15625 0 0.234375 0.15625q0.078125 0.140625 0.078125 0.453125zm-2.359375 2.15625q0 -0.84375 -0.46875 -1.3125q-0.453125 -0.46875 -1.296875 -0.46875q-0.4375 0 -0.765625 0.15625q-0.3125 0.140625 -0.53125 0.390625q-0.21875 0.25 -0.328125 0.59375q-0.09375 0.328125 -0.09375 0.6875q0 0.8125 0.453125 1.28125q0.46875 0.46875 1.296875 0.46875q0.4375 0 0.765625 -0.140625q0.328125 -0.140625 0.546875 -0.390625q0.21875 -0.25 0.3125 -0.578125q0.109375 -0.328125 0.109375 -0.6875zm0.765625 6.484375q0 -0.515625 -0.4375 -0.796875q-0.4375 -0.296875 -1.171875 -0.3125l-2.125 -0.078125q-0.296875 0.234375 -0.484375 0.4375q-0.171875 0.203125 -0.28125 0.390625q-0.109375 0.1875 -0.15625 0.359375q-0.046875 0.1875 -0.046875 0.375q0 0.59375 0.59375 0.890625q0.609375 0.3125 1.6875 0.3125q0.6875 0 1.140625 -0.140625q0.46875 -0.125 0.75 -0.34375q0.28125 -0.21875 0.40625 -0.5q0.125 -0.28125 0.125 -0.59375z" fill-rule="nonzero"/><path fill="#000000" d="m291.38834 193.82129q0 0.265625 -0.015625 0.453125q-0.015625 0.1875 -0.078125 0.296875q-0.046875 0.109375 -0.109375 0.171875q-0.0625 0.046875 -0.140625 0.046875l-3.859375 0l0 3.171875l3.625 0q0.078125 0 0.140625 0.046875q0.0625 0.046875 0.109375 0.15625q0.046875 0.109375 0.0625 0.296875q0.03125 0.171875 0.03125 0.4375q0 0.28125 -0.03125 0.46875q-0.015625 0.171875 -0.0625 0.296875q-0.046875 0.109375 -0.109375 0.171875q-0.0625 0.046875 -0.140625 0.046875l-3.625 0l0 4.390625q0 0.09375 -0.0625 0.171875q-0.046875 0.078125 -0.1875 0.125q-0.140625 0.046875 -0.375 0.0625q-0.21875 0.03125 -0.578125 0.03125q-0.34375 0 -0.578125 -0.03125q-0.234375 -0.015625 -0.375 -0.0625q-0.125 -0.046875 -0.1875 -0.125q-0.0625 -0.078125 -0.0625 -0.171875l0 -10.6875q0 -0.40625 0.203125 -0.578125q0.203125 -0.171875 0.515625 -0.171875l5.546875 0q0.078125 0 0.140625 0.046875q0.0625 0.046875 0.109375 0.171875q0.0625 0.109375 0.078125 0.296875q0.015625 0.1875 0.015625 0.46875zm9.055115 6.1875q0 0.421875 -0.1875 0.625q-0.1875 0.1875 -0.515625 0.1875l-4.953125 0q0 0.53125 0.125 0.953125q0.125 0.421875 0.390625 0.71875q0.28125 0.296875 0.703125 0.453125q0.421875 0.15625 1.015625 0.15625q0.59375 0 1.046875 -0.078125q0.453125 -0.09375 0.78125 -0.203125q0.34375 -0.109375 0.5625 -0.1875q0.21875 -0.09375 0.359375 -0.09375q0.078125 0 0.125 0.03125q0.0625 0.03125 0.09375 0.125q0.046875 0.078125 0.046875 0.234375q0.015625 0.140625 0.015625 0.359375q0 0.203125 -0.015625 0.34375q0 0.140625 -0.015625 0.25q-0.015625 0.09375 -0.0625 0.171875q-0.03125 0.0625 -0.09375 0.125q-0.046875 0.0625 -0.3125 0.171875q-0.265625 0.109375 -0.6875 0.21875q-0.40625 0.09375 -0.9375 0.171875q-0.515625 0.078125 -1.125 0.078125q-1.078125 0 -1.890625 -0.265625q-0.8125 -0.28125 -1.359375 -0.828125q-0.546875 -0.5625 -0.828125 -1.40625q-0.265625 -0.84375 -0.265625 -1.984375q0 -1.078125 0.28125 -1.953125q0.28125 -0.875 0.8125 -1.46875q0.546875 -0.609375 1.3125 -0.921875q0.78125 -0.328125 1.734375 -0.328125q1.03125 0 1.75 0.296875q0.71875 0.296875 1.1875 0.84375q0.46875 0.53125 0.6875 1.265625q0.21875 0.71875 0.21875 1.578125l0 0.359375zm-2.21875 -0.65625q0.015625 -0.96875 -0.40625 -1.515625q-0.40625 -0.546875 -1.265625 -0.546875q-0.4375 0 -0.765625 0.171875q-0.3125 0.15625 -0.53125 0.4375q-0.21875 0.265625 -0.328125 0.65625q-0.109375 0.375 -0.140625 0.796875l3.4375 0zm11.032501 4.984375q0 0.125 -0.09375 0.203125q-0.09375 0.0625 -0.296875 0.09375q-0.1875 0.03125 -0.578125 0.03125q-0.40625 0 -0.59375 -0.03125q-0.1875 -0.03125 -0.265625 -0.09375q-0.078125 -0.078125 -0.078125 -0.203125l0 -0.640625q-0.5 0.53125 -1.140625 0.828125q-0.640625 0.296875 -1.421875 0.296875q-0.65625 0 -1.203125 -0.171875q-0.53125 -0.15625 -0.9375 -0.484375q-0.390625 -0.34375 -0.609375 -0.828125q-0.21875 -0.5 -0.21875 -1.15625q0 -0.703125 0.28125 -1.21875q0.28125 -0.53125 0.828125 -0.875q0.5625 -0.34375 1.375 -0.5q0.8125 -0.171875 1.90625 -0.171875l0.796875 0l0 -0.484375q0 -0.390625 -0.078125 -0.671875q-0.078125 -0.296875 -0.265625 -0.484375q-0.171875 -0.1875 -0.46875 -0.28125q-0.296875 -0.09375 -0.734375 -0.09375q-0.578125 0 -1.03125 0.140625q-0.4375 0.125 -0.796875 0.28125q-0.34375 0.140625 -0.578125 0.28125q-0.21875 0.125 -0.375 0.125q-0.09375 0 -0.171875 -0.0625q-0.078125 -0.0625 -0.140625 -0.1875q-0.046875 -0.125 -0.078125 -0.296875q-0.015625 -0.171875 -0.015625 -0.375q0 -0.28125 0.046875 -0.4375q0.046875 -0.171875 0.171875 -0.296875q0.125 -0.140625 0.4375 -0.296875q0.328125 -0.171875 0.75 -0.296875q0.4375 -0.140625 0.9375 -0.21875q0.5 -0.09375 1.046875 -0.09375q0.953125 0 1.625 0.1875q0.6875 0.1875 1.125 0.578125q0.4375 0.375 0.640625 0.984375q0.203125 0.609375 0.203125 1.453125l0 5.46875zm-2.25 -3.484375l-0.875 0q-0.5625 0 -0.953125 0.09375q-0.390625 0.078125 -0.640625 0.25q-0.25 0.15625 -0.359375 0.390625q-0.109375 0.21875 -0.109375 0.53125q0 0.5 0.3125 0.796875q0.328125 0.296875 0.90625 0.296875q0.484375 0 0.890625 -0.25q0.40625 -0.25 0.828125 -0.71875l0 -1.390625zm9.16153 2.65625q0 0.40625 -0.046875 0.625q-0.046875 0.203125 -0.140625 0.296875q-0.078125 0.078125 -0.234375 0.15625q-0.15625 0.0625 -0.375 0.109375q-0.203125 0.046875 -0.453125 0.078125q-0.25 0.03125 -0.515625 0.03125q-0.6875 0 -1.1875 -0.171875q-0.5 -0.171875 -0.828125 -0.53125q-0.328125 -0.375 -0.484375 -0.921875q-0.140625 -0.546875 -0.140625 -1.28125l0 -4.171875l-0.984375 0q-0.171875 0 -0.265625 -0.203125q-0.09375 -0.21875 -0.09375 -0.71875q0 -0.265625 0.015625 -0.4375q0.03125 -0.1875 0.078125 -0.296875q0.046875 -0.109375 0.109375 -0.15625q0.078125 -0.046875 0.171875 -0.046875l0.96875 0l0 -1.8125q0 -0.09375 0.046875 -0.15625q0.046875 -0.078125 0.171875 -0.125q0.140625 -0.046875 0.359375 -0.0625q0.21875 -0.03125 0.546875 -0.03125q0.34375 0 0.5625 0.03125q0.234375 0.015625 0.359375 0.0625q0.125 0.046875 0.171875 0.125q0.0625 0.0625 0.0625 0.15625l0 1.8125l1.765625 0q0.09375 0 0.15625 0.046875q0.078125 0.046875 0.109375 0.15625q0.046875 0.109375 0.0625 0.296875q0.03125 0.171875 0.03125 0.4375q0 0.5 -0.09375 0.71875q-0.078125 0.203125 -0.25 0.203125l-1.78125 0l0 3.828125q0 0.65625 0.203125 1.0q0.21875 0.328125 0.75 0.328125q0.1875 0 0.328125 -0.03125q0.140625 -0.03125 0.25 -0.078125q0.125 -0.046875 0.203125 -0.078125q0.078125 -0.03125 0.140625 -0.03125q0.046875 0 0.09375 0.03125q0.0625 0.03125 0.078125 0.140625q0.03125 0.09375 0.046875 0.265625q0.03125 0.15625 0.03125 0.40625zm9.373993 0.796875q0 0.09375 -0.046875 0.171875q-0.046875 0.0625 -0.171875 0.109375q-0.109375 0.046875 -0.296875 0.0625q-0.1875 0.015625 -0.46875 0.015625q-0.296875 0 -0.484375 -0.015625q-0.1875 -0.015625 -0.296875 -0.0625q-0.109375 -0.046875 -0.15625 -0.109375q-0.046875 -0.078125 -0.046875 -0.171875l0 -0.9375q-0.671875 0.734375 -1.375 1.09375q-0.6875 0.359375 -1.4375 0.359375q-0.828125 0 -1.40625 -0.265625q-0.5625 -0.28125 -0.921875 -0.75q-0.34375 -0.46875 -0.5 -1.09375q-0.140625 -0.625 -0.140625 -1.5625l0 -4.96875q0 -0.09375 0.046875 -0.15625q0.046875 -0.0625 0.171875 -0.109375q0.140625 -0.046875 0.359375 -0.0625q0.21875 -0.03125 0.546875 -0.03125q0.34375 0 0.5625 0.03125q0.21875 0.015625 0.34375 0.0625q0.140625 0.046875 0.1875 0.109375q0.0625 0.0625 0.0625 0.15625l0 4.59375q0 0.640625 0.078125 0.984375q0.078125 0.328125 0.25 0.578125q0.171875 0.234375 0.421875 0.375q0.265625 0.125 0.609375 0.125q0.4375 0 0.875 -0.3125q0.453125 -0.328125 0.953125 -0.9375l0 -5.40625q0 -0.09375 0.046875 -0.15625q0.046875 -0.0625 0.171875 -0.109375q0.140625 -0.046875 0.359375 -0.0625q0.21875 -0.03125 0.5625 -0.03125q0.328125 0 0.546875 0.03125q0.21875 0.015625 0.34375 0.0625q0.140625 0.046875 0.1875 0.109375q0.0625 0.0625 0.0625 0.15625l0 8.125zm7.5269775 -7.359375q0 0.328125 -0.03125 0.53125q-0.015625 0.203125 -0.046875 0.328125q-0.03125 0.109375 -0.09375 0.15625q-0.0625 0.046875 -0.15625 0.046875q-0.078125 0 -0.171875 -0.03125q-0.078125 -0.03125 -0.203125 -0.0625q-0.109375 -0.03125 -0.25 -0.0625q-0.125 -0.046875 -0.296875 -0.046875q-0.1875 0 -0.375 0.078125q-0.1875 0.078125 -0.40625 0.25q-0.203125 0.15625 -0.421875 0.4375q-0.21875 0.265625 -0.484375 0.671875l0 5.0625q0 0.09375 -0.0625 0.171875q-0.046875 0.0625 -0.1875 0.109375q-0.125 0.046875 -0.34375 0.0625q-0.21875 0.015625 -0.546875 0.015625q-0.34375 0 -0.5625 -0.015625q-0.21875 -0.015625 -0.359375 -0.0625q-0.125 -0.046875 -0.1875 -0.109375q-0.046875 -0.078125 -0.046875 -0.171875l0 -8.125q0 -0.09375 0.046875 -0.15625q0.046875 -0.0625 0.15625 -0.109375q0.125 -0.046875 0.3125 -0.0625q0.1875 -0.03125 0.46875 -0.03125q0.296875 0 0.484375 0.03125q0.203125 0.015625 0.296875 0.0625q0.109375 0.046875 0.15625 0.109375q0.046875 0.0625 0.046875 0.15625l0 1.015625q0.3125 -0.453125 0.59375 -0.75q0.28125 -0.296875 0.53125 -0.46875q0.265625 -0.171875 0.515625 -0.234375q0.265625 -0.078125 0.515625 -0.078125q0.125 0 0.25 0.015625q0.140625 0.015625 0.28125 0.046875q0.15625 0.03125 0.265625 0.078125q0.109375 0.03125 0.15625 0.078125q0.046875 0.046875 0.0625 0.109375q0.03125 0.046875 0.046875 0.140625q0.015625 0.09375 0.03125 0.296875q0.015625 0.1875 0.015625 0.515625zm8.703308 3.0625q0 0.421875 -0.1875 0.625q-0.1875 0.1875 -0.515625 0.1875l-4.953125 0q0 0.53125 0.125 0.953125q0.125 0.421875 0.390625 0.71875q0.28125 0.296875 0.703125 0.453125q0.421875 0.15625 1.015625 0.15625q0.59375 0 1.046875 -0.078125q0.453125 -0.09375 0.78125 -0.203125q0.34375 -0.109375 0.5625 -0.1875q0.21875 -0.09375 0.359375 -0.09375q0.078125 0 0.125 0.03125q0.0625 0.03125 0.09375 0.125q0.046875 0.078125 0.046875 0.234375q0.015625 0.140625 0.015625 0.359375q0 0.203125 -0.015625 0.34375q0 0.140625 -0.015625 0.25q-0.015625 0.09375 -0.0625 0.171875q-0.03125 0.0625 -0.09375 0.125q-0.046875 0.0625 -0.3125 0.171875q-0.265625 0.109375 -0.6875 0.21875q-0.40625 0.09375 -0.9375 0.171875q-0.515625 0.078125 -1.125 0.078125q-1.078125 0 -1.890625 -0.265625q-0.8125 -0.28125 -1.359375 -0.828125q-0.546875 -0.5625 -0.828125 -1.40625q-0.265625 -0.84375 -0.265625 -1.984375q0 -1.078125 0.28125 -1.953125q0.28125 -0.875 0.8125 -1.46875q0.546875 -0.609375 1.3125 -0.921875q0.78125 -0.328125 1.734375 -0.328125q1.03125 0 1.75 0.296875q0.71875 0.296875 1.1875 0.84375q0.46875 0.53125 0.6875 1.265625q0.21875 0.71875 0.21875 1.578125l0 0.359375zm-2.21875 -0.65625q0.015625 -0.96875 -0.40625 -1.515625q-0.40625 -0.546875 -1.265625 -0.546875q-0.4375 0 -0.765625 0.171875q-0.3125 0.15625 -0.53125 0.4375q-0.21875 0.265625 -0.328125 0.65625q-0.109375 0.375 -0.140625 0.796875l3.4375 0zm9.829407 2.65625q0 0.703125 -0.265625 1.234375q-0.265625 0.515625 -0.734375 0.875q-0.46875 0.359375 -1.125 0.53125q-0.640625 0.171875 -1.390625 0.171875q-0.46875 0 -0.890625 -0.0625q-0.40625 -0.0625 -0.734375 -0.171875q-0.328125 -0.109375 -0.546875 -0.21875q-0.21875 -0.109375 -0.3125 -0.203125q-0.09375 -0.09375 -0.15625 -0.296875q-0.046875 -0.203125 -0.046875 -0.609375q0 -0.265625 0.015625 -0.421875q0.015625 -0.15625 0.046875 -0.25q0.046875 -0.09375 0.09375 -0.125q0.0625 -0.046875 0.140625 -0.046875q0.09375 0 0.28125 0.125q0.203125 0.109375 0.5 0.25q0.296875 0.140625 0.671875 0.265625q0.390625 0.109375 0.890625 0.109375q0.296875 0 0.53125 -0.0625q0.25 -0.0625 0.421875 -0.1875q0.1875 -0.125 0.28125 -0.296875q0.09375 -0.1875 0.09375 -0.421875q0 -0.28125 -0.171875 -0.46875q-0.171875 -0.203125 -0.453125 -0.34375q-0.265625 -0.140625 -0.625 -0.265625q-0.34375 -0.140625 -0.71875 -0.28125q-0.359375 -0.15625 -0.71875 -0.359375q-0.34375 -0.203125 -0.625 -0.484375q-0.28125 -0.296875 -0.453125 -0.703125q-0.171875 -0.421875 -0.171875 -1.0q0 -0.578125 0.234375 -1.0625q0.234375 -0.484375 0.65625 -0.828125q0.421875 -0.359375 1.03125 -0.546875q0.625 -0.1875 1.390625 -0.1875q0.390625 0 0.75 0.0625q0.359375 0.046875 0.640625 0.125q0.296875 0.078125 0.5 0.1875q0.203125 0.09375 0.28125 0.15625q0.09375 0.0625 0.125 0.140625q0.03125 0.0625 0.046875 0.15625q0.03125 0.09375 0.03125 0.234375q0.015625 0.140625 0.015625 0.359375q0 0.25 -0.015625 0.40625q0 0.140625 -0.03125 0.234375q-0.03125 0.09375 -0.09375 0.125q-0.046875 0.03125 -0.125 0.03125q-0.078125 0 -0.25 -0.09375q-0.171875 -0.09375 -0.4375 -0.203125q-0.265625 -0.109375 -0.609375 -0.203125q-0.328125 -0.09375 -0.765625 -0.09375q-0.3125 0 -0.546875 0.0625q-0.21875 0.0625 -0.375 0.1875q-0.140625 0.109375 -0.21875 0.265625q-0.0625 0.15625 -0.0625 0.34375q0 0.28125 0.171875 0.484375q0.171875 0.1875 0.453125 0.328125q0.28125 0.140625 0.640625 0.28125q0.359375 0.125 0.71875 0.28125q0.375 0.140625 0.734375 0.34375q0.359375 0.1875 0.640625 0.484375q0.28125 0.296875 0.453125 0.703125q0.1875 0.40625 0.1875 0.953125z" fill-rule="nonzero"/><path fill="#cfe2f3" d="m241.9685 270.58823l0 0c0 -8.056854 6.531372 -14.588226 14.588226 -14.588226l120.33536 0c3.869049 0 7.5796204 1.5369568 10.31543 4.2727966c2.7358398 2.7358093 4.2727966 6.4463806 4.2727966 10.31543l0 58.351105c0 8.056854 -6.531372 14.588226 -14.588226 14.588226l-120.33536 0c-8.056854 0 -14.588226 -6.531372 -14.588226 -14.588226z" fill-rule="evenodd"/><path stroke="#000000" stroke-width="1.0" stroke-linejoin="round" stroke-linecap="butt" d="m241.9685 270.58823l0 0c0 -8.056854 6.531372 -14.588226 14.588226 -14.588226l120.33536 0c3.869049 0 7.5796204 1.5369568 10.31543 4.2727966c2.7358398 2.7358093 4.2727966 6.4463806 4.2727966 10.31543l0 58.351105c0 8.056854 -6.531372 14.588226 -14.588226 14.588226l-120.33536 0c-8.056854 0 -14.588226 -6.531372 -14.588226 -14.588226z" fill-rule="evenodd"/><path fill="#000000" d="m291.34085 295.40253q0 0.21875 -0.015625 0.390625q-0.015625 0.15625 -0.046875 0.265625q-0.015625 0.109375 -0.0625 0.203125q-0.046875 0.078125 -0.15625 0.1875q-0.09375 0.09375 -0.390625 0.265625q-0.28125 0.15625 -0.703125 0.3125q-0.40625 0.140625 -0.9375 0.234375q-0.53125 0.109375 -1.15625 0.109375q-1.203125 0 -2.1875 -0.375q-0.96875 -0.375 -1.65625 -1.109375q-0.671875 -0.75 -1.046875 -1.859375q-0.359375 -1.109375 -0.359375 -2.578125q0 -1.5 0.390625 -2.671875q0.40625 -1.171875 1.125 -1.953125q0.71875 -0.796875 1.71875 -1.203125q1.015625 -0.421875 2.234375 -0.421875q0.484375 0 0.9375 0.09375q0.46875 0.078125 0.84375 0.21875q0.390625 0.125 0.703125 0.296875q0.3125 0.171875 0.4375 0.296875q0.125 0.125 0.15625 0.203125q0.046875 0.078125 0.078125 0.203125q0.03125 0.125 0.046875 0.3125q0.015625 0.171875 0.015625 0.421875q0 0.265625 -0.03125 0.46875q-0.015625 0.1875 -0.0625 0.3125q-0.03125 0.109375 -0.109375 0.171875q-0.0625 0.046875 -0.140625 0.046875q-0.140625 0 -0.34375 -0.15625q-0.203125 -0.15625 -0.546875 -0.34375q-0.328125 -0.203125 -0.796875 -0.359375q-0.453125 -0.171875 -1.09375 -0.171875q-0.703125 0 -1.25 0.296875q-0.546875 0.28125 -0.9375 0.8125q-0.390625 0.53125 -0.59375 1.296875q-0.1875 0.75 -0.1875 1.703125q0 1.03125 0.203125 1.796875q0.21875 0.75 0.609375 1.25q0.40625 0.484375 0.953125 0.734375q0.5625 0.234375 1.265625 0.234375q0.640625 0 1.109375 -0.140625q0.46875 -0.15625 0.796875 -0.328125q0.328125 -0.1875 0.546875 -0.328125q0.21875 -0.15625 0.328125 -0.15625q0.09375 0 0.140625 0.046875q0.0625 0.03125 0.09375 0.140625q0.046875 0.109375 0.0625 0.3125q0.015625 0.1875 0.015625 0.515625zm3.8746948 1.46875q0 0.09375 -0.0625 0.171875q-0.046875 0.0625 -0.1875 0.109375q-0.125 0.046875 -0.34375 0.0625q-0.21875 0.015625 -0.546875 0.015625q-0.34375 0 -0.5625 -0.015625q-0.21875 -0.015625 -0.359375 -0.0625q-0.125 -0.046875 -0.1875 -0.109375q-0.046875 -0.078125 -0.046875 -0.171875l0 -11.96875q0 -0.09375 0.046875 -0.171875q0.0625 -0.078125 0.1875 -0.125q0.140625 -0.046875 0.359375 -0.078125q0.21875 -0.03125 0.5625 -0.03125q0.328125 0 0.546875 0.03125q0.21875 0.03125 0.34375 0.078125q0.140625 0.046875 0.1875 0.125q0.0625 0.078125 0.0625 0.171875l0 11.96875zm9.222717 0.03125q0 0.125 -0.09375 0.203125q-0.09375 0.0625 -0.296875 0.09375q-0.1875 0.03125 -0.578125 0.03125q-0.40625 0 -0.59375 -0.03125q-0.1875 -0.03125 -0.265625 -0.09375q-0.078125 -0.078125 -0.078125 -0.203125l0 -0.640625q-0.5 0.53125 -1.140625 0.828125q-0.640625 0.296875 -1.421875 0.296875q-0.65625 0 -1.203125 -0.171875q-0.53125 -0.15625 -0.9375 -0.484375q-0.390625 -0.34375 -0.609375 -0.828125q-0.21875 -0.5 -0.21875 -1.15625q0 -0.703125 0.28125 -1.21875q0.28125 -0.53125 0.828125 -0.875q0.5625 -0.34375 1.375 -0.5q0.8125 -0.171875 1.90625 -0.171875l0.796875 0l0 -0.484375q0 -0.390625 -0.078125 -0.671875q-0.078125 -0.296875 -0.265625 -0.484375q-0.171875 -0.1875 -0.46875 -0.28125q-0.296875 -0.09375 -0.734375 -0.09375q-0.578125 0 -1.03125 0.140625q-0.4375 0.125 -0.796875 0.28125q-0.34375 0.140625 -0.578125 0.28125q-0.21875 0.125 -0.375 0.125q-0.09375 0 -0.171875 -0.0625q-0.078125 -0.0625 -0.140625 -0.1875q-0.046875 -0.125 -0.078125 -0.296875q-0.015625 -0.171875 -0.015625 -0.375q0 -0.28125 0.046875 -0.4375q0.046875 -0.171875 0.171875 -0.296875q0.125 -0.140625 0.4375 -0.296875q0.328125 -0.171875 0.75 -0.296875q0.4375 -0.140625 0.9375 -0.21875q0.5 -0.09375 1.046875 -0.09375q0.953125 0 1.625 0.1875q0.6875 0.1875 1.125 0.578125q0.4375 0.375 0.640625 0.984375q0.203125 0.609375 0.203125 1.453125l0 5.46875zm-2.25 -3.484375l-0.875 0q-0.5625 0 -0.953125 0.09375q-0.390625 0.078125 -0.640625 0.25q-0.25 0.15625 -0.359375 0.390625q-0.109375 0.21875 -0.109375 0.53125q0 0.5 0.3125 0.796875q0.328125 0.296875 0.90625 0.296875q0.484375 0 0.890625 -0.25q0.40625 -0.25 0.828125 -0.71875l0 -1.390625zm10.256561 1.15625q0 0.703125 -0.265625 1.234375q-0.265625 0.515625 -0.734375 0.875q-0.46875 0.359375 -1.125 0.53125q-0.640625 0.171875 -1.390625 0.171875q-0.46875 0 -0.890625 -0.0625q-0.40625 -0.0625 -0.734375 -0.171875q-0.328125 -0.109375 -0.546875 -0.21875q-0.21875 -0.109375 -0.3125 -0.203125q-0.09375 -0.09375 -0.15625 -0.296875q-0.046875 -0.203125 -0.046875 -0.609375q0 -0.265625 0.015625 -0.421875q0.015625 -0.15625 0.046875 -0.25q0.046875 -0.09375 0.09375 -0.125q0.0625 -0.046875 0.140625 -0.046875q0.09375 0 0.28125 0.125q0.203125 0.109375 0.5 0.25q0.296875 0.140625 0.671875 0.265625q0.390625 0.109375 0.890625 0.109375q0.296875 0 0.53125 -0.0625q0.25 -0.0625 0.421875 -0.1875q0.1875 -0.125 0.28125 -0.296875q0.09375 -0.1875 0.09375 -0.421875q0 -0.28125 -0.171875 -0.46875q-0.171875 -0.203125 -0.453125 -0.34375q-0.265625 -0.140625 -0.625 -0.265625q-0.34375 -0.140625 -0.71875 -0.28125q-0.359375 -0.15625 -0.71875 -0.359375q-0.34375 -0.203125 -0.625 -0.484375q-0.28125 -0.296875 -0.453125 -0.703125q-0.171875 -0.421875 -0.171875 -1.0q0 -0.578125 0.234375 -1.0625q0.234375 -0.484375 0.65625 -0.828125q0.421875 -0.359375 1.03125 -0.546875q0.625 -0.1875 1.390625 -0.1875q0.390625 0 0.75 0.0625q0.359375 0.046875 0.640625 0.125q0.296875 0.078125 0.5 0.1875q0.203125 0.09375 0.28125 0.15625q0.09375 0.0625 0.125 0.140625q0.03125 0.0625 0.046875 0.15625q0.03125 0.09375 0.03125 0.234375q0.015625 0.140625 0.015625 0.359375q0 0.25 -0.015625 0.40625q0 0.140625 -0.03125 0.234375q-0.03125 0.09375 -0.09375 0.125q-0.046875 0.03125 -0.125 0.03125q-0.078125 0 -0.25 -0.09375q-0.171875 -0.09375 -0.4375 -0.203125q-0.265625 -0.109375 -0.609375 -0.203125q-0.328125 -0.09375 -0.765625 -0.09375q-0.3125 0 -0.546875 0.0625q-0.21875 0.0625 -0.375 0.1875q-0.140625 0.109375 -0.21875 0.265625q-0.0625 0.15625 -0.0625 0.34375q0 0.28125 0.171875 0.484375q0.171875 0.1875 0.453125 0.328125q0.28125 0.140625 0.640625 0.28125q0.359375 0.125 0.71875 0.28125q0.375 0.140625 0.734375 0.34375q0.359375 0.1875 0.640625 0.484375q0.28125 0.296875 0.453125 0.703125q0.1875 0.40625 0.1875 0.953125zm7.4424744 0q0 0.703125 -0.265625 1.234375q-0.265625 0.515625 -0.734375 0.875q-0.46875 0.359375 -1.125 0.53125q-0.640625 0.171875 -1.390625 0.171875q-0.46875 0 -0.890625 -0.0625q-0.40625 -0.0625 -0.734375 -0.171875q-0.328125 -0.109375 -0.546875 -0.21875q-0.21875 -0.109375 -0.3125 -0.203125q-0.09375 -0.09375 -0.15625 -0.296875q-0.046875 -0.203125 -0.046875 -0.609375q0 -0.265625 0.015625 -0.421875q0.015625 -0.15625 0.046875 -0.25q0.046875 -0.09375 0.09375 -0.125q0.0625 -0.046875 0.140625 -0.046875q0.09375 0 0.28125 0.125q0.203125 0.109375 0.5 0.25q0.296875 0.140625 0.671875 0.265625q0.390625 0.109375 0.890625 0.109375q0.296875 0 0.53125 -0.0625q0.25 -0.0625 0.421875 -0.1875q0.1875 -0.125 0.28125 -0.296875q0.09375 -0.1875 0.09375 -0.421875q0 -0.28125 -0.171875 -0.46875q-0.171875 -0.203125 -0.453125 -0.34375q-0.265625 -0.140625 -0.625 -0.265625q-0.34375 -0.140625 -0.71875 -0.28125q-0.359375 -0.15625 -0.71875 -0.359375q-0.34375 -0.203125 -0.625 -0.484375q-0.28125 -0.296875 -0.453125 -0.703125q-0.171875 -0.421875 -0.171875 -1.0q0 -0.578125 0.234375 -1.0625q0.234375 -0.484375 0.65625 -0.828125q0.421875 -0.359375 1.03125 -0.546875q0.625 -0.1875 1.390625 -0.1875q0.390625 0 0.75 0.0625q0.359375 0.046875 0.640625 0.125q0.296875 0.078125 0.5 0.1875q0.203125 0.09375 0.28125 0.15625q0.09375 0.0625 0.125 0.140625q0.03125 0.0625 0.046875 0.15625q0.03125 0.09375 0.03125 0.234375q0.015625 0.140625 0.015625 0.359375q0 0.25 -0.015625 0.40625q0 0.140625 -0.03125 0.234375q-0.03125 0.09375 -0.09375 0.125q-0.046875 0.03125 -0.125 0.03125q-0.078125 0 -0.25 -0.09375q-0.171875 -0.09375 -0.4375 -0.203125q-0.265625 -0.109375 -0.609375 -0.203125q-0.328125 -0.09375 -0.765625 -0.09375q-0.3125 0 -0.546875 0.0625q-0.21875 0.0625 -0.375 0.1875q-0.140625 0.109375 -0.21875 0.265625q-0.0625 0.15625 -0.0625 0.34375q0 0.28125 0.171875 0.484375q0.171875 0.1875 0.453125 0.328125q0.28125 0.140625 0.640625 0.28125q0.359375 0.125 0.71875 0.28125q0.375 0.140625 0.734375 0.34375q0.359375 0.1875 0.640625 0.484375q0.28125 0.296875 0.453125 0.703125q0.1875 0.40625 0.1875 0.953125zm4.004944 2.296875q0 0.09375 -0.0625 0.171875q-0.046875 0.0625 -0.1875 0.109375q-0.125 0.046875 -0.34375 0.0625q-0.21875 0.015625 -0.546875 0.015625q-0.34375 0 -0.5625 -0.015625q-0.21875 -0.015625 -0.359375 -0.0625q-0.125 -0.046875 -0.1875 -0.109375q-0.046875 -0.078125 -0.046875 -0.171875l0 -8.109375q0 -0.09375 0.046875 -0.15625q0.0625 -0.0625 0.1875 -0.109375q0.140625 -0.0625 0.359375 -0.078125q0.21875 -0.03125 0.5625 -0.03125q0.328125 0 0.546875 0.03125q0.21875 0.015625 0.34375 0.078125q0.140625 0.046875 0.1875 0.109375q0.0625 0.0625 0.0625 0.15625l0 8.109375zm0.171875 -10.875q0 0.6875 -0.28125 0.953125q-0.28125 0.265625 -1.046875 0.265625q-0.765625 0 -1.046875 -0.25q-0.265625 -0.25 -0.265625 -0.921875q0 -0.6875 0.28125 -0.953125q0.28125 -0.28125 1.0625 -0.28125q0.75 0 1.015625 0.265625q0.28125 0.265625 0.28125 0.921875zm7.0195923 -0.34375q0 0.265625 -0.015625 0.421875q-0.015625 0.15625 -0.0625 0.25q-0.03125 0.078125 -0.078125 0.109375q-0.046875 0.03125 -0.09375 0.03125q-0.0625 0 -0.140625 -0.03125q-0.078125 -0.03125 -0.203125 -0.0625q-0.109375 -0.03125 -0.265625 -0.0625q-0.15625 -0.03125 -0.359375 -0.03125q-0.25 0 -0.421875 0.078125q-0.171875 0.0625 -0.296875 0.234375q-0.125 0.171875 -0.1875 0.4375q-0.046875 0.265625 -0.046875 0.671875l0 0.734375l1.484375 0q0.09375 0 0.15625 0.046875q0.0625 0.046875 0.109375 0.15625q0.046875 0.109375 0.0625 0.296875q0.03125 0.171875 0.03125 0.4375q0 0.5 -0.09375 0.71875q-0.09375 0.203125 -0.265625 0.203125l-1.484375 0l0 6.578125q0 0.09375 -0.0625 0.171875q-0.046875 0.0625 -0.171875 0.109375q-0.125 0.046875 -0.359375 0.0625q-0.21875 0.015625 -0.546875 0.015625q-0.328125 0 -0.5625 -0.015625q-0.21875 -0.015625 -0.359375 -0.0625q-0.125 -0.046875 -0.171875 -0.109375q-0.046875 -0.078125 -0.046875 -0.171875l0 -6.578125l-1.015625 0q-0.171875 0 -0.265625 -0.203125q-0.078125 -0.21875 -0.078125 -0.71875q0 -0.265625 0.015625 -0.4375q0.015625 -0.1875 0.0625 -0.296875q0.046875 -0.109375 0.109375 -0.15625q0.0625 -0.046875 0.15625 -0.046875l1.015625 0l0 -0.671875q0 -0.828125 0.15625 -1.453125q0.171875 -0.625 0.515625 -1.03125q0.359375 -0.421875 0.890625 -0.625q0.546875 -0.21875 1.296875 -0.21875q0.34375 0 0.65625 0.0625q0.328125 0.046875 0.5 0.125q0.1875 0.0625 0.25 0.125q0.078125 0.0625 0.109375 0.171875q0.046875 0.109375 0.0625 0.296875q0.015625 0.171875 0.015625 0.4375zm3.293579 11.21875q0 0.09375 -0.0625 0.171875q-0.046875 0.0625 -0.1875 0.109375q-0.125 0.046875 -0.34375 0.0625q-0.21875 0.015625 -0.546875 0.015625q-0.34375 0 -0.5625 -0.015625q-0.21875 -0.015625 -0.359375 -0.0625q-0.125 -0.046875 -0.1875 -0.109375q-0.046875 -0.078125 -0.046875 -0.171875l0 -8.109375q0 -0.09375 0.046875 -0.15625q0.0625 -0.0625 0.1875 -0.109375q0.140625 -0.0625 0.359375 -0.078125q0.21875 -0.03125 0.5625 -0.03125q0.328125 0 0.546875 0.03125q0.21875 0.015625 0.34375 0.078125q0.140625 0.046875 0.1875 0.109375q0.0625 0.0625 0.0625 0.15625l0 8.109375zm0.171875 -10.875q0 0.6875 -0.28125 0.953125q-0.28125 0.265625 -1.046875 0.265625q-0.765625 0 -1.046875 -0.25q-0.265625 -0.25 -0.265625 -0.921875q0 -0.6875 0.28125 -0.953125q0.28125 -0.28125 1.0625 -0.28125q0.75 0 1.015625 0.265625q0.28125 0.265625 0.28125 0.921875zm9.628937 6.578125q0 0.421875 -0.1875 0.625q-0.1875 0.1875 -0.515625 0.1875l-4.953125 0q0 0.53125 0.125 0.953125q0.125 0.421875 0.390625 0.71875q0.28125 0.296875 0.703125 0.453125q0.421875 0.15625 1.015625 0.15625q0.59375 0 1.046875 -0.078125q0.453125 -0.09375 0.78125 -0.203125q0.34375 -0.109375 0.5625 -0.1875q0.21875 -0.09375 0.359375 -0.09375q0.078125 0 0.125 0.03125q0.0625 0.03125 0.09375 0.125q0.046875 0.078125 0.046875 0.234375q0.015625 0.140625 0.015625 0.359375q0 0.203125 -0.015625 0.34375q0 0.140625 -0.015625 0.25q-0.015625 0.09375 -0.0625 0.171875q-0.03125 0.0625 -0.09375 0.125q-0.046875 0.0625 -0.3125 0.171875q-0.265625 0.109375 -0.6875 0.21875q-0.40625 0.09375 -0.9375 0.171875q-0.515625 0.078125 -1.125 0.078125q-1.078125 0 -1.890625 -0.265625q-0.8125 -0.28125 -1.359375 -0.828125q-0.546875 -0.5625 -0.828125 -1.40625q-0.265625 -0.84375 -0.265625 -1.984375q0 -1.078125 0.28125 -1.953125q0.28125 -0.875 0.8125 -1.46875q0.546875 -0.609375 1.3125 -0.921875q0.78125 -0.328125 1.734375 -0.328125q1.03125 0 1.75 0.296875q0.71875 0.296875 1.1875 0.84375q0.46875 0.53125 0.6875 1.265625q0.21875 0.71875 0.21875 1.578125l0 0.359375zm-2.21875 -0.65625q0.015625 -0.96875 -0.40625 -1.515625q-0.40625 -0.546875 -1.265625 -0.546875q-0.4375 0 -0.765625 0.171875q-0.3125 0.15625 -0.53125 0.4375q-0.21875 0.265625 -0.328125 0.65625q-0.109375 0.375 -0.140625 0.796875l3.4375 0zm9.329407 -2.40625q0 0.328125 -0.03125 0.53125q-0.015625 0.203125 -0.046875 0.328125q-0.03125 0.109375 -0.09375 0.15625q-0.0625 0.046875 -0.15625 0.046875q-0.078125 0 -0.171875 -0.03125q-0.078125 -0.03125 -0.203125 -0.0625q-0.109375 -0.03125 -0.25 -0.0625q-0.125 -0.046875 -0.296875 -0.046875q-0.1875 0 -0.375 0.078125q-0.1875 0.078125 -0.40625 0.25q-0.203125 0.15625 -0.421875 0.4375q-0.21875 0.265625 -0.484375 0.671875l0 5.0625q0 0.09375 -0.0625 0.171875q-0.046875 0.0625 -0.1875 0.109375q-0.125 0.046875 -0.34375 0.0625q-0.21875 0.015625 -0.546875 0.015625q-0.34375 0 -0.5625 -0.015625q-0.21875 -0.015625 -0.359375 -0.0625q-0.125 -0.046875 -0.1875 -0.109375q-0.046875 -0.078125 -0.046875 -0.171875l0 -8.125q0 -0.09375 0.046875 -0.15625q0.046875 -0.0625 0.15625 -0.109375q0.125 -0.046875 0.3125 -0.0625q0.1875 -0.03125 0.46875 -0.03125q0.296875 0 0.484375 0.03125q0.203125 0.015625 0.296875 0.0625q0.109375 0.046875 0.15625 0.109375q0.046875 0.0625 0.046875 0.15625l0 1.015625q0.3125 -0.453125 0.59375 -0.75q0.28125 -0.296875 0.53125 -0.46875q0.265625 -0.171875 0.515625 -0.234375q0.265625 -0.078125 0.515625 -0.078125q0.125 0 0.25 0.015625q0.140625 0.015625 0.28125 0.046875q0.15625 0.03125 0.265625 0.078125q0.109375 0.03125 0.15625 0.078125q0.046875 0.046875 0.0625 0.109375q0.03125 0.046875 0.046875 0.140625q0.015625 0.09375 0.03125 0.296875q0.015625 0.1875 0.015625 0.515625z" fill-rule="nonzero"/><path fill="#000000" d="m260.99002 305.85815q-0.75 1.5625 -1.109375 3.21875q-0.359375 1.65625 -0.359375 3.328125q0 1.671875 0.359375 3.328125q0.375 1.65625 1.09375 3.234375q0.03125 0.09375 0.03125 0.15625q0.015625 0.078125 -0.046875 0.109375q-0.046875 0.046875 -0.171875 0.0625q-0.109375 0.03125 -0.296875 0.03125q-0.140625 0 -0.25 -0.015625q-0.09375 0 -0.171875 -0.03125q-0.078125 -0.015625 -0.125 -0.046875q-0.046875 -0.03125 -0.0625 -0.078125q-0.421875 -0.796875 -0.75 -1.609375q-0.3125 -0.8125 -0.53125 -1.65625q-0.21875 -0.859375 -0.328125 -1.71875q-0.109375 -0.859375 -0.109375 -1.75q0 -0.875 0.109375 -1.734375q0.125 -0.859375 0.34375 -1.703125q0.234375 -0.859375 0.546875 -1.671875q0.328125 -0.828125 0.71875 -1.625q0.015625 -0.03125 0.046875 -0.046875q0.03125 -0.03125 0.09375 -0.046875q0.0625 -0.03125 0.171875 -0.046875q0.109375 -0.015625 0.28125 -0.015625q0.1875 0 0.296875 0.03125q0.109375 0.015625 0.171875 0.0625q0.0625 0.03125 0.0625 0.09375q0.015625 0.0625 -0.015625 0.140625zm8.6484375 6.9375q0 0.921875 -0.203125 1.65625q-0.203125 0.734375 -0.59375 1.25q-0.375 0.515625 -0.953125 0.796875q-0.5625 0.28125 -1.296875 0.28125q-0.3125 0 -0.578125 -0.0625q-0.265625 -0.0625 -0.53125 -0.203125q-0.25 -0.140625 -0.5 -0.34375q-0.25 -0.203125 -0.53125 -0.46875l0 3.515625q0 0.0625 -0.03125 0.109375q-0.03125 0.046875 -0.109375 0.078125q-0.0625 0.03125 -0.1875 0.046875q-0.125 0.015625 -0.3125 0.015625q-0.1875 0 -0.3125 -0.015625q-0.125 -0.015625 -0.203125 -0.046875q-0.078125 -0.03125 -0.109375 -0.078125q-0.015625 -0.046875 -0.015625 -0.109375l0 -9.828125q0 -0.0625 0.015625 -0.109375q0.03125 -0.046875 0.09375 -0.078125q0.078125 -0.03125 0.1875 -0.03125q0.109375 -0.015625 0.265625 -0.015625q0.15625 0 0.265625 0.015625q0.109375 0 0.171875 0.03125q0.078125 0.03125 0.09375 0.078125q0.03125 0.046875 0.03125 0.109375l0 0.953125q0.328125 -0.328125 0.625 -0.5625q0.296875 -0.25 0.59375 -0.40625q0.296875 -0.171875 0.609375 -0.25q0.328125 -0.078125 0.671875 -0.078125q0.765625 0 1.296875 0.296875q0.546875 0.296875 0.890625 0.8125q0.34375 0.515625 0.5 1.203125q0.15625 0.671875 0.15625 1.4375zm-1.359375 0.15625q0 -0.546875 -0.09375 -1.046875q-0.078125 -0.5 -0.28125 -0.890625q-0.1875 -0.390625 -0.53125 -0.625q-0.328125 -0.234375 -0.828125 -0.234375q-0.25 0 -0.5 0.078125q-0.234375 0.0625 -0.484375 0.234375q-0.25 0.15625 -0.53125 0.421875q-0.265625 0.25 -0.578125 0.640625l0 2.796875q0.53125 0.640625 1.0 0.984375q0.484375 0.34375 1.015625 0.34375q0.484375 0 0.828125 -0.234375q0.34375 -0.234375 0.5625 -0.625q0.21875 -0.390625 0.3125 -0.875q0.109375 -0.484375 0.109375 -0.96875zm7.40625 -3.09375q0 0.171875 -0.015625 0.296875q0 0.109375 -0.03125 0.171875q-0.015625 0.0625 -0.0625 0.109375q-0.03125 0.03125 -0.09375 0.03125q-0.0625 0 -0.15625 -0.03125q-0.078125 -0.046875 -0.203125 -0.078125q-0.109375 -0.03125 -0.25 -0.0625q-0.140625 -0.03125 -0.296875 -0.03125q-0.203125 0 -0.390625 0.078125q-0.1875 0.078125 -0.390625 0.265625q-0.203125 0.171875 -0.4375 0.46875q-0.21875 0.296875 -0.5 0.71875l0 4.625q0 0.0625 -0.03125 0.109375q-0.03125 0.046875 -0.109375 0.078125q-0.0625 0.03125 -0.1875 0.046875q-0.125 0.015625 -0.3125 0.015625q-0.1875 0 -0.3125 -0.015625q-0.125 -0.015625 -0.203125 -0.046875q-0.078125 -0.03125 -0.109375 -0.078125q-0.015625 -0.046875 -0.015625 -0.109375l0 -7.03125q0 -0.0625 0.015625 -0.09375q0.03125 -0.046875 0.09375 -0.078125q0.078125 -0.046875 0.1875 -0.046875q0.109375 -0.015625 0.28125 -0.015625q0.171875 0 0.28125 0.015625q0.125 0 0.1875 0.046875q0.0625 0.03125 0.078125 0.078125q0.03125 0.03125 0.03125 0.09375l0 1.03125q0.296875 -0.421875 0.546875 -0.6875q0.25 -0.265625 0.46875 -0.421875q0.234375 -0.15625 0.453125 -0.203125q0.234375 -0.0625 0.453125 -0.0625q0.109375 0 0.234375 0.015625q0.125 0 0.265625 0.03125q0.140625 0.03125 0.25 0.078125q0.125 0.03125 0.171875 0.078125q0.046875 0.03125 0.0625 0.078125q0.015625 0.03125 0.015625 0.09375q0.015625 0.046875 0.015625 0.15625q0.015625 0.09375 0.015625 0.28125zm7.2578125 2.75q0 0.296875 -0.15625 0.4375q-0.15625 0.125 -0.34375 0.125l-4.609375 0q0 0.578125 0.109375 1.046875q0.125 0.46875 0.390625 0.8125q0.28125 0.328125 0.71875 0.515625q0.4375 0.171875 1.0625 0.171875q0.5 0 0.890625 -0.078125q0.390625 -0.078125 0.671875 -0.171875q0.296875 -0.109375 0.46875 -0.1875q0.1875 -0.09375 0.28125 -0.09375q0.0625 0 0.09375 0.03125q0.046875 0.03125 0.0625 0.09375q0.03125 0.046875 0.046875 0.140625q0.015625 0.09375 0.015625 0.234375q0 0.109375 -0.015625 0.1875q0 0.0625 -0.015625 0.125q-0.015625 0.0625 -0.046875 0.109375q-0.015625 0.046875 -0.0625 0.09375q-0.046875 0.03125 -0.265625 0.140625q-0.203125 0.09375 -0.546875 0.1875q-0.328125 0.09375 -0.765625 0.171875q-0.4375 0.078125 -0.9375 0.078125q-0.875 0 -1.53125 -0.25q-0.640625 -0.25 -1.09375 -0.71875q-0.4375 -0.484375 -0.671875 -1.203125q-0.21875 -0.71875 -0.21875 -1.671875q0 -0.90625 0.234375 -1.625q0.234375 -0.71875 0.671875 -1.21875q0.4375 -0.515625 1.0625 -0.78125q0.625 -0.265625 1.40625 -0.265625q0.828125 0 1.40625 0.265625q0.578125 0.265625 0.953125 0.71875q0.375 0.4375 0.546875 1.046875q0.1875 0.609375 0.1875 1.296875l0 0.234375zm-1.296875 -0.390625q0.015625 -1.015625 -0.453125 -1.59375q-0.46875 -0.578125 -1.40625 -0.578125q-0.46875 0 -0.828125 0.1875q-0.359375 0.171875 -0.609375 0.46875q-0.234375 0.296875 -0.375 0.703125q-0.125 0.390625 -0.140625 0.8125l3.8125 0zm9.2734375 4.203125q0 0.0625 -0.03125 0.109375q-0.015625 0.046875 -0.09375 0.078125q-0.0625 0.03125 -0.171875 0.046875q-0.109375 0.015625 -0.265625 0.015625q-0.15625 0 -0.265625 -0.015625q-0.109375 -0.015625 -0.1875 -0.046875q-0.0625 -0.03125 -0.09375 -0.078125q-0.03125 -0.046875 -0.03125 -0.109375l0 -0.921875q-0.5625 0.59375 -1.15625 0.9375q-0.59375 0.34375 -1.3125 0.34375q-0.765625 0 -1.3125 -0.296875q-0.546875 -0.3125 -0.890625 -0.828125q-0.34375 -0.515625 -0.5 -1.203125q-0.15625 -0.6875 -0.15625 -1.453125q0 -0.90625 0.1875 -1.640625q0.203125 -0.734375 0.578125 -1.25q0.390625 -0.515625 0.953125 -0.78125q0.578125 -0.28125 1.3125 -0.28125q0.625 0 1.125 0.265625q0.515625 0.265625 1.015625 0.796875l0 -4.09375q0 -0.046875 0.03125 -0.09375q0.03125 -0.0625 0.109375 -0.078125q0.078125 -0.03125 0.1875 -0.046875q0.125 -0.03125 0.3125 -0.03125q0.203125 0 0.328125 0.03125q0.125 0.015625 0.1875 0.046875q0.078125 0.015625 0.109375 0.078125q0.03125 0.046875 0.03125 0.09375l0 10.40625zm-1.296875 -4.9375q-0.515625 -0.65625 -1.015625 -0.984375q-0.484375 -0.34375 -1.015625 -0.34375q-0.484375 0 -0.828125 0.234375q-0.34375 0.234375 -0.5625 0.625q-0.21875 0.375 -0.3125 0.859375q-0.09375 0.484375 -0.09375 0.984375q0 0.53125 0.078125 1.046875q0.078125 0.5 0.28125 0.890625q0.203125 0.390625 0.53125 0.640625q0.34375 0.234375 0.859375 0.234375q0.25 0 0.484375 -0.0625q0.25 -0.078125 0.5 -0.234375q0.25 -0.171875 0.515625 -0.4375q0.28125 -0.265625 0.578125 -0.640625l0 -2.8125zm4.96875 4.9375q0 0.0625 -0.03125 0.109375q-0.03125 0.046875 -0.109375 0.078125q-0.0625 0.03125 -0.1875 0.046875q-0.125 0.015625 -0.3125 0.015625q-0.1875 0 -0.3125 -0.015625q-0.125 -0.015625 -0.203125 -0.046875q-0.078125 -0.03125 -0.109375 -0.078125q-0.015625 -0.046875 -0.015625 -0.109375l0 -7.03125q0 -0.046875 0.015625 -0.09375q0.03125 -0.046875 0.109375 -0.078125q0.078125 -0.03125 0.203125 -0.046875q0.125 -0.015625 0.3125 -0.015625q0.1875 0 0.3125 0.015625q0.125 0.015625 0.1875 0.046875q0.078125 0.03125 0.109375 0.078125q0.03125 0.046875 0.03125 0.09375l0 7.03125zm0.15625 -9.40625q0 0.453125 -0.171875 0.625q-0.171875 0.15625 -0.640625 0.15625q-0.453125 0 -0.625 -0.15625q-0.15625 -0.15625 -0.15625 -0.609375q0 -0.453125 0.171875 -0.609375q0.171875 -0.171875 0.625 -0.171875q0.453125 0 0.625 0.171875q0.171875 0.15625 0.171875 0.59375zm7.28125 8.34375q0 0.125 -0.015625 0.234375q0 0.09375 -0.015625 0.15625q-0.015625 0.0625 -0.046875 0.125q-0.03125 0.046875 -0.125 0.140625q-0.09375 0.09375 -0.328125 0.25q-0.234375 0.140625 -0.53125 0.265625q-0.296875 0.109375 -0.640625 0.171875q-0.34375 0.078125 -0.703125 0.078125q-0.765625 0 -1.359375 -0.25q-0.578125 -0.265625 -0.96875 -0.734375q-0.390625 -0.484375 -0.609375 -1.1875q-0.203125 -0.703125 -0.203125 -1.609375q0 -1.046875 0.25 -1.78125q0.265625 -0.75 0.703125 -1.21875q0.4375 -0.484375 1.03125 -0.71875q0.609375 -0.234375 1.296875 -0.234375q0.34375 0 0.65625 0.0625q0.3125 0.0625 0.578125 0.171875q0.265625 0.09375 0.46875 0.234375q0.21875 0.125 0.3125 0.21875q0.09375 0.09375 0.125 0.15625q0.03125 0.046875 0.046875 0.125q0.03125 0.078125 0.03125 0.171875q0.015625 0.09375 0.015625 0.234375q0 0.296875 -0.078125 0.421875q-0.0625 0.125 -0.15625 0.125q-0.125 0 -0.28125 -0.125q-0.140625 -0.140625 -0.375 -0.296875q-0.234375 -0.15625 -0.578125 -0.28125q-0.328125 -0.125 -0.78125 -0.125q-0.921875 0 -1.421875 0.71875q-0.5 0.703125 -0.5 2.0625q0 0.6875 0.125 1.203125q0.140625 0.5 0.390625 0.84375q0.25 0.34375 0.609375 0.515625q0.359375 0.171875 0.828125 0.171875q0.453125 0 0.78125 -0.140625q0.34375 -0.140625 0.578125 -0.3125q0.25 -0.171875 0.421875 -0.296875q0.171875 -0.140625 0.265625 -0.140625q0.046875 0 0.078125 0.03125q0.046875 0.03125 0.078125 0.109375q0.03125 0.0625 0.03125 0.1875q0.015625 0.109375 0.015625 0.265625zm5.375 0.546875q0 0.234375 -0.03125 0.375q-0.03125 0.125 -0.09375 0.1875q-0.0625 0.0625 -0.1875 0.125q-0.125 0.046875 -0.296875 0.078125q-0.15625 0.046875 -0.34375 0.0625q-0.171875 0.03125 -0.34375 0.03125q-0.546875 0 -0.9375 -0.140625q-0.390625 -0.15625 -0.640625 -0.453125q-0.25 -0.296875 -0.375 -0.734375q-0.109375 -0.453125 -0.109375 -1.0625l0 -4.109375l-0.984375 0q-0.109375 0 -0.1875 -0.125q-0.0625 -0.125 -0.0625 -0.40625q0 -0.15625 0.015625 -0.25q0.015625 -0.109375 0.046875 -0.171875q0.03125 -0.0625 0.078125 -0.09375q0.0625 -0.03125 0.125 -0.03125l0.96875 0l0 -1.671875q0 -0.046875 0.03125 -0.09375q0.03125 -0.046875 0.09375 -0.078125q0.078125 -0.046875 0.203125 -0.0625q0.125 -0.015625 0.3125 -0.015625q0.203125 0 0.328125 0.015625q0.125 0.015625 0.1875 0.0625q0.078125 0.03125 0.109375 0.078125q0.03125 0.046875 0.03125 0.09375l0 1.671875l1.796875 0q0.0625 0 0.109375 0.03125q0.046875 0.03125 0.078125 0.09375q0.046875 0.0625 0.0625 0.171875q0.015625 0.09375 0.015625 0.25q0 0.28125 -0.078125 0.40625q-0.0625 0.125 -0.1875 0.125l-1.796875 0l0 3.921875q0 0.71875 0.203125 1.09375q0.21875 0.375 0.78125 0.375q0.171875 0 0.3125 -0.03125q0.140625 -0.046875 0.25 -0.078125q0.109375 -0.046875 0.1875 -0.078125q0.078125 -0.03125 0.140625 -0.03125q0.046875 0 0.078125 0.015625q0.03125 0.015625 0.046875 0.078125q0.03125 0.046875 0.046875 0.140625q0.015625 0.09375 0.015625 0.234375zm2.984375 0.515625q0 0.0625 -0.03125 0.109375q-0.03125 0.046875 -0.109375 0.078125q-0.0625 0.03125 -0.1875 0.046875q-0.125 0.015625 -0.3125 0.015625q-0.1875 0 -0.3125 -0.015625q-0.125 -0.015625 -0.203125 -0.046875q-0.078125 -0.03125 -0.109375 -0.078125q-0.015625 -0.046875 -0.015625 -0.109375l0 -7.03125q0 -0.046875 0.015625 -0.09375q0.03125 -0.046875 0.109375 -0.078125q0.078125 -0.03125 0.203125 -0.046875q0.125 -0.015625 0.3125 -0.015625q0.1875 0 0.3125 0.015625q0.125 0.015625 0.1875 0.046875q0.078125 0.03125 0.109375 0.078125q0.03125 0.046875 0.03125 0.09375l0 7.03125zm0.15625 -9.40625q0 0.453125 -0.171875 0.625q-0.171875 0.15625 -0.640625 0.15625q-0.453125 0 -0.625 -0.15625q-0.15625 -0.15625 -0.15625 -0.609375q0 -0.453125 0.171875 -0.609375q0.171875 -0.171875 0.625 -0.171875q0.453125 0 0.625 0.171875q0.171875 0.15625 0.171875 0.59375zm8.0 2.359375q0 0.03125 -0.015625 0.078125q0 0.03125 -0.015625 0.078125q0 0.03125 -0.015625 0.078125q0 0.046875 -0.015625 0.09375l-2.40625 6.6875q-0.03125 0.078125 -0.078125 0.140625q-0.046875 0.046875 -0.15625 0.09375q-0.09375 0.03125 -0.25 0.03125q-0.15625 0.015625 -0.390625 0.015625q-0.234375 0 -0.390625 -0.015625q-0.15625 -0.015625 -0.265625 -0.046875q-0.09375 -0.03125 -0.15625 -0.078125q-0.046875 -0.0625 -0.078125 -0.140625l-2.390625 -6.6875q-0.03125 -0.09375 -0.046875 -0.15625q-0.015625 -0.078125 -0.03125 -0.109375q0 -0.03125 0 -0.0625q0 -0.0625 0.03125 -0.109375q0.03125 -0.046875 0.109375 -0.0625q0.078125 -0.03125 0.1875 -0.03125q0.125 -0.015625 0.3125 -0.015625q0.21875 0 0.359375 0.015625q0.140625 0 0.203125 0.03125q0.078125 0.03125 0.109375 0.078125q0.046875 0.046875 0.078125 0.125l1.984375 5.796875l0.03125 0.09375l0.015625 -0.09375l1.96875 -5.796875q0.015625 -0.078125 0.046875 -0.125q0.046875 -0.046875 0.109375 -0.078125q0.078125 -0.03125 0.203125 -0.03125q0.140625 -0.015625 0.34375 -0.015625q0.1875 0 0.296875 0.015625q0.125 0 0.1875 0.03125q0.0625 0.03125 0.09375 0.078125q0.03125 0.03125 0.03125 0.09375zm7.3046875 3.234375q0 0.296875 -0.15625 0.4375q-0.15625 0.125 -0.34375 0.125l-4.609375 0q0 0.578125 0.109375 1.046875q0.125 0.46875 0.390625 0.8125q0.28125 0.328125 0.71875 0.515625q0.4375 0.171875 1.0625 0.171875q0.5 0 0.890625 -0.078125q0.390625 -0.078125 0.671875 -0.171875q0.296875 -0.109375 0.46875 -0.1875q0.1875 -0.09375 0.28125 -0.09375q0.0625 0 0.09375 0.03125q0.046875 0.03125 0.0625 0.09375q0.03125 0.046875 0.046875 0.140625q0.015625 0.09375 0.015625 0.234375q0 0.109375 -0.015625 0.1875q0 0.0625 -0.015625 0.125q-0.015625 0.0625 -0.046875 0.109375q-0.015625 0.046875 -0.0625 0.09375q-0.046875 0.03125 -0.265625 0.140625q-0.203125 0.09375 -0.546875 0.1875q-0.328125 0.09375 -0.765625 0.171875q-0.4375 0.078125 -0.9375 0.078125q-0.875 0 -1.53125 -0.25q-0.640625 -0.25 -1.09375 -0.71875q-0.4375 -0.484375 -0.671875 -1.203125q-0.21875 -0.71875 -0.21875 -1.671875q0 -0.90625 0.234375 -1.625q0.234375 -0.71875 0.671875 -1.21875q0.4375 -0.515625 1.0625 -0.78125q0.625 -0.265625 1.40625 -0.265625q0.828125 0 1.40625 0.265625q0.578125 0.265625 0.953125 0.71875q0.375 0.4375 0.546875 1.046875q0.1875 0.609375 0.1875 1.296875l0 0.234375zm-1.296875 -0.390625q0.015625 -1.015625 -0.453125 -1.59375q-0.46875 -0.578125 -1.40625 -0.578125q-0.46875 0 -0.828125 0.1875q-0.359375 0.171875 -0.609375 0.46875q-0.234375 0.296875 -0.375 0.703125q-0.125 0.390625 -0.140625 0.8125l3.8125 0zm17.296875 4.203125q0 0.0625 -0.03125 0.109375q-0.03125 0.046875 -0.109375 0.078125q-0.0625 0.03125 -0.1875 0.046875q-0.125 0.015625 -0.3125 0.015625q-0.1875 0 -0.3125 -0.015625q-0.125 -0.015625 -0.203125 -0.046875q-0.078125 -0.03125 -0.109375 -0.078125q-0.03125 -0.046875 -0.03125 -0.109375l0 -4.265625q0 -0.453125 -0.078125 -0.8125q-0.078125 -0.375 -0.25 -0.640625q-0.171875 -0.265625 -0.4375 -0.40625q-0.265625 -0.140625 -0.625 -0.140625q-0.4375 0 -0.890625 0.34375q-0.453125 0.34375 -0.984375 1.015625l0 4.90625q0 0.0625 -0.03125 0.109375q-0.03125 0.046875 -0.109375 0.078125q-0.078125 0.03125 -0.203125 0.046875q-0.125 0.015625 -0.3125 0.015625q-0.171875 0 -0.3125 -0.015625q-0.125 -0.015625 -0.203125 -0.046875q-0.0625 -0.03125 -0.09375 -0.078125q-0.03125 -0.046875 -0.03125 -0.109375l0 -4.265625q0 -0.453125 -0.09375 -0.8125q-0.078125 -0.375 -0.25 -0.640625q-0.171875 -0.265625 -0.4375 -0.40625q-0.25 -0.140625 -0.609375 -0.140625q-0.453125 0 -0.90625 0.34375q-0.453125 0.34375 -0.984375 1.015625l0 4.90625q0 0.0625 -0.03125 0.109375q-0.03125 0.046875 -0.109375 0.078125q-0.0625 0.03125 -0.1875 0.046875q-0.125 0.015625 -0.3125 0.015625q-0.1875 0 -0.3125 -0.015625q-0.125 -0.015625 -0.203125 -0.046875q-0.078125 -0.03125 -0.109375 -0.078125q-0.015625 -0.046875 -0.015625 -0.109375l0 -7.03125q0 -0.0625 0.015625 -0.09375q0.03125 -0.046875 0.09375 -0.078125q0.078125 -0.046875 0.1875 -0.046875q0.109375 -0.015625 0.28125 -0.015625q0.171875 0 0.28125 0.015625q0.125 0 0.1875 0.046875q0.0625 0.03125 0.078125 0.078125q0.03125 0.03125 0.03125 0.09375l0 0.9375q0.59375 -0.671875 1.15625 -0.96875q0.5625 -0.3125 1.125 -0.3125q0.4375 0 0.78125 0.109375q0.359375 0.09375 0.625 0.28125q0.265625 0.171875 0.453125 0.4375q0.1875 0.25 0.3125 0.5625q0.34375 -0.390625 0.65625 -0.65625q0.328125 -0.265625 0.609375 -0.421875q0.296875 -0.171875 0.578125 -0.234375q0.28125 -0.078125 0.5625 -0.078125q0.671875 0 1.125 0.234375q0.46875 0.234375 0.75 0.640625q0.296875 0.390625 0.40625 0.9375q0.125 0.53125 0.125 1.125l0 4.4375zm8.890625 -3.59375q0 0.859375 -0.234375 1.59375q-0.21875 0.71875 -0.671875 1.25q-0.4375 0.515625 -1.125 0.8125q-0.671875 0.296875 -1.5625 0.296875q-0.859375 0 -1.515625 -0.265625q-0.640625 -0.265625 -1.078125 -0.75q-0.421875 -0.5 -0.640625 -1.203125q-0.203125 -0.703125 -0.203125 -1.59375q0 -0.859375 0.21875 -1.578125q0.234375 -0.71875 0.671875 -1.234375q0.453125 -0.53125 1.125 -0.8125q0.671875 -0.296875 1.578125 -0.296875q0.859375 0 1.5 0.265625q0.65625 0.25 1.078125 0.75q0.4375 0.484375 0.640625 1.1875q0.21875 0.703125 0.21875 1.578125zm-1.359375 0.09375q0 -0.578125 -0.109375 -1.078125q-0.09375 -0.515625 -0.34375 -0.890625q-0.234375 -0.390625 -0.65625 -0.609375q-0.40625 -0.21875 -1.03125 -0.21875q-0.5625 0 -0.984375 0.203125q-0.40625 0.203125 -0.671875 0.578125q-0.265625 0.359375 -0.390625 0.875q-0.125 0.5 -0.125 1.109375q0 0.578125 0.09375 1.09375q0.109375 0.5 0.359375 0.875q0.25 0.375 0.65625 0.609375q0.421875 0.21875 1.03125 0.21875q0.5625 0 0.96875 -0.203125q0.421875 -0.203125 0.6875 -0.5625q0.265625 -0.375 0.390625 -0.875q0.125 -0.515625 0.125 -1.125zm9.28125 3.5q0 0.0625 -0.03125 0.109375q-0.015625 0.046875 -0.09375 0.078125q-0.0625 0.03125 -0.171875 0.046875q-0.109375 0.015625 -0.265625 0.015625q-0.15625 0 -0.265625 -0.015625q-0.109375 -0.015625 -0.1875 -0.046875q-0.0625 -0.03125 -0.09375 -0.078125q-0.03125 -0.046875 -0.03125 -0.109375l0 -0.921875q-0.5625 0.59375 -1.15625 0.9375q-0.59375 0.34375 -1.3125 0.34375q-0.765625 0 -1.3125 -0.296875q-0.546875 -0.3125 -0.890625 -0.828125q-0.34375 -0.515625 -0.5 -1.203125q-0.15625 -0.6875 -0.15625 -1.453125q0 -0.90625 0.1875 -1.640625q0.203125 -0.734375 0.578125 -1.25q0.390625 -0.515625 0.953125 -0.78125q0.578125 -0.28125 1.3125 -0.28125q0.625 0 1.125 0.265625q0.515625 0.265625 1.015625 0.796875l0 -4.09375q0 -0.046875 0.03125 -0.09375q0.03125 -0.0625 0.109375 -0.078125q0.078125 -0.03125 0.1875 -0.046875q0.125 -0.03125 0.3125 -0.03125q0.203125 0 0.328125 0.03125q0.125 0.015625 0.1875 0.046875q0.078125 0.015625 0.109375 0.078125q0.03125 0.046875 0.03125 0.09375l0 10.40625zm-1.296875 -4.9375q-0.515625 -0.65625 -1.015625 -0.984375q-0.484375 -0.34375 -1.015625 -0.34375q-0.484375 0 -0.828125 0.234375q-0.34375 0.234375 -0.5625 0.625q-0.21875 0.375 -0.3125 0.859375q-0.09375 0.484375 -0.09375 0.984375q0 0.53125 0.078125 1.046875q0.078125 0.5 0.28125 0.890625q0.203125 0.390625 0.53125 0.640625q0.34375 0.234375 0.859375 0.234375q0.25 0 0.484375 -0.0625q0.25 -0.078125 0.5 -0.234375q0.25 -0.171875 0.515625 -0.4375q0.28125 -0.265625 0.578125 -0.640625l0 -2.8125zm9.6875 1.125q0 0.296875 -0.15625 0.4375q-0.15625 0.125 -0.34375 0.125l-4.609375 0q0 0.578125 0.109375 1.046875q0.125 0.46875 0.390625 0.8125q0.28125 0.328125 0.71875 0.515625q0.4375 0.171875 1.0625 0.171875q0.5 0 0.890625 -0.078125q0.390625 -0.078125 0.671875 -0.171875q0.296875 -0.109375 0.46875 -0.1875q0.1875 -0.09375 0.28125 -0.09375q0.0625 0 0.09375 0.03125q0.046875 0.03125 0.0625 0.09375q0.03125 0.046875 0.046875 0.140625q0.015625 0.09375 0.015625 0.234375q0 0.109375 -0.015625 0.1875q0 0.0625 -0.015625 0.125q-0.015625 0.0625 -0.046875 0.109375q-0.015625 0.046875 -0.0625 0.09375q-0.046875 0.03125 -0.265625 0.140625q-0.203125 0.09375 -0.546875 0.1875q-0.328125 0.09375 -0.765625 0.171875q-0.4375 0.078125 -0.9375 0.078125q-0.875 0 -1.53125 -0.25q-0.640625 -0.25 -1.09375 -0.71875q-0.4375 -0.484375 -0.671875 -1.203125q-0.21875 -0.71875 -0.21875 -1.671875q0 -0.90625 0.234375 -1.625q0.234375 -0.71875 0.671875 -1.21875q0.4375 -0.515625 1.0625 -0.78125q0.625 -0.265625 1.40625 -0.265625q0.828125 0 1.40625 0.265625q0.578125 0.265625 0.953125 0.71875q0.375 0.4375 0.546875 1.046875q0.1875 0.609375 0.1875 1.296875l0 0.234375zm-1.296875 -0.390625q0.015625 -1.015625 -0.453125 -1.59375q-0.46875 -0.578125 -1.40625 -0.578125q-0.46875 0 -0.828125 0.1875q-0.359375 0.171875 -0.609375 0.46875q-0.234375 0.296875 -0.375 0.703125q-0.125 0.390625 -0.140625 0.8125l3.8125 0zm4.5390625 4.203125q0 0.0625 -0.03125 0.109375q-0.03125 0.046875 -0.109375 0.078125q-0.0625 0.03125 -0.1875 0.046875q-0.125 0.015625 -0.3125 0.015625q-0.1875 0 -0.3125 -0.015625q-0.125 -0.015625 -0.203125 -0.046875q-0.078125 -0.03125 -0.109375 -0.078125q-0.015625 -0.046875 -0.015625 -0.109375l0 -10.4375q0 -0.0625 0.015625 -0.109375q0.03125 -0.046875 0.109375 -0.078125q0.078125 -0.03125 0.203125 -0.046875q0.125 -0.015625 0.3125 -0.015625q0.1875 0 0.3125 0.015625q0.125 0.015625 0.1875 0.046875q0.078125 0.03125 0.109375 0.078125q0.03125 0.046875 0.03125 0.109375l0 10.4375zm5.0 -4.0q0 0.890625 -0.109375 1.75q-0.109375 0.859375 -0.328125 1.71875q-0.21875 0.84375 -0.546875 1.65625q-0.3125 0.8125 -0.734375 1.609375q-0.015625 0.046875 -0.0625 0.078125q-0.046875 0.03125 -0.125 0.046875q-0.078125 0.03125 -0.1875 0.03125q-0.09375 0.015625 -0.234375 0.015625q-0.203125 0 -0.3125 -0.03125q-0.109375 -0.015625 -0.171875 -0.0625q-0.046875 -0.03125 -0.046875 -0.109375q0.015625 -0.0625 0.046875 -0.15625q0.71875 -1.578125 1.078125 -3.234375q0.375 -1.65625 0.375 -3.328125q0 -1.671875 -0.375 -3.328125q-0.359375 -1.65625 -1.09375 -3.21875q-0.03125 -0.078125 -0.03125 -0.140625q0.015625 -0.0625 0.078125 -0.09375q0.0625 -0.046875 0.171875 -0.0625q0.109375 -0.03125 0.296875 -0.03125q0.15625 0 0.265625 0.015625q0.109375 0.015625 0.171875 0.046875q0.078125 0.015625 0.109375 0.046875q0.03125 0.015625 0.046875 0.046875q0.796875 1.59375 1.25 3.296875q0.46875 1.6875 0.46875 3.4375z" fill-rule="nonzero"/><path fill="#000000" fill-opacity="0.0" d="m316.7244 95.396324l0 36.53544" fill-rule="evenodd"/><path stroke="#e69138" stroke-width="3.0" stroke-linejoin="round" stroke-linecap="butt" d="m316.7244 95.396324l0 18.53543" fill-rule="evenodd"/><path fill="#e69138" stroke="#e69138" stroke-width="3.0" stroke-linecap="butt" d="m311.76923 113.93176l4.9551697 13.614288l4.9552 -13.614288z" fill-rule="evenodd"/><path fill="#000000" fill-opacity="0.0" d="m316.7244 219.46194l0 36.53543" fill-rule="evenodd"/><path stroke="#e69138" stroke-width="3.0" stroke-linejoin="round" stroke-linecap="butt" d="m316.7244 219.46194l0 18.53543" fill-rule="evenodd"/><path fill="#e69138" stroke="#e69138" stroke-width="3.0" stroke-linecap="butt" d="m311.76923 237.99738l4.9551697 13.614288l4.9552 -13.614288z" fill-rule="evenodd"/></g></svg>